<mxfile host="app.diagrams.net" agent="Mozilla/5.0 (Macintosh; Intel Mac OS X 10_15_7) AppleWebKit/537.36 (KHTML, like Gecko) Chrome/136.0.0.0 Safari/537.36" version="27.0.6">
  <diagram name="Page-1" id="pFe8plF0TIuG-sey32cy">
    <mxGraphModel dx="2253" dy="790" grid="1" gridSize="10" guides="1" tooltips="1" connect="1" arrows="1" fold="1" page="1" pageScale="1" pageWidth="827" pageHeight="1169" math="0" shadow="0">
      <root>
        <mxCell id="0" />
        <mxCell id="1" parent="0" />
        <mxCell id="Fgjv1uMBf7nxLm6j8Wb8-1" value="" style="rounded=1;whiteSpace=wrap;html=1;arcSize=4;movable=0;resizable=0;rotatable=0;deletable=0;editable=0;locked=1;connectable=0;" vertex="1" parent="1">
          <mxGeometry x="-150" y="130" width="910" height="650" as="geometry" />
        </mxCell>
        <mxCell id="Fgjv1uMBf7nxLm6j8Wb8-2" value="IT Personal" style="shape=image;verticalLabelPosition=bottom;verticalAlign=top;imageAspect=0;aspect=fixed;image=data:image/svg+xml,PHN2ZyB4bWxucz0iaHR0cDovL3d3dy53My5vcmcvMjAwMC9zdmciIHhtbG5zOnhsaW5rPSImYW1wO25zX3hsaW5rOyIgeG1sOnNwYWNlPSJwcmVzZXJ2ZSIgb3ZlcmZsb3c9InZpc2libGUiIHZpZXdCb3g9IjAgMCAyOC44NzI5OTkxOTEyODQxOCA0Mi4zNjMwMDI3NzcwOTk2MSIgaGVpZ2h0PSI0Mi4zNjMwMDI3NzcwOTk2MSIgd2lkdGg9IjI4Ljg3Mjk5OTE5MTI4NDE4IiBpZD0iTGF5ZXJfMSIgdmVyc2lvbj0iMS4xIj4mI3hhOzxnPiYjeGE7CTxnPiYjeGE7CQk8Zz4mI3hhOwkJCTxwYXRoIGQ9Ik00LjUyNiw4LjUwNGMtMi44MDYsMC41MTEtNC40ODEsMS44MDgtNC40ODEsMy40NjdMMCwyNC43MzFjMC4wMTksMC44MTgsMC40OTUsMi4zNDUsMi4xNjUsMi4zNDUmIzEwOyYjOTsmIzk7JiM5OyYjOTtjMC42NzUsMCwxLjEzNS0wLjIyOCwxLjQ5LTAuNTEzYzAsMi4yNDksMCwxMi43ODcsMCwxMi43OTVjMCwwLjE1NywwLjAyOCwxLjM3NiwwLjg1NiwyLjIxOSYjMTA7JiM5OyYjOTsmIzk7JiM5O2MwLjUxMiwwLjUyMSwxLjIwOSwwLjc4NiwyLjA3MiwwLjc4NmMxLjQ1NCwwLDIuMjA5LTAuNjk0LDIuNjE2LTEuNDQyYzAuNDA3LDAuNzQ4LDEuMTYzLDEuNDQyLDIuNjE3LDEuNDQybDAsMCYjMTA7JiM5OyYjOTsmIzk7JiM5O2MwLjg2MywwLDEuNTYxLTAuMjY1LDIuMDczLTAuNzg2YzAuODMtMC44NDQsMC44NTgtMi4wNjQsMC44NTgtMi4yMjZjMC0wLjAwOCwwLTEwLjUzNywwLTEyLjc4NyYjMTA7JiM5OyYjOTsmIzk7JiM5O2MwLjM1NCwwLjI4NSwwLjgxMiwwLjUxMiwxLjQ4NywwLjUxMmMxLjY2OSwwLDIuMTQ2LTEuNTI2LDIuMTY1LTIuMzMzYzAtMC4wMTItMC4wNDUtMTIuNzcyLTAuMDQ1LTEyLjc3MiYjMTA7JiM5OyYjOTsmIzk7JiM5O2MwLTEuNjU5LTEuNjc2LTIuOTU2LTQuNDgxLTMuNDY3Yy0xLjk5NC0wLjM2MS00LjIxMS0wLjQwOS00LjMwNS0wLjQxMUg4LjgzOEM4LjczNyw4LjA5Niw2LjUxOSw4LjE0NCw0LjUyNiw4LjUwNHomIzEwOyYjOTsmIzk7JiM5OyYjOTsgTTAuODU0LDExLjk3MWMwLTEuODMyLDIuOTIxLTIuNTA3LDMuODE2LTIuNjdjMS45MjgtMC4zNDksNC4xNTMtMC4zOTcsNC4xNzYtMC4zOThoMC43MTJjMC4wMTQsMCwyLjI0LDAuMDQ5LDQuMTY4LDAuMzk4JiMxMDsmIzk7JiM5OyYjOTsmIzk7YzAuODk1LDAuMTYzLDMuODE1LDAuODM4LDMuODE1LDIuNjdsMC4wNDUsMTIuNzY0Yy0wLjAwNCwwLjE0Ni0wLjA4MywxLjUzLTEuMzU0LDEuNTNjLTEuMjk4LDAtMS40NzUtMS4wMTktMS40OTEtMS4xMzUmIzEwOyYjOTsmIzk7JiM5OyYjOTtsLTAuODA3LDAuMDUydjE0LjE2YzAsMC4wMTYsMC4wMDQsMS4wMzEtMC42MjksMS42NzFjLTAuMzU0LDAuMzU3LTAuODU2LDAuNTM5LTEuNDkxLDAuNTM5Yy0yLjA5NywwLTIuMjA3LTEuNzUtMi4yMTItMS45NSYjMTA7JiM5OyYjOTsmIzk7JiM5O2wtMC44MSwwLjAwMWMtMC4wMDUsMC4xOTktMC4xMTQsMS45NDktMi4yMSwxLjk0OWMtMC42MzUsMC0xLjEzNy0wLjE4Mi0xLjQ5MS0wLjUzOWMtMC42MzItMC42NC0wLjYyOC0xLjY1NC0wLjYyOC0xLjY2NVYyNS4xODMmIzEwOyYjOTsmIzk7JiM5OyYjOTtsLTAuODA2LTAuMDUyYy0wLjAxNywwLjExNi0wLjE5NSwxLjEzNS0xLjQ5MywxLjEzNWMtMS4yNzEsMC0xLjM1LTEuMzg1LTEuMzU1LTEuNTQzTDAuODU0LDExLjk3MXoiLz4mI3hhOwkJPC9nPiYjeGE7CQk8Zz4mI3hhOwkJCTxyZWN0IGhlaWdodD0iMTAuNjQxIiB3aWR0aD0iMC44MSIgeT0iMTQuNzIxIiB4PSIzLjY1NCIvPiYjeGE7CQk8L2c+JiN4YTsJCTxnPiYjeGE7CQkJPHJlY3QgaGVpZ2h0PSIxMC42NDMiIHdpZHRoPSIwLjgxMSIgeT0iMTQuODU2IiB4PSIxMy45MzMiLz4mI3hhOwkJPC9nPiYjeGE7CQk8Zz4mI3hhOwkJCTxyZWN0IGhlaWdodD0iMTIuNzE3IiB3aWR0aD0iMC44MSIgeT0iMjcuMjEyIiB4PSI4Ljc5MyIvPiYjeGE7CQk8L2c+JiN4YTsJPC9nPiYjeGE7CTxnPiYjeGE7CQk8cG9seWdvbiBwb2ludHM9IjI3LjE3MiwyMS4xMzMgMTYuODIzLDQuNDgzIDYuNTg2LDIxLjEyNSIgZmlsbD0iI0ZGRkZGRiIvPiYjeGE7CQk8cGF0aCBkPSJNMTYuMDE4LDMuOTg4TDQuODk2LDIyLjA2OWwyMy45NzcsMC4wMUwxNi44MTksMi42ODZMMTYuMDE4LDMuOTg4eiBNMTYuODI3LDYuMjgmIzEwOyYjOTsmIzk7JiM5O2MxLjI0MywyLDcuMjc1LDExLjcwNCw4LjY0NiwxMy45MDhjLTIuNjA2LTAuMDAxLTE0LjYwNC0wLjAwNS0xNy4xOTUtMC4wMDZDOS42MjgsMTcuOTg0LDE1LjU5NCw4LjI4NCwxNi44MjcsNi4yOHoiIGZpbGw9IiNDMzAwMDkiLz4mI3hhOwk8L2c+JiN4YTsJPGc+JiN4YTsJCTxyZWN0IGhlaWdodD0iNi4xNjQiIHdpZHRoPSIxLjg5MSIgeT0iOS43MjEiIHg9IjE1Ljg0NSIvPiYjeGE7CTwvZz4mI3hhOwk8Y2lyY2xlIHI9IjEuMTI2IiBjeT0iMTguMTM3IiBjeD0iMTYuNzYiLz4mI3hhOwk8Zz4mI3hhOwkJPHBhdGggZD0iTTQuNzM2LDQuMzY2YzAsMi40MDcsMS45NTgsNC4zNjYsNC4zNjYsNC4zNjZjMi40MDYsMCw0LjM2NC0xLjk1OCw0LjM2NC00LjM2NlMxMS41MDgsMCw5LjEwMiwwJiMxMDsmIzk7JiM5OyYjOTtDNi42OTUsMCw0LjczNiwxLjk1OCw0LjczNiw0LjM2NnogTTUuNTQ2LDQuMzY2YzAtMS45NjEsMS41OTUtMy41NTYsMy41NTYtMy41NTZjMS45NTksMCwzLjU1NCwxLjU5NSwzLjU1NCwzLjU1NiYjMTA7JiM5OyYjOTsmIzk7cy0xLjU5NSwzLjU1Ni0zLjU1NCwzLjU1NkM3LjE0MSw3LjkyMiw1LjU0Niw2LjMyNyw1LjU0Niw0LjM2NnoiLz4mI3hhOwk8L2c+JiN4YTs8L2c+JiN4YTs8L3N2Zz4=" vertex="1" parent="1">
          <mxGeometry x="236" y="158" width="29" height="42" as="geometry" />
        </mxCell>
        <mxCell id="Fgjv1uMBf7nxLm6j8Wb8-3" value="Hacker" style="shape=image;verticalLabelPosition=bottom;verticalAlign=top;imageAspect=0;aspect=fixed;image=data:image/svg+xml,PHN2ZyB4bWxucz0iaHR0cDovL3d3dy53My5vcmcvMjAwMC9zdmciIHhtbG5zOnhsaW5rPSImYW1wO25zX3hsaW5rOyIgeG1sOnNwYWNlPSJwcmVzZXJ2ZSIgb3ZlcmZsb3c9InZpc2libGUiIHZpZXdCb3g9Ii0wLjEzNSAtMC4xMzUgMjguODcyOTk4NzMzNTIwNTA3IDQ1LjEzMTk5OTUxMTcxODc1IiBoZWlnaHQ9IjQ1LjEzMTk5OTUxMTcxODc1IiB3aWR0aD0iMjguODcyOTk4NzMzNTIwNTA3IiBpZD0iTGF5ZXJfMSIgdmVyc2lvbj0iMS4xIj4mI3hhOzxnPiYjeGE7CTxnPiYjeGE7CQk8Zz4mI3hhOwkJCTxwYXRoIGQ9Ik00LjMwNCwxMS41NDFjLTEsMC4xODItNC4yNTksMC45NTEtNC4yNTksMy4yMDFMMCwyNy41MDNjMCwwLjAyNCwwLjA2OSwyLjA3MywxLjg5MywyLjA3MyYjMTA7JiM5OyYjOTsmIzk7JiM5O2MxLjAxNywwLDEuNTA0LTAuNDg4LDEuNzYtMC45MzFjMCwxLjI1MiwwLDEzLjQ3NSwwLDEzLjQ4MmMwLDAuMTQ2LDAuMDI2LDEuMjYzLDAuNzgsMi4wM2MwLjQ2LDAuNDY4LDEuMDkyLDAuNzA1LDEuODgsMC43MDUmIzEwOyYjOTsmIzk7JiM5OyYjOTtjMS43NjMsMCwyLjM4OC0xLjA2LDIuNjE1LTEuNzk0YzAuMjI4LDAuNzM0LDAuODU0LDEuNzk0LDIuNjE1LDEuNzk0YzAuNzg5LDAsMS40MjItMC4yMzcsMS44ODItMC43MDUmIzEwOyYjOTsmIzk7JiM5OyYjOTtjMC43NTQtMC43NjgsMC43OC0xLjg4NCwwLjc4LTIuMDMyYzAtMC4wMDgsMC0xMi4yMjgsMC0xMy40OGMwLjI1NiwwLjQ0MiwwLjc0MywwLjkzMSwxLjc1OCwwLjkzMSYjMTA7JiM5OyYjOTsmIzk7JiM5O2MxLjgyMywwLDEuODkzLTIuMDQ5LDEuODkzLTIuMDY5YzAtMC4wMDQtMC4wNDUtMTIuNzY1LTAuMDQ1LTEyLjc2NWMwLTIuMjUtMy4yNi0zLjAxOS00LjI1OS0zLjIwMSYjMTA7JiM5OyYjOTsmIzk7JiM5O2MtMS45NzMtMC4zNTctNC4yMzctMC40MDYtNC4yNi0wLjQwNmwtMC43MjQsMEM4LjU0MywxMS4xMzUsNi4yNzYsMTEuMTg0LDQuMzA0LDExLjU0MXoiLz4mI3hhOwkJPC9nPiYjeGE7CQk8bGluZSB5Mj0iMjkuOTgyIiB4Mj0iOC45MjgiIHkxPSI0Mi42OTkiIHgxPSI4LjkyOCIgc3Ryb2tlLXdpZHRoPSIwLjI3IiBzdHJva2U9IiMwMDAwMDAiLz4mI3hhOwk8L2c+JiN4YTsJPGc+JiN4YTsJCTxwb2x5Z29uIHBvaW50cz0iMjYuOTAyLDIzLjkwNCAxNi41NTMsNy4yNTMgNi4zMTYsMjMuODk2IiBmaWxsPSIjRkZGRkZGIi8+JiN4YTsJCTxwYXRoIGQ9Ik0xNS43NDgsNi43NThMNC42MjYsMjQuODQxbDIzLjk3NywwLjAwOUwxNi41NDksNS40NTdMMTUuNzQ4LDYuNzU4eiBNMTYuNTU3LDkuMDUmIzEwOyYjOTsmIzk7JiM5O2MxLjI0MywyLDcuMjc1LDExLjcwNSw4LjY0NiwxMy45MDhjLTIuNjA2LTAuMDAxLTE0LjYwNC0wLjAwNS0xNy4xOTUtMC4wMDZDOS4zNTgsMjAuNzU1LDE1LjMyNCwxMS4wNTUsMTYuNTU3LDkuMDV6IiBmaWxsPSIjQzMwMDA5Ii8+JiN4YTsJPC9nPiYjeGE7CTxnPiYjeGE7CQk8cmVjdCBoZWlnaHQ9IjYuMTY0IiB3aWR0aD0iMS44OTEiIHk9IjEyLjQ5MiIgeD0iMTUuNjM1Ii8+JiN4YTsJPC9nPiYjeGE7CTxjaXJjbGUgcj0iMS4xMjUiIGN5PSIyMC45MDgiIGN4PSIxNi41NzciLz4mI3hhOwk8Zz4mI3hhOwkJPHBhdGggZD0iTTQuOTYsNS44MDFDNC44MTUsNi4yMiw0LjczNiw2LjY2OSw0LjczNiw3LjEzNmMwLDIuMjU4LDEuODM3LDQuMDk2LDQuMDk2LDQuMDk2YzIuMjU3LDAsNC4wOTQtMS44MzgsNC4wOTQtNC4wOTYmIzEwOyYjOTsmIzk7JiM5O2MwLTAuNDU2LTAuMDc1LTAuODk1LTAuMjEzLTEuMzA1YzAsMCwwLjk2LTAuMjU3LDEuODEyLTIuMDY3QzE1LjQ0NiwxLjgwNSwxNC4xMDEsMCwxNC4xMDEsMHMtMC4yNDgsMS42MTctMC45NTEsMi43MjcmIzEwOyYjOTsmIzk7JiM5O2MtMC41NTIsMC44NzItMS42NCwxLjMxMy0xLjY0LDEuMzEzYy0wLjcxOC0wLjYyMy0xLjY1NS0xLTIuNjc4LTFjLTEuMDEyLDAtMS45MDUsMC4zNTctMi42MiwwLjk2OGMwLDAtMC45MzItMC4zNjMtMS41LTEuMTg4JiMxMDsmIzk7JiM5OyYjOTtDMy45MTUsMS42NjQsMy42ODgsMCwzLjY4OCwwcy0xLjEzMywxLjYzMy0wLjU3LDMuMzY3QzMuNzE0LDUuMjA1LDQuOTYsNS44MDEsNC45Niw1LjgwMXoiLz4mI3hhOwk8L2c+JiN4YTs8L2c+JiN4YTs8L3N2Zz4=;movable=1;resizable=1;rotatable=1;deletable=1;editable=1;locked=0;connectable=1;" vertex="1" parent="1">
          <mxGeometry x="140" y="614" width="29" height="45" as="geometry" />
        </mxCell>
        <mxCell id="Fgjv1uMBf7nxLm6j8Wb8-4" value="Computer&#xa;virus or malware" style="shape=image;verticalLabelPosition=bottom;verticalAlign=top;imageAspect=0;aspect=fixed;image=data:image/svg+xml,PHN2ZyB4bWxucz0iaHR0cDovL3d3dy53My5vcmcvMjAwMC9zdmciIHhtbG5zOnhsaW5rPSImYW1wO25zX3hsaW5rOyIgeG1sOnNwYWNlPSJwcmVzZXJ2ZSIgb3ZlcmZsb3c9InZpc2libGUiIHZpZXdCb3g9IjAgMCAzOS4zMDg5OTgxMDc5MTAxNTYgNDAuNjgwOTk5NzU1ODU5Mzc1IiBoZWlnaHQ9IjQwLjY4MDk5OTc1NTg1OTM3NSIgd2lkdGg9IjM5LjMwODk5ODEwNzkxMDE1NiIgaWQ9IkxheWVyXzEiIHZlcnNpb249IjEuMSI+JiN4YTs8Zz4mI3hhOwk8Zz4mI3hhOwkJPHBhdGggZD0iTTM0LjgyMiwzMi4xODFjMCwwLTQuOTE4LDIuNzUtMTAuMTY4LDIuNzVzLTYuMjUtMy4yNS0xMi43NS0zLjI1JiMxMDsmIzk7JiM5OyYjOTtzLTExLjUsMy4yNS0xMS41LDMuMjVWOS4xODFjMCwwLDUtMy4yNSwxMS41LTMuMjVzNy41LDMuMjUsMTIuNzUsMy4yNXMxMC4xNjgtMi43NSwxMC4xNjgtMi43NVYzMi4xODF6IiBmaWxsPSIjRkZGRkZGIi8+JiN4YTsJCTxwYXRoIGQ9Ik0wLjE4NCw4Ljg0MUwwLDguOTYxdjI2LjcxNWwwLjYyNS0wLjQwNWMwLjA0OS0wLjAzMiw0Ljk4Mi0zLjE4NSwxMS4yNzktMy4xODVjMy4zMzIsMCw1LjE2OCwwLjg3Miw2Ljk0NCwxLjcxNiYjMTA7JiM5OyYjOTsmIzk7YzEuNjYxLDAuNzg5LDMuMjMsMS41MzQsNS44MDYsMS41MzRjNS4yOTUsMCwxMC4xNjEtMi42ODgsMTAuMzY1LTIuODAybDAuMjA4LTAuMTE2VjUuNzQxbC0wLjYwMywwLjMzNiYjMTA7JiM5OyYjOTsmIzk7Yy0wLjA0OSwwLjAyNy00Ljg5MywyLjY5OS05Ljk3MSwyLjY5OWMtMi4zOTQsMC0zLjg4My0wLjcwOC01LjQ1OC0xLjQ1NmMtMS43NzEtMC44NDEtMy43NzctMS43OTQtNy4yOTItMS43OTQmIzEwOyYjOTsmIzk7JiM5O0M1LjM1OSw1LjUyNiwwLjM5Miw4LjcwNiwwLjE4NCw4Ljg0MXogTTExLjkwNCw2LjMzNWMzLjMzMiwwLDUuMTY4LDAuODczLDYuOTQ0LDEuNzE2YzEuNjYxLDAuNzg5LDMuMjMsMS41MzQsNS44MDYsMS41MzQmIzEwOyYjOTsmIzk7JiM5O2M0LjMyMywwLDguMzE1LTEuNzcyLDkuNzYzLTIuNDkyYzAsMS4yNDUsMCwyNC4zNzcsMCwyNC44NDNjLTAuOTM4LDAuNDg3LTUuMjQ3LDIuNTg5LTkuNzYzLDIuNTg5JiMxMDsmIzk7JiM5OyYjOTtjLTIuMzk0LDAtMy44ODMtMC43MDctNS40NTgtMS40NTZjLTEuNzcxLTAuODQxLTMuNzc3LTEuNzk0LTcuMjkyLTEuNzk0Yy01LjM0MiwwLTkuNTg0LDIuMDk3LTExLjA5NSwyLjk0OSYjMTA7JiM5OyYjOTsmIzk7YzAtMS4zMjMsMC0yNC4zODEsMC0yNC44MTZDMS42NzIsOC44OTEsNi4yMTEsNi4zMzUsMTEuOTA0LDYuMzM1eiIvPiYjeGE7CTwvZz4mI3hhOwk8Zz4mI3hhOwkJPGc+JiN4YTsJCQk8cG9seWdvbiBwb2ludHM9IjI3Ljg2MywyNy43MTkgMTcuNTE0LDExLjA2OSA3LjI3NywyNy43MTEiIGZpbGw9IiNGRkZGRkYiLz4mI3hhOwkJCTxwYXRoIGQ9Ik0xNi43MDksMTAuNTc0TDUuNTg3LDI4LjY1NWwyMy45NzcsMC4wMDlMMTcuNTA5LDkuMjcyTDE2LjcwOSwxMC41NzR6IE0xNy41MTgsMTIuODY2JiMxMDsmIzk7JiM5OyYjOTsmIzk7YzEuMjQzLDIsNy4yNzUsMTEuNzA0LDguNjQ1LDEzLjkwOGMtMi42MDYtMC4wMDEtMTQuNjA0LTAuMDA2LTE3LjE5NS0wLjAwN0MxMC4zMTksMjQuNTcsMTYuMjg1LDE0Ljg3LDE3LjUxOCwxMi44NjZ6IiBmaWxsPSIjQzMwMDA5Ii8+JiN4YTsJCTwvZz4mI3hhOwkJPGc+JiN4YTsJCQk8cmVjdCBoZWlnaHQ9IjYuMTY0IiB3aWR0aD0iMS44OSIgeT0iMTYuMzA3IiB4PSIxNi41OTEiLz4mI3hhOwkJPC9nPiYjeGE7CQk8Y2lyY2xlIHI9IjEuMTI2IiBjeT0iMjQuNzIzIiBjeD0iMTcuNTEiLz4mI3hhOwk8L2c+JiN4YTsJPGc+JiN4YTsJCTxyZWN0IGhlaWdodD0iMzUuNjY3IiB3aWR0aD0iMi41IiBmaWxsPSIjRkZGRkZGIiB5PSI1LjAxNCIgeD0iMzQuOTA0Ii8+JiN4YTsJCTxwYXRoIGQ9Ik0zNy40MDQsNC42MDloLTIuOTA1djM2LjA3MWgwLjgxMWMwLDAsMC0zNC40NywwLTM1LjI2MmMwLjQ1OSwwLDEuMjMsMCwxLjY4OSwwYzAsMC43OTIsMCwzNS4yNjIsMCwzNS4yNjJoMC44MTFWNC42MDkmIzEwOyYjOTsmIzk7JiM5O0gzNy40MDR6Ii8+JiN4YTsJPC9nPiYjeGE7CTxnPiYjeGE7CQk8Y2lyY2xlIHI9IjIuODMzIiBjeT0iMy4yMzgiIGN4PSIzNi4wNzEiIGZpbGw9IiNGRkZGRkYiLz4mI3hhOwkJPHBhdGggZD0iTTMyLjgzMywzLjIzOGMwLDEuNzg2LDEuNDUzLDMuMjM4LDMuMjM5LDMuMjM4YzEuNzg1LDAsMy4yMzctMS40NTIsMy4yMzctMy4yMzhTMzcuODU3LDAsMzYuMDcyLDAmIzEwOyYjOTsmIzk7JiM5O0MzNC4yODYsMCwzMi44MzMsMS40NTIsMzIuODMzLDMuMjM4eiBNMzMuNjQ0LDMuMjM4YzAtMS4zMzksMS4wODktMi40MjgsMi40MjktMi40MjhjMS4zMzgsMCwyLjQyNywxLjA4OSwyLjQyNywyLjQyOCYjMTA7JiM5OyYjOTsmIzk7cy0xLjA4OSwyLjQyOC0yLjQyNywyLjQyOEMzNC43MzIsNS42NjYsMzMuNjQ0LDQuNTc3LDMzLjY0NCwzLjIzOHoiLz4mI3hhOwk8L2c+JiN4YTs8L2c+JiN4YTs8L3N2Zz4=" vertex="1" parent="1">
          <mxGeometry x="180" y="684.4999999999999" width="39" height="41" as="geometry" />
        </mxCell>
        <mxCell id="Fgjv1uMBf7nxLm6j8Wb8-5" value="" style="endArrow=classic;html=1;rounded=0;exitX=1;exitY=0.705;exitDx=0;exitDy=0;entryX=0;entryY=0.5;entryDx=0;entryDy=0;exitPerimeter=0;" edge="1" parent="1" source="Fgjv1uMBf7nxLm6j8Wb8-4" target="Fgjv1uMBf7nxLm6j8Wb8-32">
          <mxGeometry width="50" height="50" relative="1" as="geometry">
            <mxPoint x="308" y="540" as="sourcePoint" />
            <mxPoint x="151" y="795.7610526315791" as="targetPoint" />
          </mxGeometry>
        </mxCell>
        <mxCell id="Fgjv1uMBf7nxLm6j8Wb8-6" value="web&#xa;infrastructure" style="shape=image;verticalLabelPosition=bottom;verticalAlign=top;imageAspect=0;aspect=fixed;image=data:image/svg+xml,PHN2ZyB4bWxucz0iaHR0cDovL3d3dy53My5vcmcvMjAwMC9zdmciIHhtbG5zOnhsaW5rPSImYW1wO25zX3hsaW5rOyIgeG1sOnNwYWNlPSJwcmVzZXJ2ZSIgb3ZlcmZsb3c9InZpc2libGUiIHZpZXdCb3g9IjAgMCAzNS41NDM5OTg3MTgyNjE3MiA0MS4wODgwMDEyNTEyMjA3IiBoZWlnaHQ9IjQxLjA4ODAwMTI1MTIyMDciIHdpZHRoPSIzNS41NDM5OTg3MTgyNjE3MiIgaWQ9IkxheWVyXzEiIHZlcnNpb249IjEuMSI+JiN4YTs8Zz4mI3hhOwk8Zz4mI3hhOwkJPHBhdGggZD0iTTE1Ljg3Nyw0LjA1NGMwLDAsMC43NDQtMy4zOTIsMS43MzgtMy42MDQmIzEwOyYjOTsmIzk7JiM5O2MwLjk5Mi0wLjIxMywxLjM0NiwzLjE4OSwxLjM0NiwzLjE4OXMxLjc3My0xLjg0MywyLjk3Ny0yLjE5N2MxLjIwNS0wLjM1NCwyLjE5OS0wLjA3LDEuMjc3LDAuOTkzJiMxMDsmIzk7JiM5OyYjOTtjLTAuOTIyLDEuMDYyLTIuMDE0LDQuNDYtMS45ODYsNi4wOTZjMC4wNzIsMy44OTgsMy43MzQsNS4xOSw1LjkzNCw2LjY0N2M2LjY0Myw0LjQwMiw3LjkyMiw4LjY0NCw3LjkyMiwxMy4zNjUmIzEwOyYjOTsmIzk7JiM5O2MwLDYuODgzLTYuNzIxLDEyLjA4Ni0xNy4yNTgsMTIuMDg2Yy0xMS43NjYsMC0xNy4zNjctNi4xNjItMTcuMzY3LTEyLjQ2M2MwLTUuNDU3LDIuOTgyLTkuNTI4LDcuMDk2LTExLjg2NyYjMTA7JiM5OyYjOTsmIzk7YzQuNDM2LTIuNTI1LDYuNjU4LTMuMzczLDguNS00Ljc5MWMxLjg0Mi0xLjQxNy0xLjkxNC01LjQ1OS0zLjQ3My02LjUyMWMtMS4yNDQtMC44NDktMS4yMDUtMC45OTMtMy4zMzItMS43NzImIzEwOyYjOTsmIzk7JiM5O2MwLDAsMS43NzctMS42MzIsMy42MTUtMS4wNjNjMi4xOTMsMC42NzgsNC4xMTEsMy4yNjEsNC4xMTEsMy4yNjEiIGZpbGw9IiNDMjkwNTQiLz4mI3hhOwkJPHBhdGggZD0iTTE1LjU5OSwzLjI4NWMtMC43MzEtMC42NDEtMS42MjctMS4yNzMtMi41OTctMS41NzNjLTIuMDY2LTAuNjM5LTMuOTgxLDEuMDktNC4wNjIsMS4xNjRsLTAuNTU2LDAuNTFsMC43MDgsMC4yNTkmIzEwOyYjOTsmIzk7JiM5O2MxLjY2NywwLjYxMSwxLjkzLDAuNzk5LDIuNjMyLDEuM2wwLjU5OSwwLjQyYzEuMjY5LDAuODY1LDMuNzI0LDMuNTA2LDMuNzY5LDUuMDUzYzAuMDA5LDAuMzIxLTAuMDkyLDAuNTUyLTAuMzE3LDAuNzI1JiMxMDsmIzk7JiM5OyYjOTtjLTEuMDYzLDAuODE5LTIuMjk5LDEuNDYzLTQuMDA5LDIuMzU1TDcuMzI4LDE1LjlDMi42NzEsMTguNTQ3LDAsMjMuMDE4LDAsMjguMTY2YzAsNi40MzIsNS41MTIsMTIuOTIyLDE3LjgyNywxMi45MjImIzEwOyYjOTsmIzk7JiM5O2MxMC40MzIsMCwxNy43MTctNS4xNTgsMTcuNzE3LTEyLjU0NWMwLTQuMzQzLTAuOTg0LTkuMDE0LTguMTI3LTEzLjc0OGwtMS4zMDctMC43OTJjLTIuMDQ3LTEuMTg4LTQuMzY3LTIuNTM1LTQuNDIyLTUuNDgxJiMxMDsmIzk7JiM5OyYjOTtjLTAuMDI1LTEuNTI5LDEuMDQzLTQuODI4LDEuODc0LTUuNzg2YzAuNjA1LTAuNjk4LDAuNTIyLTEuMTcsMC4zNDctMS40NDNjLTAuMzA3LTAuNDc5LTEuMDkyLTAuNTg3LTIuMS0wLjI5MiYjMTA7JiM5OyYjOTsmIzk7Yy0wLjg1NiwwLjI1Mi0xLjg2NiwxLjA5Mi0yLjUyMiwxLjY5NWMtMC4xNTctMC45MDUtMC40NjMtMi4xMS0xLjA0OC0yLjUzNUwxNy41MTksMEMxNi41NDYsMC4yMDgsMTUuOTIzLDIuMDM2LDE1LjU5OSwzLjI4NXomIzEwOyYjOTsmIzk7JiM5OyBNMTcuNzExLDAuODk4YzAuMjU4LDAuMTE4LDAuNjU2LDEuNDc0LDAuNzkzLDIuNzg4bDAuMTAzLDAuOTgybDAuNjg2LTAuNzExYzAuNDctMC40ODksMS44ODYtMS44MTMsMi43NzUtMi4wNzYmIzEwOyYjOTsmIzk7JiM5O2MwLjYxMi0wLjE4LDAuOTYyLTAuMTI0LDEuMDUzLTAuMDc3Yy0wLjAyOSwwLjAyMS0wLjA3NywwLjEyNi0wLjI1MiwwLjMyOWMtMC45NzksMS4xMjctMi4xLDQuNTI0LTIuMSw2LjMzNCYjMTA7JiM5OyYjOTsmIzk7YzAsMC4wMjQsMCwwLjA0NywwLjAwMSwwLjA3YzAuMDYzLDMuNDY1LDIuNzMzLDUuMDE1LDQuODc5LDYuMjZsMS4yNiwwLjc2M2M2LjQwNCw0LjI0NCw3LjcxNyw4LjI1OSw3LjcxNywxMi45ODImIzEwOyYjOTsmIzk7JiM5O2MwLDYuODQ2LTYuOTA4LDExLjYyNy0xNi43OTksMTEuNjI3Yy0xMS42OCwwLTE2LjkwOC02LjAyOS0xNi45MDgtMTIuMDA0YzAtNC44NzgsMi40MzgtOC45NTEsNi44NjMtMTEuNDY3bDQuNDA4LTIuMzg1JiMxMDsmIzk7JiM5OyYjOTtjMS43NTItMC45MTQsMy4wMTctMS41NzQsNC4xNDUtMi40NDJjMC40NDMtMC4zNDEsMC42NzYtMC44MjksMC42NzYtMS40MTVjMC0wLjAyMSwwLTAuMDQzLTAuMDAxLTAuMDY0JiMxMDsmIzk7JiM5OyYjOTtjLTAuMDYxLTIuMTA5LTMuMDA3LTQuOTkzLTQuMTY5LTUuNzg1bC0wLjU4My0wLjQwOWMtMC41OTgtMC40MjctMC45NzUtMC42NzctMi4wNS0xLjEwNmMwLjYxLTAuMzc2LDEuNTYyLTAuNzk5LDIuNTIxLTAuNTAyJiMxMDsmIzk7JiM5OyYjOTtjMi4wMjEsMC42MjUsMy44NiwzLjA3MSwzLjg3OCwzLjA5NmwwLjczNy0wLjU0OGMtMC4wMzQtMC4wNDYtMC40MDYtMC41MzItMC45ODItMS4xMjdDMTYuNzI4LDIuNDQsMTcuMzU0LDAuOTc1LDE3LjcxMSwwLjg5OHoiLz4mI3hhOwk8L2c+JiN4YTsJPGc+JiN4YTsJCTxwYXRoIGQ9Ik0yMi43MzcsNi41MWMtMC4wMzUtMC4zMTktMC4yMTMtMC43OTctMS43NTQtMC41NjcmIzEwOyYjOTsmIzk7JiM5O2MtMS44MzYsMC4yNzQtNS41NzIsMS4xNjQtNi4zOTgsMS41NzdjLTAuNzQ0LDAuMzczLTEuMDEsMC43OTktMC43MjcsMS4yMjNjMC4yODMsMC40MjYsMS40MTgsMC40OTcsMS40MTgsMC40OTcmIzEwOyYjOTsmIzk7JiM5O3MtMS4wNjIsMC41MzEtMC44NjksMS4wNDZjMC4yMjEsMC41ODEsMS4wMzUsMC41ODEsMi45OTYsMC4xNTlDMTguNTQ1LDEwLjE5OCwyMSw5LjY2NSwyMi4wODEsOS4zMSYjMTA7JiM5OyYjOTsmIzk7YzEuMDgyLTAuMzU0LDEuMjI3LTEuMDk3LDEuMTctMS4zNjRjLTAuMDk2LTAuNDYzLTEuMTctMC41MzItMS4xNy0wLjUzMlMyMi43NzIsNi44MjgsMjIuNzM3LDYuNTF6IiBmaWxsPSIjRkVFODRDIi8+JiN4YTsJCTxwYXRoIGQ9Ik0yMC45MTYsNS40ODhjLTEuNzI3LDAuMjU4LTUuNjA3LDEuMTU2LTYuNTM3LDEuNjIxYy0wLjYwNSwwLjMwNC0wLjk1MiwwLjY0Ny0xLjA1OSwxLjA1MWwwLjE1NiwwLjgzOCYjMTA7JiM5OyYjOTsmIzk7YzAuMTYsMC4yNCwwLjQ0OCwwLjM4NiwwLjc0NSwwLjQ5Yy0wLjE2NSwwLjE5My0wLjMsMC40MDktMC4zLDAuNjYyYzAsMC4wOTYsMC4wMTcsMC4xOTQsMC4wNTUsMC4yOTcmIzEwOyYjOTsmIzk7JiM5O2MwLjM5MiwxLjAzMiwxLjc2NywwLjgyNCwzLjUyMywwLjQ0N2MxLjUzOC0wLjMzMiwzLjcwMS0wLjgxMSw0LjcyNS0xLjE0N2MxLjEyNC0wLjM2OCwxLjQ5Ni0xLjE1OSwxLjQ5Ni0xLjY5MiYjMTA7JiM5OyYjOTsmIzk7YzAtMC4wNzMtMC4wMDctMC4xNDItMC4wMjEtMC4yMDRjLTAuMDc4LTAuMzc5LTAuNC0wLjU5Ni0wLjc0My0wLjcyNGMwLjEzMy0wLjE5NCwwLjI0MS0wLjM5NiwwLjI0MS0wLjU5NiYjMTA7JiM5OyYjOTsmIzk7YzAtMC4wMjQtMC4wMDItMC4wNDgtMC4wMDQtMC4wNzFsLTAuMzk4LTAuNzQ0QzIyLjQxOSw1LjQyNSwyMS44MjIsNS4zNTMsMjAuOTE2LDUuNDg4eiBNMTQuODM2LDEwLjEyMiYjMTA7JiM5OyYjOTsmIzk7YzAuMDM1LTAuMDY3LDAuMzUyLTAuMzI0LDAuNjQ2LTAuNDcybDEuNTA0LTAuNzU5bC0xLjY4MS0wLjExYy0wLjQ1LTAuMDI5LTAuOTc4LTAuMTc1LTEuMDY1LTAuMjkzJiMxMDsmIzk7JiM5OyYjOTtjLTAuMDI2LTAuMTEzLDAuMDM2LTAuMjk5LDAuNTUxLTAuNTU3YzAuNzE3LTAuMzU4LDQuMzQ1LTEuMjQ3LDYuMjYxLTEuNTM0YzAuODk2LTAuMTMzLDEuMTQ0LDAuMDE1LDEuMTg0LDAuMDQ2JiMxMDsmIzk7JiM5OyYjOTtjMCwwLDAuMDE3LDAuMDQyLDAuMDMsMC4wNzdjLTAuMDUsMC4xMTItMC4yNjgsMC4zNjEtMC40ODEsMC41NDJsLTAuODYxLDAuNzMybDEuMTI4LDAuMDc3YzAuMzEzLDAuMDIxLDAuNjk1LDAuMTI2LDAuNzcsMC4yMTImIzEwOyYjOTsmIzk7JiM5O2MtMC4wMDIsMC4wNjUtMC4wOTksMC41MzMtMC44ODIsMC43ODljLTEuMDk3LDAuMzYxLTMuNzU4LDAuOTM0LTQuNjMyLDEuMTIyQzE2LjczLDEwLjExOSwxNC45NzgsMTAuNDk2LDE0LjgzNiwxMC4xMjJ6JiMxMDsmIzk7JiM5OyYjOTsgTTIzLjE5NCw2LjQ1OWwtMC4wMS0wLjA4OEwyMy4xOTQsNi40NTl6IE0yMy4xOTQsNi40NTlMMjMuMTk0LDYuNDU5TDIzLjE5NCw2LjQ1OUwyMy4xOTQsNi40NTl6Ii8+JiN4YTsJPC9nPiYjeGE7CTxnPiYjeGE7CQk8cmVjdCBoZWlnaHQ9IjcuMjc3IiB3aWR0aD0iMC45MTkiIHRyYW5zZm9ybT0ibWF0cml4KC0wLjI0NTUgLTAuOTY5NCAwLjk2OTQgLTAuMjQ1NSAxNS4wNDMzIDI4LjM5NjUpIiB5PSI0LjcwNiIgeD0iMTguMTEzIi8+JiN4YTsJPC9nPiYjeGE7CTxnPiYjeGE7CQk8cGF0aCBkPSJNMTcuNjUxLDM2Ljk2di0yLjAyN2MtMS4wMS0wLjEyNy0xLjgyNi0wLjM1Mi0yLjQ1Ny0wLjY3NGMtMC42MzEtMC4zMjQtMS4xNzYtMC44NDYtMS42MzUtMS41NyYjMTA7JiM5OyYjOTsmIzk7Yy0wLjQ1Ny0wLjcyMS0wLjcyNS0xLjYwNC0wLjc5OS0yLjY0NWwyLjAyNy0wLjM4N2MwLjE1NiwxLjA4LDAuNDMyLDEuODc1LDAuODI4LDIuMzgxYzAuNTY2LDAuNzE3LDEuMjQ0LDEuMTEzLDIuMDM1LDEuMTk1JiMxMDsmIzk7JiM5OyYjOTt2LTYuMzIyYy0wLjgyMi0wLjIxNS0xLjY2OC0wLjU2NC0yLjUzMS0xLjA0OWMtMC42NDEtMC4zNTctMS4xMzctMC44NTItMS40OC0xLjQ4NGMtMC4zNDgtMC42MzUtMC41MjEtMS4zNTUtMC41MjEtMi4xNjImIzEwOyYjOTsmIzk7JiM5O2MwLTEuNDMsMC41MDYtMi41OSwxLjUyLTMuNDc4YzAuNjc2LTAuNTk3LDEuNjgtMC45NjIsMy4wMTQtMS4wOTd2LTAuOTUzaDEuMTkxdjAuOTUzYzEuMTY0LDAuMTE0LDIuMDg4LDAuNDU4LDIuNzczLDEuMDM0JiMxMDsmIzk7JiM5OyYjOTtjMC44NzMsMC43MzQsMS40LDEuNzQxLDEuNTc4LDMuMDIxbC0yLjA1NywwLjMyOGMtMC4xMTktMC43OTktMC4zNjUtMS40MTItMC43NDQtMS44MzhjLTAuMzc3LTAuNDI4LTAuODk1LTAuNzA4LTEuNTUxLTAuODQ1JiMxMDsmIzk7JiM5OyYjOTt2NS43ODljMS4wMTQsMC4yNjYsMS42ODQsMC40NjksMi4wMSwwLjYxMWMwLjYyNywwLjI3NSwxLjEzNywwLjYxMSwxLjUzMSwxLjAwNnMwLjY5OSwwLjg2MywwLjkxLDEuNDA2JiMxMDsmIzk7JiM5OyYjOTtjMC4yMTMsMC41NDUsMC4zMTgsMS4xMzMsMC4zMTgsMS43NjZjMCwxLjM5NS0wLjQ0MywyLjU1Ny0xLjMyOCwzLjQ4NmMtMC44ODcsMC45MzItMi4wMzUsMS40MzItMy40NDEsMS40OTh2Mi4wNTdIMTcuNjUxeiYjMTA7JiM5OyYjOTsmIzk7IE0xNy42NTEsMTkuMzEyYy0wLjc3NywwLjExOS0xLjM4OSwwLjQzMy0xLjgzNCwwLjkzOGMtMC40NDcsMC41MDgtMC42NzIsMS4xMDktMC42NzIsMS44MDJjMCwwLjY4NiwwLjE5MSwxLjI2LDAuNTcsMS43MjMmIzEwOyYjOTsmIzk7JiM5O2MwLjM3OSwwLjQ2MSwxLjAyMywwLjgwOSwxLjkzNiwxLjA0NVYxOS4zMTJ6IE0xOC44NDIsMzMuMjM0YzAuNzgzLTAuMDk4LDEuNDMyLTAuNDM0LDEuOTQ1LTEuMDE2JiMxMDsmIzk7JiM5OyYjOTtjMC41MTItMC41OCwwLjc2OC0xLjI5NywwLjc2OC0yLjE1MmMwLTAuNzMtMC4xODItMS4zMTQtMC41NDktMS43NThjLTAuMzY1LTAuNDQxLTEuMDg2LTAuODAzLTIuMTY0LTEuMDg0VjMzLjIzNHoiLz4mI3hhOwk8L2c+JiN4YTs8L2c+JiN4YTs8L3N2Zz4=" vertex="1" parent="1">
          <mxGeometry x="676" y="227" width="36" height="41" as="geometry" />
        </mxCell>
        <mxCell id="Fgjv1uMBf7nxLm6j8Wb8-7" value="students &amp;&#xa;staff" style="shape=image;verticalLabelPosition=bottom;verticalAlign=top;imageAspect=0;aspect=fixed;image=data:image/svg+xml,PHN2ZyB4bWxucz0iaHR0cDovL3d3dy53My5vcmcvMjAwMC9zdmciIHhtbG5zOnhsaW5rPSImYW1wO25zX3hsaW5rOyIgeG1sOnNwYWNlPSJwcmVzZXJ2ZSIgb3ZlcmZsb3c9InZpc2libGUiIHZpZXdCb3g9IjAgMCAzNS41NDM5OTg3MTgyNjE3MiA0MS4wODgwMDEyNTEyMjA3IiBoZWlnaHQ9IjQxLjA4ODAwMTI1MTIyMDciIHdpZHRoPSIzNS41NDM5OTg3MTgyNjE3MiIgaWQ9IkxheWVyXzEiIHZlcnNpb249IjEuMSI+JiN4YTs8Zz4mI3hhOwk8Zz4mI3hhOwkJPHBhdGggZD0iTTE1Ljg3Nyw0LjA1NGMwLDAsMC43NDQtMy4zOTIsMS43MzgtMy42MDQmIzEwOyYjOTsmIzk7JiM5O2MwLjk5Mi0wLjIxMywxLjM0NiwzLjE4OSwxLjM0NiwzLjE4OXMxLjc3My0xLjg0MywyLjk3Ny0yLjE5N2MxLjIwNS0wLjM1NCwyLjE5OS0wLjA3LDEuMjc3LDAuOTkzJiMxMDsmIzk7JiM5OyYjOTtjLTAuOTIyLDEuMDYyLTIuMDE0LDQuNDYtMS45ODYsNi4wOTZjMC4wNzIsMy44OTgsMy43MzQsNS4xOSw1LjkzNCw2LjY0N2M2LjY0Myw0LjQwMiw3LjkyMiw4LjY0NCw3LjkyMiwxMy4zNjUmIzEwOyYjOTsmIzk7JiM5O2MwLDYuODgzLTYuNzIxLDEyLjA4Ni0xNy4yNTgsMTIuMDg2Yy0xMS43NjYsMC0xNy4zNjctNi4xNjItMTcuMzY3LTEyLjQ2M2MwLTUuNDU3LDIuOTgyLTkuNTI4LDcuMDk2LTExLjg2NyYjMTA7JiM5OyYjOTsmIzk7YzQuNDM2LTIuNTI1LDYuNjU4LTMuMzczLDguNS00Ljc5MWMxLjg0Mi0xLjQxNy0xLjkxNC01LjQ1OS0zLjQ3My02LjUyMWMtMS4yNDQtMC44NDktMS4yMDUtMC45OTMtMy4zMzItMS43NzImIzEwOyYjOTsmIzk7JiM5O2MwLDAsMS43NzctMS42MzIsMy42MTUtMS4wNjNjMi4xOTMsMC42NzgsNC4xMTEsMy4yNjEsNC4xMTEsMy4yNjEiIGZpbGw9IiNDMjkwNTQiLz4mI3hhOwkJPHBhdGggZD0iTTE1LjU5OSwzLjI4NWMtMC43MzEtMC42NDEtMS42MjctMS4yNzMtMi41OTctMS41NzNjLTIuMDY2LTAuNjM5LTMuOTgxLDEuMDktNC4wNjIsMS4xNjRsLTAuNTU2LDAuNTFsMC43MDgsMC4yNTkmIzEwOyYjOTsmIzk7JiM5O2MxLjY2NywwLjYxMSwxLjkzLDAuNzk5LDIuNjMyLDEuM2wwLjU5OSwwLjQyYzEuMjY5LDAuODY1LDMuNzI0LDMuNTA2LDMuNzY5LDUuMDUzYzAuMDA5LDAuMzIxLTAuMDkyLDAuNTUyLTAuMzE3LDAuNzI1JiMxMDsmIzk7JiM5OyYjOTtjLTEuMDYzLDAuODE5LTIuMjk5LDEuNDYzLTQuMDA5LDIuMzU1TDcuMzI4LDE1LjlDMi42NzEsMTguNTQ3LDAsMjMuMDE4LDAsMjguMTY2YzAsNi40MzIsNS41MTIsMTIuOTIyLDE3LjgyNywxMi45MjImIzEwOyYjOTsmIzk7JiM5O2MxMC40MzIsMCwxNy43MTctNS4xNTgsMTcuNzE3LTEyLjU0NWMwLTQuMzQzLTAuOTg0LTkuMDE0LTguMTI3LTEzLjc0OGwtMS4zMDctMC43OTJjLTIuMDQ3LTEuMTg4LTQuMzY3LTIuNTM1LTQuNDIyLTUuNDgxJiMxMDsmIzk7JiM5OyYjOTtjLTAuMDI1LTEuNTI5LDEuMDQzLTQuODI4LDEuODc0LTUuNzg2YzAuNjA1LTAuNjk4LDAuNTIyLTEuMTcsMC4zNDctMS40NDNjLTAuMzA3LTAuNDc5LTEuMDkyLTAuNTg3LTIuMS0wLjI5MiYjMTA7JiM5OyYjOTsmIzk7Yy0wLjg1NiwwLjI1Mi0xLjg2NiwxLjA5Mi0yLjUyMiwxLjY5NWMtMC4xNTctMC45MDUtMC40NjMtMi4xMS0xLjA0OC0yLjUzNUwxNy41MTksMEMxNi41NDYsMC4yMDgsMTUuOTIzLDIuMDM2LDE1LjU5OSwzLjI4NXomIzEwOyYjOTsmIzk7JiM5OyBNMTcuNzExLDAuODk4YzAuMjU4LDAuMTE4LDAuNjU2LDEuNDc0LDAuNzkzLDIuNzg4bDAuMTAzLDAuOTgybDAuNjg2LTAuNzExYzAuNDctMC40ODksMS44ODYtMS44MTMsMi43NzUtMi4wNzYmIzEwOyYjOTsmIzk7JiM5O2MwLjYxMi0wLjE4LDAuOTYyLTAuMTI0LDEuMDUzLTAuMDc3Yy0wLjAyOSwwLjAyMS0wLjA3NywwLjEyNi0wLjI1MiwwLjMyOWMtMC45NzksMS4xMjctMi4xLDQuNTI0LTIuMSw2LjMzNCYjMTA7JiM5OyYjOTsmIzk7YzAsMC4wMjQsMCwwLjA0NywwLjAwMSwwLjA3YzAuMDYzLDMuNDY1LDIuNzMzLDUuMDE1LDQuODc5LDYuMjZsMS4yNiwwLjc2M2M2LjQwNCw0LjI0NCw3LjcxNyw4LjI1OSw3LjcxNywxMi45ODImIzEwOyYjOTsmIzk7JiM5O2MwLDYuODQ2LTYuOTA4LDExLjYyNy0xNi43OTksMTEuNjI3Yy0xMS42OCwwLTE2LjkwOC02LjAyOS0xNi45MDgtMTIuMDA0YzAtNC44NzgsMi40MzgtOC45NTEsNi44NjMtMTEuNDY3bDQuNDA4LTIuMzg1JiMxMDsmIzk7JiM5OyYjOTtjMS43NTItMC45MTQsMy4wMTctMS41NzQsNC4xNDUtMi40NDJjMC40NDMtMC4zNDEsMC42NzYtMC44MjksMC42NzYtMS40MTVjMC0wLjAyMSwwLTAuMDQzLTAuMDAxLTAuMDY0JiMxMDsmIzk7JiM5OyYjOTtjLTAuMDYxLTIuMTA5LTMuMDA3LTQuOTkzLTQuMTY5LTUuNzg1bC0wLjU4My0wLjQwOWMtMC41OTgtMC40MjctMC45NzUtMC42NzctMi4wNS0xLjEwNmMwLjYxLTAuMzc2LDEuNTYyLTAuNzk5LDIuNTIxLTAuNTAyJiMxMDsmIzk7JiM5OyYjOTtjMi4wMjEsMC42MjUsMy44NiwzLjA3MSwzLjg3OCwzLjA5NmwwLjczNy0wLjU0OGMtMC4wMzQtMC4wNDYtMC40MDYtMC41MzItMC45ODItMS4xMjdDMTYuNzI4LDIuNDQsMTcuMzU0LDAuOTc1LDE3LjcxMSwwLjg5OHoiLz4mI3hhOwk8L2c+JiN4YTsJPGc+JiN4YTsJCTxwYXRoIGQ9Ik0yMi43MzcsNi41MWMtMC4wMzUtMC4zMTktMC4yMTMtMC43OTctMS43NTQtMC41NjcmIzEwOyYjOTsmIzk7JiM5O2MtMS44MzYsMC4yNzQtNS41NzIsMS4xNjQtNi4zOTgsMS41NzdjLTAuNzQ0LDAuMzczLTEuMDEsMC43OTktMC43MjcsMS4yMjNjMC4yODMsMC40MjYsMS40MTgsMC40OTcsMS40MTgsMC40OTcmIzEwOyYjOTsmIzk7JiM5O3MtMS4wNjIsMC41MzEtMC44NjksMS4wNDZjMC4yMjEsMC41ODEsMS4wMzUsMC41ODEsMi45OTYsMC4xNTlDMTguNTQ1LDEwLjE5OCwyMSw5LjY2NSwyMi4wODEsOS4zMSYjMTA7JiM5OyYjOTsmIzk7YzEuMDgyLTAuMzU0LDEuMjI3LTEuMDk3LDEuMTctMS4zNjRjLTAuMDk2LTAuNDYzLTEuMTctMC41MzItMS4xNy0wLjUzMlMyMi43NzIsNi44MjgsMjIuNzM3LDYuNTF6IiBmaWxsPSIjRkVFODRDIi8+JiN4YTsJCTxwYXRoIGQ9Ik0yMC45MTYsNS40ODhjLTEuNzI3LDAuMjU4LTUuNjA3LDEuMTU2LTYuNTM3LDEuNjIxYy0wLjYwNSwwLjMwNC0wLjk1MiwwLjY0Ny0xLjA1OSwxLjA1MWwwLjE1NiwwLjgzOCYjMTA7JiM5OyYjOTsmIzk7YzAuMTYsMC4yNCwwLjQ0OCwwLjM4NiwwLjc0NSwwLjQ5Yy0wLjE2NSwwLjE5My0wLjMsMC40MDktMC4zLDAuNjYyYzAsMC4wOTYsMC4wMTcsMC4xOTQsMC4wNTUsMC4yOTcmIzEwOyYjOTsmIzk7JiM5O2MwLjM5MiwxLjAzMiwxLjc2NywwLjgyNCwzLjUyMywwLjQ0N2MxLjUzOC0wLjMzMiwzLjcwMS0wLjgxMSw0LjcyNS0xLjE0N2MxLjEyNC0wLjM2OCwxLjQ5Ni0xLjE1OSwxLjQ5Ni0xLjY5MiYjMTA7JiM5OyYjOTsmIzk7YzAtMC4wNzMtMC4wMDctMC4xNDItMC4wMjEtMC4yMDRjLTAuMDc4LTAuMzc5LTAuNC0wLjU5Ni0wLjc0My0wLjcyNGMwLjEzMy0wLjE5NCwwLjI0MS0wLjM5NiwwLjI0MS0wLjU5NiYjMTA7JiM5OyYjOTsmIzk7YzAtMC4wMjQtMC4wMDItMC4wNDgtMC4wMDQtMC4wNzFsLTAuMzk4LTAuNzQ0QzIyLjQxOSw1LjQyNSwyMS44MjIsNS4zNTMsMjAuOTE2LDUuNDg4eiBNMTQuODM2LDEwLjEyMiYjMTA7JiM5OyYjOTsmIzk7YzAuMDM1LTAuMDY3LDAuMzUyLTAuMzI0LDAuNjQ2LTAuNDcybDEuNTA0LTAuNzU5bC0xLjY4MS0wLjExYy0wLjQ1LTAuMDI5LTAuOTc4LTAuMTc1LTEuMDY1LTAuMjkzJiMxMDsmIzk7JiM5OyYjOTtjLTAuMDI2LTAuMTEzLDAuMDM2LTAuMjk5LDAuNTUxLTAuNTU3YzAuNzE3LTAuMzU4LDQuMzQ1LTEuMjQ3LDYuMjYxLTEuNTM0YzAuODk2LTAuMTMzLDEuMTQ0LDAuMDE1LDEuMTg0LDAuMDQ2JiMxMDsmIzk7JiM5OyYjOTtjMCwwLDAuMDE3LDAuMDQyLDAuMDMsMC4wNzdjLTAuMDUsMC4xMTItMC4yNjgsMC4zNjEtMC40ODEsMC41NDJsLTAuODYxLDAuNzMybDEuMTI4LDAuMDc3YzAuMzEzLDAuMDIxLDAuNjk1LDAuMTI2LDAuNzcsMC4yMTImIzEwOyYjOTsmIzk7JiM5O2MtMC4wMDIsMC4wNjUtMC4wOTksMC41MzMtMC44ODIsMC43ODljLTEuMDk3LDAuMzYxLTMuNzU4LDAuOTM0LTQuNjMyLDEuMTIyQzE2LjczLDEwLjExOSwxNC45NzgsMTAuNDk2LDE0LjgzNiwxMC4xMjJ6JiMxMDsmIzk7JiM5OyYjOTsgTTIzLjE5NCw2LjQ1OWwtMC4wMS0wLjA4OEwyMy4xOTQsNi40NTl6IE0yMy4xOTQsNi40NTlMMjMuMTk0LDYuNDU5TDIzLjE5NCw2LjQ1OUwyMy4xOTQsNi40NTl6Ii8+JiN4YTsJPC9nPiYjeGE7CTxnPiYjeGE7CQk8cmVjdCBoZWlnaHQ9IjcuMjc3IiB3aWR0aD0iMC45MTkiIHRyYW5zZm9ybT0ibWF0cml4KC0wLjI0NTUgLTAuOTY5NCAwLjk2OTQgLTAuMjQ1NSAxNS4wNDMzIDI4LjM5NjUpIiB5PSI0LjcwNiIgeD0iMTguMTEzIi8+JiN4YTsJPC9nPiYjeGE7CTxnPiYjeGE7CQk8cGF0aCBkPSJNMTcuNjUxLDM2Ljk2di0yLjAyN2MtMS4wMS0wLjEyNy0xLjgyNi0wLjM1Mi0yLjQ1Ny0wLjY3NGMtMC42MzEtMC4zMjQtMS4xNzYtMC44NDYtMS42MzUtMS41NyYjMTA7JiM5OyYjOTsmIzk7Yy0wLjQ1Ny0wLjcyMS0wLjcyNS0xLjYwNC0wLjc5OS0yLjY0NWwyLjAyNy0wLjM4N2MwLjE1NiwxLjA4LDAuNDMyLDEuODc1LDAuODI4LDIuMzgxYzAuNTY2LDAuNzE3LDEuMjQ0LDEuMTEzLDIuMDM1LDEuMTk1JiMxMDsmIzk7JiM5OyYjOTt2LTYuMzIyYy0wLjgyMi0wLjIxNS0xLjY2OC0wLjU2NC0yLjUzMS0xLjA0OWMtMC42NDEtMC4zNTctMS4xMzctMC44NTItMS40OC0xLjQ4NGMtMC4zNDgtMC42MzUtMC41MjEtMS4zNTUtMC41MjEtMi4xNjImIzEwOyYjOTsmIzk7JiM5O2MwLTEuNDMsMC41MDYtMi41OSwxLjUyLTMuNDc4YzAuNjc2LTAuNTk3LDEuNjgtMC45NjIsMy4wMTQtMS4wOTd2LTAuOTUzaDEuMTkxdjAuOTUzYzEuMTY0LDAuMTE0LDIuMDg4LDAuNDU4LDIuNzczLDEuMDM0JiMxMDsmIzk7JiM5OyYjOTtjMC44NzMsMC43MzQsMS40LDEuNzQxLDEuNTc4LDMuMDIxbC0yLjA1NywwLjMyOGMtMC4xMTktMC43OTktMC4zNjUtMS40MTItMC43NDQtMS44MzhjLTAuMzc3LTAuNDI4LTAuODk1LTAuNzA4LTEuNTUxLTAuODQ1JiMxMDsmIzk7JiM5OyYjOTt2NS43ODljMS4wMTQsMC4yNjYsMS42ODQsMC40NjksMi4wMSwwLjYxMWMwLjYyNywwLjI3NSwxLjEzNywwLjYxMSwxLjUzMSwxLjAwNnMwLjY5OSwwLjg2MywwLjkxLDEuNDA2JiMxMDsmIzk7JiM5OyYjOTtjMC4yMTMsMC41NDUsMC4zMTgsMS4xMzMsMC4zMTgsMS43NjZjMCwxLjM5NS0wLjQ0MywyLjU1Ny0xLjMyOCwzLjQ4NmMtMC44ODcsMC45MzItMi4wMzUsMS40MzItMy40NDEsMS40OTh2Mi4wNTdIMTcuNjUxeiYjMTA7JiM5OyYjOTsmIzk7IE0xNy42NTEsMTkuMzEyYy0wLjc3NywwLjExOS0xLjM4OSwwLjQzMy0xLjgzNCwwLjkzOGMtMC40NDcsMC41MDgtMC42NzIsMS4xMDktMC42NzIsMS44MDJjMCwwLjY4NiwwLjE5MSwxLjI2LDAuNTcsMS43MjMmIzEwOyYjOTsmIzk7JiM5O2MwLjM3OSwwLjQ2MSwxLjAyMywwLjgwOSwxLjkzNiwxLjA0NVYxOS4zMTJ6IE0xOC44NDIsMzMuMjM0YzAuNzgzLTAuMDk4LDEuNDMyLTAuNDM0LDEuOTQ1LTEuMDE2JiMxMDsmIzk7JiM5OyYjOTtjMC41MTItMC41OCwwLjc2OC0xLjI5NywwLjc2OC0yLjE1MmMwLTAuNzMtMC4xODItMS4zMTQtMC41NDktMS43NThjLTAuMzY1LTAuNDQxLTEuMDg2LTAuODAzLTIuMTY0LTEuMDg0VjMzLjIzNHoiLz4mI3hhOwk8L2c+JiN4YTs8L2c+JiN4YTs8L3N2Zz4=" vertex="1" parent="1">
          <mxGeometry x="676" y="514" width="36" height="41" as="geometry" />
        </mxCell>
        <mxCell id="Fgjv1uMBf7nxLm6j8Wb8-8" value="user &amp;admin&#xa;accounts" style="shape=image;verticalLabelPosition=bottom;verticalAlign=top;imageAspect=0;aspect=fixed;image=data:image/svg+xml,PHN2ZyB4bWxucz0iaHR0cDovL3d3dy53My5vcmcvMjAwMC9zdmciIHhtbG5zOnhsaW5rPSImYW1wO25zX3hsaW5rOyIgeG1sOnNwYWNlPSJwcmVzZXJ2ZSIgb3ZlcmZsb3c9InZpc2libGUiIHZpZXdCb3g9IjAgMCAzNS41NDM5OTg3MTgyNjE3MiA0MS4wODgwMDEyNTEyMjA3IiBoZWlnaHQ9IjQxLjA4ODAwMTI1MTIyMDciIHdpZHRoPSIzNS41NDM5OTg3MTgyNjE3MiIgaWQ9IkxheWVyXzEiIHZlcnNpb249IjEuMSI+JiN4YTs8Zz4mI3hhOwk8Zz4mI3hhOwkJPHBhdGggZD0iTTE1Ljg3Nyw0LjA1NGMwLDAsMC43NDQtMy4zOTIsMS43MzgtMy42MDQmIzEwOyYjOTsmIzk7JiM5O2MwLjk5Mi0wLjIxMywxLjM0NiwzLjE4OSwxLjM0NiwzLjE4OXMxLjc3My0xLjg0MywyLjk3Ny0yLjE5N2MxLjIwNS0wLjM1NCwyLjE5OS0wLjA3LDEuMjc3LDAuOTkzJiMxMDsmIzk7JiM5OyYjOTtjLTAuOTIyLDEuMDYyLTIuMDE0LDQuNDYtMS45ODYsNi4wOTZjMC4wNzIsMy44OTgsMy43MzQsNS4xOSw1LjkzNCw2LjY0N2M2LjY0Myw0LjQwMiw3LjkyMiw4LjY0NCw3LjkyMiwxMy4zNjUmIzEwOyYjOTsmIzk7JiM5O2MwLDYuODgzLTYuNzIxLDEyLjA4Ni0xNy4yNTgsMTIuMDg2Yy0xMS43NjYsMC0xNy4zNjctNi4xNjItMTcuMzY3LTEyLjQ2M2MwLTUuNDU3LDIuOTgyLTkuNTI4LDcuMDk2LTExLjg2NyYjMTA7JiM5OyYjOTsmIzk7YzQuNDM2LTIuNTI1LDYuNjU4LTMuMzczLDguNS00Ljc5MWMxLjg0Mi0xLjQxNy0xLjkxNC01LjQ1OS0zLjQ3My02LjUyMWMtMS4yNDQtMC44NDktMS4yMDUtMC45OTMtMy4zMzItMS43NzImIzEwOyYjOTsmIzk7JiM5O2MwLDAsMS43NzctMS42MzIsMy42MTUtMS4wNjNjMi4xOTMsMC42NzgsNC4xMTEsMy4yNjEsNC4xMTEsMy4yNjEiIGZpbGw9IiNDMjkwNTQiLz4mI3hhOwkJPHBhdGggZD0iTTE1LjU5OSwzLjI4NWMtMC43MzEtMC42NDEtMS42MjctMS4yNzMtMi41OTctMS41NzNjLTIuMDY2LTAuNjM5LTMuOTgxLDEuMDktNC4wNjIsMS4xNjRsLTAuNTU2LDAuNTFsMC43MDgsMC4yNTkmIzEwOyYjOTsmIzk7JiM5O2MxLjY2NywwLjYxMSwxLjkzLDAuNzk5LDIuNjMyLDEuM2wwLjU5OSwwLjQyYzEuMjY5LDAuODY1LDMuNzI0LDMuNTA2LDMuNzY5LDUuMDUzYzAuMDA5LDAuMzIxLTAuMDkyLDAuNTUyLTAuMzE3LDAuNzI1JiMxMDsmIzk7JiM5OyYjOTtjLTEuMDYzLDAuODE5LTIuMjk5LDEuNDYzLTQuMDA5LDIuMzU1TDcuMzI4LDE1LjlDMi42NzEsMTguNTQ3LDAsMjMuMDE4LDAsMjguMTY2YzAsNi40MzIsNS41MTIsMTIuOTIyLDE3LjgyNywxMi45MjImIzEwOyYjOTsmIzk7JiM5O2MxMC40MzIsMCwxNy43MTctNS4xNTgsMTcuNzE3LTEyLjU0NWMwLTQuMzQzLTAuOTg0LTkuMDE0LTguMTI3LTEzLjc0OGwtMS4zMDctMC43OTJjLTIuMDQ3LTEuMTg4LTQuMzY3LTIuNTM1LTQuNDIyLTUuNDgxJiMxMDsmIzk7JiM5OyYjOTtjLTAuMDI1LTEuNTI5LDEuMDQzLTQuODI4LDEuODc0LTUuNzg2YzAuNjA1LTAuNjk4LDAuNTIyLTEuMTcsMC4zNDctMS40NDNjLTAuMzA3LTAuNDc5LTEuMDkyLTAuNTg3LTIuMS0wLjI5MiYjMTA7JiM5OyYjOTsmIzk7Yy0wLjg1NiwwLjI1Mi0xLjg2NiwxLjA5Mi0yLjUyMiwxLjY5NWMtMC4xNTctMC45MDUtMC40NjMtMi4xMS0xLjA0OC0yLjUzNUwxNy41MTksMEMxNi41NDYsMC4yMDgsMTUuOTIzLDIuMDM2LDE1LjU5OSwzLjI4NXomIzEwOyYjOTsmIzk7JiM5OyBNMTcuNzExLDAuODk4YzAuMjU4LDAuMTE4LDAuNjU2LDEuNDc0LDAuNzkzLDIuNzg4bDAuMTAzLDAuOTgybDAuNjg2LTAuNzExYzAuNDctMC40ODksMS44ODYtMS44MTMsMi43NzUtMi4wNzYmIzEwOyYjOTsmIzk7JiM5O2MwLjYxMi0wLjE4LDAuOTYyLTAuMTI0LDEuMDUzLTAuMDc3Yy0wLjAyOSwwLjAyMS0wLjA3NywwLjEyNi0wLjI1MiwwLjMyOWMtMC45NzksMS4xMjctMi4xLDQuNTI0LTIuMSw2LjMzNCYjMTA7JiM5OyYjOTsmIzk7YzAsMC4wMjQsMCwwLjA0NywwLjAwMSwwLjA3YzAuMDYzLDMuNDY1LDIuNzMzLDUuMDE1LDQuODc5LDYuMjZsMS4yNiwwLjc2M2M2LjQwNCw0LjI0NCw3LjcxNyw4LjI1OSw3LjcxNywxMi45ODImIzEwOyYjOTsmIzk7JiM5O2MwLDYuODQ2LTYuOTA4LDExLjYyNy0xNi43OTksMTEuNjI3Yy0xMS42OCwwLTE2LjkwOC02LjAyOS0xNi45MDgtMTIuMDA0YzAtNC44NzgsMi40MzgtOC45NTEsNi44NjMtMTEuNDY3bDQuNDA4LTIuMzg1JiMxMDsmIzk7JiM5OyYjOTtjMS43NTItMC45MTQsMy4wMTctMS41NzQsNC4xNDUtMi40NDJjMC40NDMtMC4zNDEsMC42NzYtMC44MjksMC42NzYtMS40MTVjMC0wLjAyMSwwLTAuMDQzLTAuMDAxLTAuMDY0JiMxMDsmIzk7JiM5OyYjOTtjLTAuMDYxLTIuMTA5LTMuMDA3LTQuOTkzLTQuMTY5LTUuNzg1bC0wLjU4My0wLjQwOWMtMC41OTgtMC40MjctMC45NzUtMC42NzctMi4wNS0xLjEwNmMwLjYxLTAuMzc2LDEuNTYyLTAuNzk5LDIuNTIxLTAuNTAyJiMxMDsmIzk7JiM5OyYjOTtjMi4wMjEsMC42MjUsMy44NiwzLjA3MSwzLjg3OCwzLjA5NmwwLjczNy0wLjU0OGMtMC4wMzQtMC4wNDYtMC40MDYtMC41MzItMC45ODItMS4xMjdDMTYuNzI4LDIuNDQsMTcuMzU0LDAuOTc1LDE3LjcxMSwwLjg5OHoiLz4mI3hhOwk8L2c+JiN4YTsJPGc+JiN4YTsJCTxwYXRoIGQ9Ik0yMi43MzcsNi41MWMtMC4wMzUtMC4zMTktMC4yMTMtMC43OTctMS43NTQtMC41NjcmIzEwOyYjOTsmIzk7JiM5O2MtMS44MzYsMC4yNzQtNS41NzIsMS4xNjQtNi4zOTgsMS41NzdjLTAuNzQ0LDAuMzczLTEuMDEsMC43OTktMC43MjcsMS4yMjNjMC4yODMsMC40MjYsMS40MTgsMC40OTcsMS40MTgsMC40OTcmIzEwOyYjOTsmIzk7JiM5O3MtMS4wNjIsMC41MzEtMC44NjksMS4wNDZjMC4yMjEsMC41ODEsMS4wMzUsMC41ODEsMi45OTYsMC4xNTlDMTguNTQ1LDEwLjE5OCwyMSw5LjY2NSwyMi4wODEsOS4zMSYjMTA7JiM5OyYjOTsmIzk7YzEuMDgyLTAuMzU0LDEuMjI3LTEuMDk3LDEuMTctMS4zNjRjLTAuMDk2LTAuNDYzLTEuMTctMC41MzItMS4xNy0wLjUzMlMyMi43NzIsNi44MjgsMjIuNzM3LDYuNTF6IiBmaWxsPSIjRkVFODRDIi8+JiN4YTsJCTxwYXRoIGQ9Ik0yMC45MTYsNS40ODhjLTEuNzI3LDAuMjU4LTUuNjA3LDEuMTU2LTYuNTM3LDEuNjIxYy0wLjYwNSwwLjMwNC0wLjk1MiwwLjY0Ny0xLjA1OSwxLjA1MWwwLjE1NiwwLjgzOCYjMTA7JiM5OyYjOTsmIzk7YzAuMTYsMC4yNCwwLjQ0OCwwLjM4NiwwLjc0NSwwLjQ5Yy0wLjE2NSwwLjE5My0wLjMsMC40MDktMC4zLDAuNjYyYzAsMC4wOTYsMC4wMTcsMC4xOTQsMC4wNTUsMC4yOTcmIzEwOyYjOTsmIzk7JiM5O2MwLjM5MiwxLjAzMiwxLjc2NywwLjgyNCwzLjUyMywwLjQ0N2MxLjUzOC0wLjMzMiwzLjcwMS0wLjgxMSw0LjcyNS0xLjE0N2MxLjEyNC0wLjM2OCwxLjQ5Ni0xLjE1OSwxLjQ5Ni0xLjY5MiYjMTA7JiM5OyYjOTsmIzk7YzAtMC4wNzMtMC4wMDctMC4xNDItMC4wMjEtMC4yMDRjLTAuMDc4LTAuMzc5LTAuNC0wLjU5Ni0wLjc0My0wLjcyNGMwLjEzMy0wLjE5NCwwLjI0MS0wLjM5NiwwLjI0MS0wLjU5NiYjMTA7JiM5OyYjOTsmIzk7YzAtMC4wMjQtMC4wMDItMC4wNDgtMC4wMDQtMC4wNzFsLTAuMzk4LTAuNzQ0QzIyLjQxOSw1LjQyNSwyMS44MjIsNS4zNTMsMjAuOTE2LDUuNDg4eiBNMTQuODM2LDEwLjEyMiYjMTA7JiM5OyYjOTsmIzk7YzAuMDM1LTAuMDY3LDAuMzUyLTAuMzI0LDAuNjQ2LTAuNDcybDEuNTA0LTAuNzU5bC0xLjY4MS0wLjExYy0wLjQ1LTAuMDI5LTAuOTc4LTAuMTc1LTEuMDY1LTAuMjkzJiMxMDsmIzk7JiM5OyYjOTtjLTAuMDI2LTAuMTEzLDAuMDM2LTAuMjk5LDAuNTUxLTAuNTU3YzAuNzE3LTAuMzU4LDQuMzQ1LTEuMjQ3LDYuMjYxLTEuNTM0YzAuODk2LTAuMTMzLDEuMTQ0LDAuMDE1LDEuMTg0LDAuMDQ2JiMxMDsmIzk7JiM5OyYjOTtjMCwwLDAuMDE3LDAuMDQyLDAuMDMsMC4wNzdjLTAuMDUsMC4xMTItMC4yNjgsMC4zNjEtMC40ODEsMC41NDJsLTAuODYxLDAuNzMybDEuMTI4LDAuMDc3YzAuMzEzLDAuMDIxLDAuNjk1LDAuMTI2LDAuNzcsMC4yMTImIzEwOyYjOTsmIzk7JiM5O2MtMC4wMDIsMC4wNjUtMC4wOTksMC41MzMtMC44ODIsMC43ODljLTEuMDk3LDAuMzYxLTMuNzU4LDAuOTM0LTQuNjMyLDEuMTIyQzE2LjczLDEwLjExOSwxNC45NzgsMTAuNDk2LDE0LjgzNiwxMC4xMjJ6JiMxMDsmIzk7JiM5OyYjOTsgTTIzLjE5NCw2LjQ1OWwtMC4wMS0wLjA4OEwyMy4xOTQsNi40NTl6IE0yMy4xOTQsNi40NTlMMjMuMTk0LDYuNDU5TDIzLjE5NCw2LjQ1OUwyMy4xOTQsNi40NTl6Ii8+JiN4YTsJPC9nPiYjeGE7CTxnPiYjeGE7CQk8cmVjdCBoZWlnaHQ9IjcuMjc3IiB3aWR0aD0iMC45MTkiIHRyYW5zZm9ybT0ibWF0cml4KC0wLjI0NTUgLTAuOTY5NCAwLjk2OTQgLTAuMjQ1NSAxNS4wNDMzIDI4LjM5NjUpIiB5PSI0LjcwNiIgeD0iMTguMTEzIi8+JiN4YTsJPC9nPiYjeGE7CTxnPiYjeGE7CQk8cGF0aCBkPSJNMTcuNjUxLDM2Ljk2di0yLjAyN2MtMS4wMS0wLjEyNy0xLjgyNi0wLjM1Mi0yLjQ1Ny0wLjY3NGMtMC42MzEtMC4zMjQtMS4xNzYtMC44NDYtMS42MzUtMS41NyYjMTA7JiM5OyYjOTsmIzk7Yy0wLjQ1Ny0wLjcyMS0wLjcyNS0xLjYwNC0wLjc5OS0yLjY0NWwyLjAyNy0wLjM4N2MwLjE1NiwxLjA4LDAuNDMyLDEuODc1LDAuODI4LDIuMzgxYzAuNTY2LDAuNzE3LDEuMjQ0LDEuMTEzLDIuMDM1LDEuMTk1JiMxMDsmIzk7JiM5OyYjOTt2LTYuMzIyYy0wLjgyMi0wLjIxNS0xLjY2OC0wLjU2NC0yLjUzMS0xLjA0OWMtMC42NDEtMC4zNTctMS4xMzctMC44NTItMS40OC0xLjQ4NGMtMC4zNDgtMC42MzUtMC41MjEtMS4zNTUtMC41MjEtMi4xNjImIzEwOyYjOTsmIzk7JiM5O2MwLTEuNDMsMC41MDYtMi41OSwxLjUyLTMuNDc4YzAuNjc2LTAuNTk3LDEuNjgtMC45NjIsMy4wMTQtMS4wOTd2LTAuOTUzaDEuMTkxdjAuOTUzYzEuMTY0LDAuMTE0LDIuMDg4LDAuNDU4LDIuNzczLDEuMDM0JiMxMDsmIzk7JiM5OyYjOTtjMC44NzMsMC43MzQsMS40LDEuNzQxLDEuNTc4LDMuMDIxbC0yLjA1NywwLjMyOGMtMC4xMTktMC43OTktMC4zNjUtMS40MTItMC43NDQtMS44MzhjLTAuMzc3LTAuNDI4LTAuODk1LTAuNzA4LTEuNTUxLTAuODQ1JiMxMDsmIzk7JiM5OyYjOTt2NS43ODljMS4wMTQsMC4yNjYsMS42ODQsMC40NjksMi4wMSwwLjYxMWMwLjYyNywwLjI3NSwxLjEzNywwLjYxMSwxLjUzMSwxLjAwNnMwLjY5OSwwLjg2MywwLjkxLDEuNDA2JiMxMDsmIzk7JiM5OyYjOTtjMC4yMTMsMC41NDUsMC4zMTgsMS4xMzMsMC4zMTgsMS43NjZjMCwxLjM5NS0wLjQ0MywyLjU1Ny0xLjMyOCwzLjQ4NmMtMC44ODcsMC45MzItMi4wMzUsMS40MzItMy40NDEsMS40OTh2Mi4wNTdIMTcuNjUxeiYjMTA7JiM5OyYjOTsmIzk7IE0xNy42NTEsMTkuMzEyYy0wLjc3NywwLjExOS0xLjM4OSwwLjQzMy0xLjgzNCwwLjkzOGMtMC40NDcsMC41MDgtMC42NzIsMS4xMDktMC42NzIsMS44MDJjMCwwLjY4NiwwLjE5MSwxLjI2LDAuNTcsMS43MjMmIzEwOyYjOTsmIzk7JiM5O2MwLjM3OSwwLjQ2MSwxLjAyMywwLjgwOSwxLjkzNiwxLjA0NVYxOS4zMTJ6IE0xOC44NDIsMzMuMjM0YzAuNzgzLTAuMDk4LDEuNDMyLTAuNDM0LDEuOTQ1LTEuMDE2JiMxMDsmIzk7JiM5OyYjOTtjMC41MTItMC41OCwwLjc2OC0xLjI5NywwLjc2OC0yLjE1MmMwLTAuNzMtMC4xODItMS4zMTQtMC41NDktMS43NThjLTAuMzY1LTAuNDQxLTEuMDg2LTAuODAzLTIuMTY0LTEuMDg0VjMzLjIzNHoiLz4mI3hhOwk8L2c+JiN4YTs8L2c+JiN4YTs8L3N2Zz4=" vertex="1" parent="1">
          <mxGeometry x="676" y="374" width="36" height="41" as="geometry" />
        </mxCell>
        <mxCell id="Fgjv1uMBf7nxLm6j8Wb8-9" value="" style="group" vertex="1" connectable="0" parent="1">
          <mxGeometry x="420" y="200" width="154.07" height="80" as="geometry" />
        </mxCell>
        <mxCell id="Fgjv1uMBf7nxLm6j8Wb8-10" value="CA1, CA2, CA3, CA4: compromise&lt;div&gt;web server availability&lt;/div&gt;&lt;div&gt;[unacceptable]&lt;/div&gt;" style="rounded=0;whiteSpace=wrap;html=1;" vertex="1" parent="Fgjv1uMBf7nxLm6j8Wb8-9">
          <mxGeometry y="17.77777777777778" width="133.14691358024695" height="62.22222222222223" as="geometry" />
        </mxCell>
        <mxCell id="Fgjv1uMBf7nxLm6j8Wb8-11" value="" style="shape=image;verticalLabelPosition=bottom;verticalAlign=top;imageAspect=0;aspect=fixed;image=data:image/svg+xml,PHN2ZyB4bWxucz0iaHR0cDovL3d3dy53My5vcmcvMjAwMC9zdmciIHhtbG5zOnhsaW5rPSImYW1wO25zX3hsaW5rOyIgeG1sOnNwYWNlPSJwcmVzZXJ2ZSIgb3ZlcmZsb3c9InZpc2libGUiIHZpZXdCb3g9IjAgMCA0NC42MTE5OTk1MTE3MTg3NSAzNi4wODMwMDAxODMxMDU0NyIgaGVpZ2h0PSIzNi4wODMwMDAxODMxMDU0NyIgd2lkdGg9IjQ0LjYxMTk5OTUxMTcxODc1IiBpZD0iTGF5ZXJfMSIgdmVyc2lvbj0iMS4xIj4mI3hhOzxnPiYjeGE7CTxnPiYjeGE7CQk8cG9seWdvbiBwb2ludHM9IjAuNzI1LDM1LjY2IDQzLjg4MywzNS42NzcgMjIuMTg2LDAuNzciIGZpbGw9IiNDMzAwMDkiLz4mI3hhOwkJPHBhdGggZD0iTTIxLjg0LDAuNTU4TDAsMzYuMDY0bDQ0LjYxMiwwLjAxOUwyMi4xODQsMEwyMS44NCwwLjU1OHogTTIyLjE4OCwxLjU0YzAuNjU4LDEuMDU4LDIwLjIzNywzMi41NTcsMjAuOTY3LDMzLjczMiYjMTA7JiM5OyYjOTsmIzk7Yy0xLjM4Ni0wLjAwMS00MC4zMy0wLjAxNy00MS43MDYtMC4wMTdDMi4xNjksMzQuMDgzLDIxLjUzNSwyLjYwMSwyMi4xODgsMS41NHoiLz4mI3hhOwk8L2c+JiN4YTsJPHBhdGggZD0iTTIyLjIwMSw3LjIzOWMyLjIzNywzLjU5OSwxMy4wOTQsMjEuMDY3LDE1LjU2MSwyNS4wMzRjLTQuNjkzLTAuMDAyLTI2LjI4OC0wLjAxLTMwLjk1Mi0wLjAxMiYjMTA7JiM5OyYjOTtDOS4yNDIsMjguMzA2LDE5Ljk4MSwxMC44NDcsMjIuMjAxLDcuMjM5eiIgZmlsbD0iI0ZGRkZGRiIvPiYjeGE7CTxnPiYjeGE7CQk8cmVjdCBoZWlnaHQ9IjExLjA5NiIgd2lkdGg9IjMuNDAyIiB5PSIxMy40MzMiIHg9IjIwLjQ1MiIvPiYjeGE7CTwvZz4mI3hhOwk8cGF0aCBkPSJNMjQuMTQ1LDI4LjU4MmMwLDEuMTE1LTAuOTA2LDIuMDIxLTIuMDI5LDIuMDIxYy0xLjExNywwLTIuMDI0LTAuOTA2LTIuMDI0LTIuMDIxYzAtMS4xMTcsMC45MDctMi4wMjQsMi4wMjQtMi4wMjQmIzEwOyYjOTsmIzk7QzIzLjIzOSwyNi41NTcsMjQuMTQ1LDI3LjQ2NCwyNC4xNDUsMjguNTgyeiIvPiYjeGE7PC9nPiYjeGE7PC9zdmc+" vertex="1" parent="Fgjv1uMBf7nxLm6j8Wb8-9">
          <mxGeometry x="52.75999999999999" y="-5.329999999999984" width="27.63157894736842" height="22.105263157894736" as="geometry" />
        </mxCell>
        <mxCell id="Fgjv1uMBf7nxLm6j8Wb8-12" value="" style="endArrow=classic;html=1;rounded=0;entryX=0;entryY=0.5;entryDx=0;entryDy=0;exitX=1;exitY=0.75;exitDx=0;exitDy=0;" edge="1" parent="1" source="Fgjv1uMBf7nxLm6j8Wb8-3" target="Fgjv1uMBf7nxLm6j8Wb8-16">
          <mxGeometry width="50" height="50" relative="1" as="geometry">
            <mxPoint x="256" y="490" as="sourcePoint" />
            <mxPoint x="156.0000000000009" y="673.4200000000001" as="targetPoint" />
            <Array as="points" />
          </mxGeometry>
        </mxCell>
        <mxCell id="Fgjv1uMBf7nxLm6j8Wb8-13" value="" style="group" vertex="1" connectable="0" parent="1">
          <mxGeometry x="447.25" y="629.5" width="123.75" height="55" as="geometry" />
        </mxCell>
        <mxCell id="Fgjv1uMBf7nxLm6j8Wb8-14" value="server crash" style="rounded=0;whiteSpace=wrap;html=1;" vertex="1" parent="Fgjv1uMBf7nxLm6j8Wb8-13">
          <mxGeometry y="9.521428571428572" width="100" height="40.47857142857143" as="geometry" />
        </mxCell>
        <mxCell id="Fgjv1uMBf7nxLm6j8Wb8-15" value="" style="group" vertex="1" connectable="0" parent="Fgjv1uMBf7nxLm6j8Wb8-13">
          <mxGeometry y="-5" width="123.75" height="60" as="geometry" />
        </mxCell>
        <mxCell id="Fgjv1uMBf7nxLm6j8Wb8-16" value="CC4: Identity Theft (PII)&lt;div&gt;[&lt;span style=&quot;background-color: transparent; color: light-dark(rgb(0, 0, 0), rgb(255, 255, 255));&quot;&gt;unacceptable&lt;/span&gt;&lt;span style=&quot;background-color: transparent; color: light-dark(rgb(0, 0, 0), rgb(255, 255, 255));&quot;&gt;]&lt;/span&gt;&lt;/div&gt;" style="rounded=0;whiteSpace=wrap;html=1;" vertex="1" parent="Fgjv1uMBf7nxLm6j8Wb8-15">
          <mxGeometry y="13.333333333333332" width="106.94444444444446" height="46.666666666666664" as="geometry" />
        </mxCell>
        <mxCell id="Fgjv1uMBf7nxLm6j8Wb8-17" value="academic&#xa;information" style="shape=image;verticalLabelPosition=bottom;verticalAlign=top;imageAspect=0;aspect=fixed;image=data:image/svg+xml,PHN2ZyB4bWxucz0iaHR0cDovL3d3dy53My5vcmcvMjAwMC9zdmciIHhtbG5zOnhsaW5rPSImYW1wO25zX3hsaW5rOyIgeG1sOnNwYWNlPSJwcmVzZXJ2ZSIgb3ZlcmZsb3c9InZpc2libGUiIHZpZXdCb3g9IjAgMCAzNS41NDM5OTg3MTgyNjE3MiA0MS4wODgwMDEyNTEyMjA3IiBoZWlnaHQ9IjQxLjA4ODAwMTI1MTIyMDciIHdpZHRoPSIzNS41NDM5OTg3MTgyNjE3MiIgaWQ9IkxheWVyXzEiIHZlcnNpb249IjEuMSI+JiN4YTs8Zz4mI3hhOwk8Zz4mI3hhOwkJPHBhdGggZD0iTTE1Ljg3Nyw0LjA1NGMwLDAsMC43NDQtMy4zOTIsMS43MzgtMy42MDQmIzEwOyYjOTsmIzk7JiM5O2MwLjk5Mi0wLjIxMywxLjM0NiwzLjE4OSwxLjM0NiwzLjE4OXMxLjc3My0xLjg0MywyLjk3Ny0yLjE5N2MxLjIwNS0wLjM1NCwyLjE5OS0wLjA3LDEuMjc3LDAuOTkzJiMxMDsmIzk7JiM5OyYjOTtjLTAuOTIyLDEuMDYyLTIuMDE0LDQuNDYtMS45ODYsNi4wOTZjMC4wNzIsMy44OTgsMy43MzQsNS4xOSw1LjkzNCw2LjY0N2M2LjY0Myw0LjQwMiw3LjkyMiw4LjY0NCw3LjkyMiwxMy4zNjUmIzEwOyYjOTsmIzk7JiM5O2MwLDYuODgzLTYuNzIxLDEyLjA4Ni0xNy4yNTgsMTIuMDg2Yy0xMS43NjYsMC0xNy4zNjctNi4xNjItMTcuMzY3LTEyLjQ2M2MwLTUuNDU3LDIuOTgyLTkuNTI4LDcuMDk2LTExLjg2NyYjMTA7JiM5OyYjOTsmIzk7YzQuNDM2LTIuNTI1LDYuNjU4LTMuMzczLDguNS00Ljc5MWMxLjg0Mi0xLjQxNy0xLjkxNC01LjQ1OS0zLjQ3My02LjUyMWMtMS4yNDQtMC44NDktMS4yMDUtMC45OTMtMy4zMzItMS43NzImIzEwOyYjOTsmIzk7JiM5O2MwLDAsMS43NzctMS42MzIsMy42MTUtMS4wNjNjMi4xOTMsMC42NzgsNC4xMTEsMy4yNjEsNC4xMTEsMy4yNjEiIGZpbGw9IiNDMjkwNTQiLz4mI3hhOwkJPHBhdGggZD0iTTE1LjU5OSwzLjI4NWMtMC43MzEtMC42NDEtMS42MjctMS4yNzMtMi41OTctMS41NzNjLTIuMDY2LTAuNjM5LTMuOTgxLDEuMDktNC4wNjIsMS4xNjRsLTAuNTU2LDAuNTFsMC43MDgsMC4yNTkmIzEwOyYjOTsmIzk7JiM5O2MxLjY2NywwLjYxMSwxLjkzLDAuNzk5LDIuNjMyLDEuM2wwLjU5OSwwLjQyYzEuMjY5LDAuODY1LDMuNzI0LDMuNTA2LDMuNzY5LDUuMDUzYzAuMDA5LDAuMzIxLTAuMDkyLDAuNTUyLTAuMzE3LDAuNzI1JiMxMDsmIzk7JiM5OyYjOTtjLTEuMDYzLDAuODE5LTIuMjk5LDEuNDYzLTQuMDA5LDIuMzU1TDcuMzI4LDE1LjlDMi42NzEsMTguNTQ3LDAsMjMuMDE4LDAsMjguMTY2YzAsNi40MzIsNS41MTIsMTIuOTIyLDE3LjgyNywxMi45MjImIzEwOyYjOTsmIzk7JiM5O2MxMC40MzIsMCwxNy43MTctNS4xNTgsMTcuNzE3LTEyLjU0NWMwLTQuMzQzLTAuOTg0LTkuMDE0LTguMTI3LTEzLjc0OGwtMS4zMDctMC43OTJjLTIuMDQ3LTEuMTg4LTQuMzY3LTIuNTM1LTQuNDIyLTUuNDgxJiMxMDsmIzk7JiM5OyYjOTtjLTAuMDI1LTEuNTI5LDEuMDQzLTQuODI4LDEuODc0LTUuNzg2YzAuNjA1LTAuNjk4LDAuNTIyLTEuMTcsMC4zNDctMS40NDNjLTAuMzA3LTAuNDc5LTEuMDkyLTAuNTg3LTIuMS0wLjI5MiYjMTA7JiM5OyYjOTsmIzk7Yy0wLjg1NiwwLjI1Mi0xLjg2NiwxLjA5Mi0yLjUyMiwxLjY5NWMtMC4xNTctMC45MDUtMC40NjMtMi4xMS0xLjA0OC0yLjUzNUwxNy41MTksMEMxNi41NDYsMC4yMDgsMTUuOTIzLDIuMDM2LDE1LjU5OSwzLjI4NXomIzEwOyYjOTsmIzk7JiM5OyBNMTcuNzExLDAuODk4YzAuMjU4LDAuMTE4LDAuNjU2LDEuNDc0LDAuNzkzLDIuNzg4bDAuMTAzLDAuOTgybDAuNjg2LTAuNzExYzAuNDctMC40ODksMS44ODYtMS44MTMsMi43NzUtMi4wNzYmIzEwOyYjOTsmIzk7JiM5O2MwLjYxMi0wLjE4LDAuOTYyLTAuMTI0LDEuMDUzLTAuMDc3Yy0wLjAyOSwwLjAyMS0wLjA3NywwLjEyNi0wLjI1MiwwLjMyOWMtMC45NzksMS4xMjctMi4xLDQuNTI0LTIuMSw2LjMzNCYjMTA7JiM5OyYjOTsmIzk7YzAsMC4wMjQsMCwwLjA0NywwLjAwMSwwLjA3YzAuMDYzLDMuNDY1LDIuNzMzLDUuMDE1LDQuODc5LDYuMjZsMS4yNiwwLjc2M2M2LjQwNCw0LjI0NCw3LjcxNyw4LjI1OSw3LjcxNywxMi45ODImIzEwOyYjOTsmIzk7JiM5O2MwLDYuODQ2LTYuOTA4LDExLjYyNy0xNi43OTksMTEuNjI3Yy0xMS42OCwwLTE2LjkwOC02LjAyOS0xNi45MDgtMTIuMDA0YzAtNC44NzgsMi40MzgtOC45NTEsNi44NjMtMTEuNDY3bDQuNDA4LTIuMzg1JiMxMDsmIzk7JiM5OyYjOTtjMS43NTItMC45MTQsMy4wMTctMS41NzQsNC4xNDUtMi40NDJjMC40NDMtMC4zNDEsMC42NzYtMC44MjksMC42NzYtMS40MTVjMC0wLjAyMSwwLTAuMDQzLTAuMDAxLTAuMDY0JiMxMDsmIzk7JiM5OyYjOTtjLTAuMDYxLTIuMTA5LTMuMDA3LTQuOTkzLTQuMTY5LTUuNzg1bC0wLjU4My0wLjQwOWMtMC41OTgtMC40MjctMC45NzUtMC42NzctMi4wNS0xLjEwNmMwLjYxLTAuMzc2LDEuNTYyLTAuNzk5LDIuNTIxLTAuNTAyJiMxMDsmIzk7JiM5OyYjOTtjMi4wMjEsMC42MjUsMy44NiwzLjA3MSwzLjg3OCwzLjA5NmwwLjczNy0wLjU0OGMtMC4wMzQtMC4wNDYtMC40MDYtMC41MzItMC45ODItMS4xMjdDMTYuNzI4LDIuNDQsMTcuMzU0LDAuOTc1LDE3LjcxMSwwLjg5OHoiLz4mI3hhOwk8L2c+JiN4YTsJPGc+JiN4YTsJCTxwYXRoIGQ9Ik0yMi43MzcsNi41MWMtMC4wMzUtMC4zMTktMC4yMTMtMC43OTctMS43NTQtMC41NjcmIzEwOyYjOTsmIzk7JiM5O2MtMS44MzYsMC4yNzQtNS41NzIsMS4xNjQtNi4zOTgsMS41NzdjLTAuNzQ0LDAuMzczLTEuMDEsMC43OTktMC43MjcsMS4yMjNjMC4yODMsMC40MjYsMS40MTgsMC40OTcsMS40MTgsMC40OTcmIzEwOyYjOTsmIzk7JiM5O3MtMS4wNjIsMC41MzEtMC44NjksMS4wNDZjMC4yMjEsMC41ODEsMS4wMzUsMC41ODEsMi45OTYsMC4xNTlDMTguNTQ1LDEwLjE5OCwyMSw5LjY2NSwyMi4wODEsOS4zMSYjMTA7JiM5OyYjOTsmIzk7YzEuMDgyLTAuMzU0LDEuMjI3LTEuMDk3LDEuMTctMS4zNjRjLTAuMDk2LTAuNDYzLTEuMTctMC41MzItMS4xNy0wLjUzMlMyMi43NzIsNi44MjgsMjIuNzM3LDYuNTF6IiBmaWxsPSIjRkVFODRDIi8+JiN4YTsJCTxwYXRoIGQ9Ik0yMC45MTYsNS40ODhjLTEuNzI3LDAuMjU4LTUuNjA3LDEuMTU2LTYuNTM3LDEuNjIxYy0wLjYwNSwwLjMwNC0wLjk1MiwwLjY0Ny0xLjA1OSwxLjA1MWwwLjE1NiwwLjgzOCYjMTA7JiM5OyYjOTsmIzk7YzAuMTYsMC4yNCwwLjQ0OCwwLjM4NiwwLjc0NSwwLjQ5Yy0wLjE2NSwwLjE5My0wLjMsMC40MDktMC4zLDAuNjYyYzAsMC4wOTYsMC4wMTcsMC4xOTQsMC4wNTUsMC4yOTcmIzEwOyYjOTsmIzk7JiM5O2MwLjM5MiwxLjAzMiwxLjc2NywwLjgyNCwzLjUyMywwLjQ0N2MxLjUzOC0wLjMzMiwzLjcwMS0wLjgxMSw0LjcyNS0xLjE0N2MxLjEyNC0wLjM2OCwxLjQ5Ni0xLjE1OSwxLjQ5Ni0xLjY5MiYjMTA7JiM5OyYjOTsmIzk7YzAtMC4wNzMtMC4wMDctMC4xNDItMC4wMjEtMC4yMDRjLTAuMDc4LTAuMzc5LTAuNC0wLjU5Ni0wLjc0My0wLjcyNGMwLjEzMy0wLjE5NCwwLjI0MS0wLjM5NiwwLjI0MS0wLjU5NiYjMTA7JiM5OyYjOTsmIzk7YzAtMC4wMjQtMC4wMDItMC4wNDgtMC4wMDQtMC4wNzFsLTAuMzk4LTAuNzQ0QzIyLjQxOSw1LjQyNSwyMS44MjIsNS4zNTMsMjAuOTE2LDUuNDg4eiBNMTQuODM2LDEwLjEyMiYjMTA7JiM5OyYjOTsmIzk7YzAuMDM1LTAuMDY3LDAuMzUyLTAuMzI0LDAuNjQ2LTAuNDcybDEuNTA0LTAuNzU5bC0xLjY4MS0wLjExYy0wLjQ1LTAuMDI5LTAuOTc4LTAuMTc1LTEuMDY1LTAuMjkzJiMxMDsmIzk7JiM5OyYjOTtjLTAuMDI2LTAuMTEzLDAuMDM2LTAuMjk5LDAuNTUxLTAuNTU3YzAuNzE3LTAuMzU4LDQuMzQ1LTEuMjQ3LDYuMjYxLTEuNTM0YzAuODk2LTAuMTMzLDEuMTQ0LDAuMDE1LDEuMTg0LDAuMDQ2JiMxMDsmIzk7JiM5OyYjOTtjMCwwLDAuMDE3LDAuMDQyLDAuMDMsMC4wNzdjLTAuMDUsMC4xMTItMC4yNjgsMC4zNjEtMC40ODEsMC41NDJsLTAuODYxLDAuNzMybDEuMTI4LDAuMDc3YzAuMzEzLDAuMDIxLDAuNjk1LDAuMTI2LDAuNzcsMC4yMTImIzEwOyYjOTsmIzk7JiM5O2MtMC4wMDIsMC4wNjUtMC4wOTksMC41MzMtMC44ODIsMC43ODljLTEuMDk3LDAuMzYxLTMuNzU4LDAuOTM0LTQuNjMyLDEuMTIyQzE2LjczLDEwLjExOSwxNC45NzgsMTAuNDk2LDE0LjgzNiwxMC4xMjJ6JiMxMDsmIzk7JiM5OyYjOTsgTTIzLjE5NCw2LjQ1OWwtMC4wMS0wLjA4OEwyMy4xOTQsNi40NTl6IE0yMy4xOTQsNi40NTlMMjMuMTk0LDYuNDU5TDIzLjE5NCw2LjQ1OUwyMy4xOTQsNi40NTl6Ii8+JiN4YTsJPC9nPiYjeGE7CTxnPiYjeGE7CQk8cmVjdCBoZWlnaHQ9IjcuMjc3IiB3aWR0aD0iMC45MTkiIHRyYW5zZm9ybT0ibWF0cml4KC0wLjI0NTUgLTAuOTY5NCAwLjk2OTQgLTAuMjQ1NSAxNS4wNDMzIDI4LjM5NjUpIiB5PSI0LjcwNiIgeD0iMTguMTEzIi8+JiN4YTsJPC9nPiYjeGE7CTxnPiYjeGE7CQk8cGF0aCBkPSJNMTcuNjUxLDM2Ljk2di0yLjAyN2MtMS4wMS0wLjEyNy0xLjgyNi0wLjM1Mi0yLjQ1Ny0wLjY3NGMtMC42MzEtMC4zMjQtMS4xNzYtMC44NDYtMS42MzUtMS41NyYjMTA7JiM5OyYjOTsmIzk7Yy0wLjQ1Ny0wLjcyMS0wLjcyNS0xLjYwNC0wLjc5OS0yLjY0NWwyLjAyNy0wLjM4N2MwLjE1NiwxLjA4LDAuNDMyLDEuODc1LDAuODI4LDIuMzgxYzAuNTY2LDAuNzE3LDEuMjQ0LDEuMTEzLDIuMDM1LDEuMTk1JiMxMDsmIzk7JiM5OyYjOTt2LTYuMzIyYy0wLjgyMi0wLjIxNS0xLjY2OC0wLjU2NC0yLjUzMS0xLjA0OWMtMC42NDEtMC4zNTctMS4xMzctMC44NTItMS40OC0xLjQ4NGMtMC4zNDgtMC42MzUtMC41MjEtMS4zNTUtMC41MjEtMi4xNjImIzEwOyYjOTsmIzk7JiM5O2MwLTEuNDMsMC41MDYtMi41OSwxLjUyLTMuNDc4YzAuNjc2LTAuNTk3LDEuNjgtMC45NjIsMy4wMTQtMS4wOTd2LTAuOTUzaDEuMTkxdjAuOTUzYzEuMTY0LDAuMTE0LDIuMDg4LDAuNDU4LDIuNzczLDEuMDM0JiMxMDsmIzk7JiM5OyYjOTtjMC44NzMsMC43MzQsMS40LDEuNzQxLDEuNTc4LDMuMDIxbC0yLjA1NywwLjMyOGMtMC4xMTktMC43OTktMC4zNjUtMS40MTItMC43NDQtMS44MzhjLTAuMzc3LTAuNDI4LTAuODk1LTAuNzA4LTEuNTUxLTAuODQ1JiMxMDsmIzk7JiM5OyYjOTt2NS43ODljMS4wMTQsMC4yNjYsMS42ODQsMC40NjksMi4wMSwwLjYxMWMwLjYyNywwLjI3NSwxLjEzNywwLjYxMSwxLjUzMSwxLjAwNnMwLjY5OSwwLjg2MywwLjkxLDEuNDA2JiMxMDsmIzk7JiM5OyYjOTtjMC4yMTMsMC41NDUsMC4zMTgsMS4xMzMsMC4zMTgsMS43NjZjMCwxLjM5NS0wLjQ0MywyLjU1Ny0xLjMyOCwzLjQ4NmMtMC44ODcsMC45MzItMi4wMzUsMS40MzItMy40NDEsMS40OTh2Mi4wNTdIMTcuNjUxeiYjMTA7JiM5OyYjOTsmIzk7IE0xNy42NTEsMTkuMzEyYy0wLjc3NywwLjExOS0xLjM4OSwwLjQzMy0xLjgzNCwwLjkzOGMtMC40NDcsMC41MDgtMC42NzIsMS4xMDktMC42NzIsMS44MDJjMCwwLjY4NiwwLjE5MSwxLjI2LDAuNTcsMS43MjMmIzEwOyYjOTsmIzk7JiM5O2MwLjM3OSwwLjQ2MSwxLjAyMywwLjgwOSwxLjkzNiwxLjA0NVYxOS4zMTJ6IE0xOC44NDIsMzMuMjM0YzAuNzgzLTAuMDk4LDEuNDMyLTAuNDM0LDEuOTQ1LTEuMDE2JiMxMDsmIzk7JiM5OyYjOTtjMC41MTItMC41OCwwLjc2OC0xLjI5NywwLjc2OC0yLjE1MmMwLTAuNzMtMC4xODItMS4zMTQtMC41NDktMS43NThjLTAuMzY1LTAuNDQxLTEuMDg2LTAuODAzLTIuMTY0LTEuMDg0VjMzLjIzNHoiLz4mI3hhOwk8L2c+JiN4YTs8L2c+JiN4YTs8L3N2Zz4=" vertex="1" parent="1">
          <mxGeometry x="676" y="645.78" width="34" height="38.72" as="geometry" />
        </mxCell>
        <mxCell id="Fgjv1uMBf7nxLm6j8Wb8-18" value="" style="endArrow=classic;html=1;rounded=0;exitX=1;exitY=0.5;exitDx=0;exitDy=0;entryX=0;entryY=0.5;entryDx=0;entryDy=0;" edge="1" parent="1" source="Fgjv1uMBf7nxLm6j8Wb8-2" target="Fgjv1uMBf7nxLm6j8Wb8-10">
          <mxGeometry width="50" height="50" relative="1" as="geometry">
            <mxPoint x="116" y="197" as="sourcePoint" />
            <mxPoint x="160.99999999999864" y="152.36842105263145" as="targetPoint" />
            <Array as="points" />
          </mxGeometry>
        </mxCell>
        <mxCell id="Fgjv1uMBf7nxLm6j8Wb8-19" value="" style="group" vertex="1" connectable="0" parent="1">
          <mxGeometry x="441.57000000000005" y="410" width="130" height="80" as="geometry" />
        </mxCell>
        <mxCell id="Fgjv1uMBf7nxLm6j8Wb8-20" value="CC1, CC2, CC3: compromise&lt;div&gt;confidential data&lt;/div&gt;&lt;div&gt;[&lt;span style=&quot;background-color: transparent; color: light-dark(rgb(0, 0, 0), rgb(255, 255, 255));&quot;&gt;unacceptable&lt;/span&gt;&lt;span style=&quot;background-color: transparent; color: light-dark(rgb(0, 0, 0), rgb(255, 255, 255));&quot;&gt;]&lt;/span&gt;&lt;/div&gt;" style="rounded=0;whiteSpace=wrap;html=1;" vertex="1" parent="Fgjv1uMBf7nxLm6j8Wb8-19">
          <mxGeometry y="13.33" width="120" height="56.67" as="geometry" />
        </mxCell>
        <mxCell id="Fgjv1uMBf7nxLm6j8Wb8-21" value="Academic&#xa;personal" style="shape=image;verticalLabelPosition=bottom;verticalAlign=top;imageAspect=0;aspect=fixed;image=data:image/svg+xml,PHN2ZyB4bWxucz0iaHR0cDovL3d3dy53My5vcmcvMjAwMC9zdmciIHhtbG5zOnhsaW5rPSImYW1wO25zX3hsaW5rOyIgeG1sOnNwYWNlPSJwcmVzZXJ2ZSIgb3ZlcmZsb3c9InZpc2libGUiIHZpZXdCb3g9IjAgMCAyOC44NzI5OTkxOTEyODQxOCA0Mi4zNjMwMDI3NzcwOTk2MSIgaGVpZ2h0PSI0Mi4zNjMwMDI3NzcwOTk2MSIgd2lkdGg9IjI4Ljg3Mjk5OTE5MTI4NDE4IiBpZD0iTGF5ZXJfMSIgdmVyc2lvbj0iMS4xIj4mI3hhOzxnPiYjeGE7CTxnPiYjeGE7CQk8Zz4mI3hhOwkJCTxwYXRoIGQ9Ik00LjUyNiw4LjUwNGMtMi44MDYsMC41MTEtNC40ODEsMS44MDgtNC40ODEsMy40NjdMMCwyNC43MzFjMC4wMTksMC44MTgsMC40OTUsMi4zNDUsMi4xNjUsMi4zNDUmIzEwOyYjOTsmIzk7JiM5OyYjOTtjMC42NzUsMCwxLjEzNS0wLjIyOCwxLjQ5LTAuNTEzYzAsMi4yNDksMCwxMi43ODcsMCwxMi43OTVjMCwwLjE1NywwLjAyOCwxLjM3NiwwLjg1NiwyLjIxOSYjMTA7JiM5OyYjOTsmIzk7JiM5O2MwLjUxMiwwLjUyMSwxLjIwOSwwLjc4NiwyLjA3MiwwLjc4NmMxLjQ1NCwwLDIuMjA5LTAuNjk0LDIuNjE2LTEuNDQyYzAuNDA3LDAuNzQ4LDEuMTYzLDEuNDQyLDIuNjE3LDEuNDQybDAsMCYjMTA7JiM5OyYjOTsmIzk7JiM5O2MwLjg2MywwLDEuNTYxLTAuMjY1LDIuMDczLTAuNzg2YzAuODMtMC44NDQsMC44NTgtMi4wNjQsMC44NTgtMi4yMjZjMC0wLjAwOCwwLTEwLjUzNywwLTEyLjc4NyYjMTA7JiM5OyYjOTsmIzk7JiM5O2MwLjM1NCwwLjI4NSwwLjgxMiwwLjUxMiwxLjQ4NywwLjUxMmMxLjY2OSwwLDIuMTQ2LTEuNTI2LDIuMTY1LTIuMzMzYzAtMC4wMTItMC4wNDUtMTIuNzcyLTAuMDQ1LTEyLjc3MiYjMTA7JiM5OyYjOTsmIzk7JiM5O2MwLTEuNjU5LTEuNjc2LTIuOTU2LTQuNDgxLTMuNDY3Yy0xLjk5NC0wLjM2MS00LjIxMS0wLjQwOS00LjMwNS0wLjQxMUg4LjgzOEM4LjczNyw4LjA5Niw2LjUxOSw4LjE0NCw0LjUyNiw4LjUwNHomIzEwOyYjOTsmIzk7JiM5OyYjOTsgTTAuODU0LDExLjk3MWMwLTEuODMyLDIuOTIxLTIuNTA3LDMuODE2LTIuNjdjMS45MjgtMC4zNDksNC4xNTMtMC4zOTcsNC4xNzYtMC4zOThoMC43MTJjMC4wMTQsMCwyLjI0LDAuMDQ5LDQuMTY4LDAuMzk4JiMxMDsmIzk7JiM5OyYjOTsmIzk7YzAuODk1LDAuMTYzLDMuODE1LDAuODM4LDMuODE1LDIuNjdsMC4wNDUsMTIuNzY0Yy0wLjAwNCwwLjE0Ni0wLjA4MywxLjUzLTEuMzU0LDEuNTNjLTEuMjk4LDAtMS40NzUtMS4wMTktMS40OTEtMS4xMzUmIzEwOyYjOTsmIzk7JiM5OyYjOTtsLTAuODA3LDAuMDUydjE0LjE2YzAsMC4wMTYsMC4wMDQsMS4wMzEtMC42MjksMS42NzFjLTAuMzU0LDAuMzU3LTAuODU2LDAuNTM5LTEuNDkxLDAuNTM5Yy0yLjA5NywwLTIuMjA3LTEuNzUtMi4yMTItMS45NSYjMTA7JiM5OyYjOTsmIzk7JiM5O2wtMC44MSwwLjAwMWMtMC4wMDUsMC4xOTktMC4xMTQsMS45NDktMi4yMSwxLjk0OWMtMC42MzUsMC0xLjEzNy0wLjE4Mi0xLjQ5MS0wLjUzOWMtMC42MzItMC42NC0wLjYyOC0xLjY1NC0wLjYyOC0xLjY2NVYyNS4xODMmIzEwOyYjOTsmIzk7JiM5OyYjOTtsLTAuODA2LTAuMDUyYy0wLjAxNywwLjExNi0wLjE5NSwxLjEzNS0xLjQ5MywxLjEzNWMtMS4yNzEsMC0xLjM1LTEuMzg1LTEuMzU1LTEuNTQzTDAuODU0LDExLjk3MXoiLz4mI3hhOwkJPC9nPiYjeGE7CQk8Zz4mI3hhOwkJCTxyZWN0IGhlaWdodD0iMTAuNjQxIiB3aWR0aD0iMC44MSIgeT0iMTQuNzIxIiB4PSIzLjY1NCIvPiYjeGE7CQk8L2c+JiN4YTsJCTxnPiYjeGE7CQkJPHJlY3QgaGVpZ2h0PSIxMC42NDMiIHdpZHRoPSIwLjgxMSIgeT0iMTQuODU2IiB4PSIxMy45MzMiLz4mI3hhOwkJPC9nPiYjeGE7CQk8Zz4mI3hhOwkJCTxyZWN0IGhlaWdodD0iMTIuNzE3IiB3aWR0aD0iMC44MSIgeT0iMjcuMjEyIiB4PSI4Ljc5MyIvPiYjeGE7CQk8L2c+JiN4YTsJPC9nPiYjeGE7CTxnPiYjeGE7CQk8cG9seWdvbiBwb2ludHM9IjI3LjE3MiwyMS4xMzMgMTYuODIzLDQuNDgzIDYuNTg2LDIxLjEyNSIgZmlsbD0iI0ZGRkZGRiIvPiYjeGE7CQk8cGF0aCBkPSJNMTYuMDE4LDMuOTg4TDQuODk2LDIyLjA2OWwyMy45NzcsMC4wMUwxNi44MTksMi42ODZMMTYuMDE4LDMuOTg4eiBNMTYuODI3LDYuMjgmIzEwOyYjOTsmIzk7JiM5O2MxLjI0MywyLDcuMjc1LDExLjcwNCw4LjY0NiwxMy45MDhjLTIuNjA2LTAuMDAxLTE0LjYwNC0wLjAwNS0xNy4xOTUtMC4wMDZDOS42MjgsMTcuOTg0LDE1LjU5NCw4LjI4NCwxNi44MjcsNi4yOHoiIGZpbGw9IiNDMzAwMDkiLz4mI3hhOwk8L2c+JiN4YTsJPGc+JiN4YTsJCTxyZWN0IGhlaWdodD0iNi4xNjQiIHdpZHRoPSIxLjg5MSIgeT0iOS43MjEiIHg9IjE1Ljg0NSIvPiYjeGE7CTwvZz4mI3hhOwk8Y2lyY2xlIHI9IjEuMTI2IiBjeT0iMTguMTM3IiBjeD0iMTYuNzYiLz4mI3hhOwk8Zz4mI3hhOwkJPHBhdGggZD0iTTQuNzM2LDQuMzY2YzAsMi40MDcsMS45NTgsNC4zNjYsNC4zNjYsNC4zNjZjMi40MDYsMCw0LjM2NC0xLjk1OCw0LjM2NC00LjM2NlMxMS41MDgsMCw5LjEwMiwwJiMxMDsmIzk7JiM5OyYjOTtDNi42OTUsMCw0LjczNiwxLjk1OCw0LjczNiw0LjM2NnogTTUuNTQ2LDQuMzY2YzAtMS45NjEsMS41OTUtMy41NTYsMy41NTYtMy41NTZjMS45NTksMCwzLjU1NCwxLjU5NSwzLjU1NCwzLjU1NiYjMTA7JiM5OyYjOTsmIzk7cy0xLjU5NSwzLjU1Ni0zLjU1NCwzLjU1NkM3LjE0MSw3LjkyMiw1LjU0Niw2LjMyNyw1LjU0Niw0LjM2NnoiLz4mI3hhOwk8L2c+JiN4YTs8L2c+JiN4YTs8L3N2Zz4=" vertex="1" parent="1">
          <mxGeometry x="90" y="358" width="29" height="42" as="geometry" />
        </mxCell>
        <mxCell id="Fgjv1uMBf7nxLm6j8Wb8-22" style="edgeStyle=orthogonalEdgeStyle;rounded=0;orthogonalLoop=1;jettySize=auto;html=1;exitX=0.5;exitY=1;exitDx=0;exitDy=0;" edge="1" parent="1" source="Fgjv1uMBf7nxLm6j8Wb8-7" target="Fgjv1uMBf7nxLm6j8Wb8-7">
          <mxGeometry relative="1" as="geometry" />
        </mxCell>
        <mxCell id="Fgjv1uMBf7nxLm6j8Wb8-23" value="Academic&#xa;personal" style="shape=image;verticalLabelPosition=bottom;verticalAlign=top;imageAspect=0;aspect=fixed;image=data:image/svg+xml,PHN2ZyB4bWxucz0iaHR0cDovL3d3dy53My5vcmcvMjAwMC9zdmciIHhtbG5zOnhsaW5rPSImYW1wO25zX3hsaW5rOyIgeG1sOnNwYWNlPSJwcmVzZXJ2ZSIgb3ZlcmZsb3c9InZpc2libGUiIHZpZXdCb3g9IjAgMCAyOC44NzI5OTkxOTEyODQxOCA0Mi4zNjMwMDI3NzcwOTk2MSIgaGVpZ2h0PSI0Mi4zNjMwMDI3NzcwOTk2MSIgd2lkdGg9IjI4Ljg3Mjk5OTE5MTI4NDE4IiBpZD0iTGF5ZXJfMSIgdmVyc2lvbj0iMS4xIj4mI3hhOzxnPiYjeGE7CTxnPiYjeGE7CQk8Zz4mI3hhOwkJCTxwYXRoIGQ9Ik00LjUyNiw4LjUwNGMtMi44MDYsMC41MTEtNC40ODEsMS44MDgtNC40ODEsMy40NjdMMCwyNC43MzFjMC4wMTksMC44MTgsMC40OTUsMi4zNDUsMi4xNjUsMi4zNDUmIzEwOyYjOTsmIzk7JiM5OyYjOTtjMC42NzUsMCwxLjEzNS0wLjIyOCwxLjQ5LTAuNTEzYzAsMi4yNDksMCwxMi43ODcsMCwxMi43OTVjMCwwLjE1NywwLjAyOCwxLjM3NiwwLjg1NiwyLjIxOSYjMTA7JiM5OyYjOTsmIzk7JiM5O2MwLjUxMiwwLjUyMSwxLjIwOSwwLjc4NiwyLjA3MiwwLjc4NmMxLjQ1NCwwLDIuMjA5LTAuNjk0LDIuNjE2LTEuNDQyYzAuNDA3LDAuNzQ4LDEuMTYzLDEuNDQyLDIuNjE3LDEuNDQybDAsMCYjMTA7JiM5OyYjOTsmIzk7JiM5O2MwLjg2MywwLDEuNTYxLTAuMjY1LDIuMDczLTAuNzg2YzAuODMtMC44NDQsMC44NTgtMi4wNjQsMC44NTgtMi4yMjZjMC0wLjAwOCwwLTEwLjUzNywwLTEyLjc4NyYjMTA7JiM5OyYjOTsmIzk7JiM5O2MwLjM1NCwwLjI4NSwwLjgxMiwwLjUxMiwxLjQ4NywwLjUxMmMxLjY2OSwwLDIuMTQ2LTEuNTI2LDIuMTY1LTIuMzMzYzAtMC4wMTItMC4wNDUtMTIuNzcyLTAuMDQ1LTEyLjc3MiYjMTA7JiM5OyYjOTsmIzk7JiM5O2MwLTEuNjU5LTEuNjc2LTIuOTU2LTQuNDgxLTMuNDY3Yy0xLjk5NC0wLjM2MS00LjIxMS0wLjQwOS00LjMwNS0wLjQxMUg4LjgzOEM4LjczNyw4LjA5Niw2LjUxOSw4LjE0NCw0LjUyNiw4LjUwNHomIzEwOyYjOTsmIzk7JiM5OyYjOTsgTTAuODU0LDExLjk3MWMwLTEuODMyLDIuOTIxLTIuNTA3LDMuODE2LTIuNjdjMS45MjgtMC4zNDksNC4xNTMtMC4zOTcsNC4xNzYtMC4zOThoMC43MTJjMC4wMTQsMCwyLjI0LDAuMDQ5LDQuMTY4LDAuMzk4JiMxMDsmIzk7JiM5OyYjOTsmIzk7YzAuODk1LDAuMTYzLDMuODE1LDAuODM4LDMuODE1LDIuNjdsMC4wNDUsMTIuNzY0Yy0wLjAwNCwwLjE0Ni0wLjA4MywxLjUzLTEuMzU0LDEuNTNjLTEuMjk4LDAtMS40NzUtMS4wMTktMS40OTEtMS4xMzUmIzEwOyYjOTsmIzk7JiM5OyYjOTtsLTAuODA3LDAuMDUydjE0LjE2YzAsMC4wMTYsMC4wMDQsMS4wMzEtMC42MjksMS42NzFjLTAuMzU0LDAuMzU3LTAuODU2LDAuNTM5LTEuNDkxLDAuNTM5Yy0yLjA5NywwLTIuMjA3LTEuNzUtMi4yMTItMS45NSYjMTA7JiM5OyYjOTsmIzk7JiM5O2wtMC44MSwwLjAwMWMtMC4wMDUsMC4xOTktMC4xMTQsMS45NDktMi4yMSwxLjk0OWMtMC42MzUsMC0xLjEzNy0wLjE4Mi0xLjQ5MS0wLjUzOWMtMC42MzItMC42NC0wLjYyOC0xLjY1NC0wLjYyOC0xLjY2NVYyNS4xODMmIzEwOyYjOTsmIzk7JiM5OyYjOTtsLTAuODA2LTAuMDUyYy0wLjAxNywwLjExNi0wLjE5NSwxLjEzNS0xLjQ5MywxLjEzNWMtMS4yNzEsMC0xLjM1LTEuMzg1LTEuMzU1LTEuNTQzTDAuODU0LDExLjk3MXoiLz4mI3hhOwkJPC9nPiYjeGE7CQk8Zz4mI3hhOwkJCTxyZWN0IGhlaWdodD0iMTAuNjQxIiB3aWR0aD0iMC44MSIgeT0iMTQuNzIxIiB4PSIzLjY1NCIvPiYjeGE7CQk8L2c+JiN4YTsJCTxnPiYjeGE7CQkJPHJlY3QgaGVpZ2h0PSIxMC42NDMiIHdpZHRoPSIwLjgxMSIgeT0iMTQuODU2IiB4PSIxMy45MzMiLz4mI3hhOwkJPC9nPiYjeGE7CQk8Zz4mI3hhOwkJCTxyZWN0IGhlaWdodD0iMTIuNzE3IiB3aWR0aD0iMC44MSIgeT0iMjcuMjEyIiB4PSI4Ljc5MyIvPiYjeGE7CQk8L2c+JiN4YTsJPC9nPiYjeGE7CTxnPiYjeGE7CQk8cG9seWdvbiBwb2ludHM9IjI3LjE3MiwyMS4xMzMgMTYuODIzLDQuNDgzIDYuNTg2LDIxLjEyNSIgZmlsbD0iI0ZGRkZGRiIvPiYjeGE7CQk8cGF0aCBkPSJNMTYuMDE4LDMuOTg4TDQuODk2LDIyLjA2OWwyMy45NzcsMC4wMUwxNi44MTksMi42ODZMMTYuMDE4LDMuOTg4eiBNMTYuODI3LDYuMjgmIzEwOyYjOTsmIzk7JiM5O2MxLjI0MywyLDcuMjc1LDExLjcwNCw4LjY0NiwxMy45MDhjLTIuNjA2LTAuMDAxLTE0LjYwNC0wLjAwNS0xNy4xOTUtMC4wMDZDOS42MjgsMTcuOTg0LDE1LjU5NCw4LjI4NCwxNi44MjcsNi4yOHoiIGZpbGw9IiNDMzAwMDkiLz4mI3hhOwk8L2c+JiN4YTsJPGc+JiN4YTsJCTxyZWN0IGhlaWdodD0iNi4xNjQiIHdpZHRoPSIxLjg5MSIgeT0iOS43MjEiIHg9IjE1Ljg0NSIvPiYjeGE7CTwvZz4mI3hhOwk8Y2lyY2xlIHI9IjEuMTI2IiBjeT0iMTguMTM3IiBjeD0iMTYuNzYiLz4mI3hhOwk8Zz4mI3hhOwkJPHBhdGggZD0iTTQuNzM2LDQuMzY2YzAsMi40MDcsMS45NTgsNC4zNjYsNC4zNjYsNC4zNjZjMi40MDYsMCw0LjM2NC0xLjk1OCw0LjM2NC00LjM2NlMxMS41MDgsMCw5LjEwMiwwJiMxMDsmIzk7JiM5OyYjOTtDNi42OTUsMCw0LjczNiwxLjk1OCw0LjczNiw0LjM2NnogTTUuNTQ2LDQuMzY2YzAtMS45NjEsMS41OTUtMy41NTYsMy41NTYtMy41NTZjMS45NTksMCwzLjU1NCwxLjU5NSwzLjU1NCwzLjU1NiYjMTA7JiM5OyYjOTsmIzk7cy0xLjU5NSwzLjU1Ni0zLjU1NCwzLjU1NkM3LjE0MSw3LjkyMiw1LjU0Niw2LjMyNyw1LjU0Niw0LjM2NnoiLz4mI3hhOwk8L2c+JiN4YTs8L2c+JiN4YTs8L3N2Zz4=" vertex="1" parent="1">
          <mxGeometry x="-70" y="543" width="29" height="42" as="geometry" />
        </mxCell>
        <mxCell id="Fgjv1uMBf7nxLm6j8Wb8-24" value="" style="endArrow=classic;html=1;rounded=0;exitX=1;exitY=0.75;exitDx=0;exitDy=0;entryX=0;entryY=0.5;entryDx=0;entryDy=0;" edge="1" parent="1" source="Fgjv1uMBf7nxLm6j8Wb8-3" target="Fgjv1uMBf7nxLm6j8Wb8-32">
          <mxGeometry width="50" height="50" relative="1" as="geometry">
            <mxPoint x="26" y="530" as="sourcePoint" />
            <mxPoint x="150.99999999999704" y="505.4200000000001" as="targetPoint" />
            <Array as="points" />
          </mxGeometry>
        </mxCell>
        <mxCell id="Fgjv1uMBf7nxLm6j8Wb8-25" value="" style="endArrow=classic;html=1;rounded=0;exitX=1;exitY=0.75;exitDx=0;exitDy=0;entryX=0;entryY=0.5;entryDx=0;entryDy=0;" edge="1" parent="1" source="Fgjv1uMBf7nxLm6j8Wb8-3" target="Fgjv1uMBf7nxLm6j8Wb8-10">
          <mxGeometry width="50" height="50" relative="1" as="geometry">
            <mxPoint x="-14" y="690" as="sourcePoint" />
            <mxPoint x="98.99000000000001" y="433.02188000000024" as="targetPoint" />
          </mxGeometry>
        </mxCell>
        <mxCell id="Fgjv1uMBf7nxLm6j8Wb8-26" value="" style="endArrow=classic;html=1;rounded=0;exitX=1;exitY=0.75;exitDx=0;exitDy=0;entryX=0;entryY=0.25;entryDx=0;entryDy=0;" edge="1" parent="1" source="Fgjv1uMBf7nxLm6j8Wb8-3" target="Fgjv1uMBf7nxLm6j8Wb8-20">
          <mxGeometry width="50" height="50" relative="1" as="geometry">
            <mxPoint x="-24" y="660" as="sourcePoint" />
            <mxPoint x="156.0000000000009" y="585.4200000000001" as="targetPoint" />
            <Array as="points" />
          </mxGeometry>
        </mxCell>
        <mxCell id="Fgjv1uMBf7nxLm6j8Wb8-27" value="" style="endArrow=classic;html=1;rounded=0;exitX=1;exitY=0.5;exitDx=0;exitDy=0;" edge="1" parent="1" source="Fgjv1uMBf7nxLm6j8Wb8-45" target="Fgjv1uMBf7nxLm6j8Wb8-17">
          <mxGeometry width="50" height="50" relative="1" as="geometry">
            <mxPoint x="586" y="321" as="sourcePoint" />
            <mxPoint x="701" y="320" as="targetPoint" />
          </mxGeometry>
        </mxCell>
        <mxCell id="Fgjv1uMBf7nxLm6j8Wb8-28" value="" style="endArrow=classic;html=1;rounded=0;exitX=1;exitY=0.5;exitDx=0;exitDy=0;entryX=0.25;entryY=1;entryDx=0;entryDy=0;" edge="1" parent="1" source="Fgjv1uMBf7nxLm6j8Wb8-10" target="Fgjv1uMBf7nxLm6j8Wb8-6">
          <mxGeometry width="50" height="50" relative="1" as="geometry">
            <mxPoint x="586" y="210" as="sourcePoint" />
            <mxPoint x="753" y="385" as="targetPoint" />
          </mxGeometry>
        </mxCell>
        <mxCell id="Fgjv1uMBf7nxLm6j8Wb8-29" value="" style="endArrow=classic;html=1;rounded=0;exitX=1;exitY=0.5;exitDx=0;exitDy=0;entryX=0;entryY=0.5;entryDx=0;entryDy=0;" edge="1" parent="1" source="Fgjv1uMBf7nxLm6j8Wb8-16" target="Fgjv1uMBf7nxLm6j8Wb8-7">
          <mxGeometry width="50" height="50" relative="1" as="geometry">
            <mxPoint x="586" y="450" as="sourcePoint" />
            <mxPoint x="753" y="625" as="targetPoint" />
          </mxGeometry>
        </mxCell>
        <mxCell id="Fgjv1uMBf7nxLm6j8Wb8-30" value="" style="endArrow=classic;html=1;rounded=0;exitX=1;exitY=0.5;exitDx=0;exitDy=0;" edge="1" parent="1" source="Fgjv1uMBf7nxLm6j8Wb8-20" target="Fgjv1uMBf7nxLm6j8Wb8-17">
          <mxGeometry width="50" height="50" relative="1" as="geometry">
            <mxPoint x="576" y="640" as="sourcePoint" />
            <mxPoint x="743" y="815" as="targetPoint" />
          </mxGeometry>
        </mxCell>
        <mxCell id="Fgjv1uMBf7nxLm6j8Wb8-31" value="" style="group" vertex="1" connectable="0" parent="1">
          <mxGeometry x="430" y="311" width="141" height="80" as="geometry" />
        </mxCell>
        <mxCell id="Fgjv1uMBf7nxLm6j8Wb8-32" value="CI1, CI3, CI6: compromise&lt;div&gt;webserver integrity&lt;/div&gt;&lt;div&gt;[&lt;span style=&quot;background-color: transparent; color: light-dark(rgb(0, 0, 0), rgb(255, 255, 255));&quot;&gt;unacceptable&lt;/span&gt;&lt;span style=&quot;background-color: transparent; color: light-dark(rgb(0, 0, 0), rgb(255, 255, 255));&quot;&gt;]&lt;/span&gt;&lt;/div&gt;" style="rounded=0;whiteSpace=wrap;html=1;" vertex="1" parent="Fgjv1uMBf7nxLm6j8Wb8-31">
          <mxGeometry y="15.33" width="140" height="64.67" as="geometry" />
        </mxCell>
        <mxCell id="Fgjv1uMBf7nxLm6j8Wb8-33" value="" style="endArrow=classic;html=1;rounded=0;exitX=1;exitY=0.5;exitDx=0;exitDy=0;entryX=0;entryY=0.5;entryDx=0;entryDy=0;" edge="1" parent="1" source="Fgjv1uMBf7nxLm6j8Wb8-45" target="Fgjv1uMBf7nxLm6j8Wb8-7">
          <mxGeometry width="50" height="50" relative="1" as="geometry">
            <mxPoint x="616" y="480" as="sourcePoint" />
            <mxPoint x="735" y="708" as="targetPoint" />
          </mxGeometry>
        </mxCell>
        <mxCell id="Fgjv1uMBf7nxLm6j8Wb8-34" value="" style="endArrow=classic;html=1;rounded=0;exitX=1;exitY=0.5;exitDx=0;exitDy=0;entryX=0.25;entryY=1;entryDx=0;entryDy=0;" edge="1" parent="1" source="Fgjv1uMBf7nxLm6j8Wb8-32" target="Fgjv1uMBf7nxLm6j8Wb8-6">
          <mxGeometry width="50" height="50" relative="1" as="geometry">
            <mxPoint x="626" y="377" as="sourcePoint" />
            <mxPoint x="670" y="350" as="targetPoint" />
          </mxGeometry>
        </mxCell>
        <mxCell id="Fgjv1uMBf7nxLm6j8Wb8-35" value="" style="endArrow=classic;html=1;rounded=0;entryX=0;entryY=0.25;entryDx=0;entryDy=0;" edge="1" parent="1" source="Fgjv1uMBf7nxLm6j8Wb8-21" target="Fgjv1uMBf7nxLm6j8Wb8-45">
          <mxGeometry width="50" height="50" relative="1" as="geometry">
            <mxPoint x="76" y="245" as="sourcePoint" />
            <mxPoint x="161.00000000000296" y="242.9552631578947" as="targetPoint" />
            <Array as="points" />
          </mxGeometry>
        </mxCell>
        <mxCell id="Fgjv1uMBf7nxLm6j8Wb8-36" value="" style="endArrow=classic;html=1;rounded=0;exitX=1;exitY=0.5;exitDx=0;exitDy=0;entryX=0;entryY=0.75;entryDx=0;entryDy=0;" edge="1" parent="1" source="Fgjv1uMBf7nxLm6j8Wb8-20" target="Fgjv1uMBf7nxLm6j8Wb8-8">
          <mxGeometry width="50" height="50" relative="1" as="geometry">
            <mxPoint x="616" y="489" as="sourcePoint" />
            <mxPoint x="665" y="440" as="targetPoint" />
          </mxGeometry>
        </mxCell>
        <mxCell id="Fgjv1uMBf7nxLm6j8Wb8-37" value="" style="shape=image;verticalLabelPosition=bottom;verticalAlign=top;imageAspect=0;aspect=fixed;image=data:image/svg+xml,PHN2ZyB4bWxucz0iaHR0cDovL3d3dy53My5vcmcvMjAwMC9zdmciIHhtbG5zOnhsaW5rPSImYW1wO25zX3hsaW5rOyIgeG1sOnNwYWNlPSJwcmVzZXJ2ZSIgb3ZlcmZsb3c9InZpc2libGUiIHZpZXdCb3g9IjAgMCA0NC42MTE5OTk1MTE3MTg3NSAzNi4wODMwMDAxODMxMDU0NyIgaGVpZ2h0PSIzNi4wODMwMDAxODMxMDU0NyIgd2lkdGg9IjQ0LjYxMTk5OTUxMTcxODc1IiBpZD0iTGF5ZXJfMSIgdmVyc2lvbj0iMS4xIj4mI3hhOzxnPiYjeGE7CTxnPiYjeGE7CQk8cG9seWdvbiBwb2ludHM9IjAuNzI1LDM1LjY2IDQzLjg4MywzNS42NzcgMjIuMTg2LDAuNzciIGZpbGw9IiNDMzAwMDkiLz4mI3hhOwkJPHBhdGggZD0iTTIxLjg0LDAuNTU4TDAsMzYuMDY0bDQ0LjYxMiwwLjAxOUwyMi4xODQsMEwyMS44NCwwLjU1OHogTTIyLjE4OCwxLjU0YzAuNjU4LDEuMDU4LDIwLjIzNywzMi41NTcsMjAuOTY3LDMzLjczMiYjMTA7JiM5OyYjOTsmIzk7Yy0xLjM4Ni0wLjAwMS00MC4zMy0wLjAxNy00MS43MDYtMC4wMTdDMi4xNjksMzQuMDgzLDIxLjUzNSwyLjYwMSwyMi4xODgsMS41NHoiLz4mI3hhOwk8L2c+JiN4YTsJPHBhdGggZD0iTTIyLjIwMSw3LjIzOWMyLjIzNywzLjU5OSwxMy4wOTQsMjEuMDY3LDE1LjU2MSwyNS4wMzRjLTQuNjkzLTAuMDAyLTI2LjI4OC0wLjAxLTMwLjk1Mi0wLjAxMiYjMTA7JiM5OyYjOTtDOS4yNDIsMjguMzA2LDE5Ljk4MSwxMC44NDcsMjIuMjAxLDcuMjM5eiIgZmlsbD0iI0ZGRkZGRiIvPiYjeGE7CTxnPiYjeGE7CQk8cmVjdCBoZWlnaHQ9IjExLjA5NiIgd2lkdGg9IjMuNDAyIiB5PSIxMy40MzMiIHg9IjIwLjQ1MiIvPiYjeGE7CTwvZz4mI3hhOwk8cGF0aCBkPSJNMjQuMTQ1LDI4LjU4MmMwLDEuMTE1LTAuOTA2LDIuMDIxLTIuMDI5LDIuMDIxYy0xLjExNywwLTIuMDI0LTAuOTA2LTIuMDI0LTIuMDIxYzAtMS4xMTcsMC45MDctMi4wMjQsMi4wMjQtMi4wMjQmIzEwOyYjOTsmIzk7QzIzLjIzOSwyNi41NTcsMjQuMTQ1LDI3LjQ2NCwyNC4xNDUsMjguNTgyeiIvPiYjeGE7PC9nPiYjeGE7PC9zdmc+" vertex="1" parent="1">
          <mxGeometry x="484.25" y="303" width="27.63157894736842" height="22.105263157894736" as="geometry" />
        </mxCell>
        <mxCell id="Fgjv1uMBf7nxLm6j8Wb8-38" value="" style="shape=image;verticalLabelPosition=bottom;verticalAlign=top;imageAspect=0;aspect=fixed;image=data:image/svg+xml,PHN2ZyB4bWxucz0iaHR0cDovL3d3dy53My5vcmcvMjAwMC9zdmciIHhtbG5zOnhsaW5rPSImYW1wO25zX3hsaW5rOyIgeG1sOnNwYWNlPSJwcmVzZXJ2ZSIgb3ZlcmZsb3c9InZpc2libGUiIHZpZXdCb3g9IjAgMCA0NC42MTE5OTk1MTE3MTg3NSAzNi4wODMwMDAxODMxMDU0NyIgaGVpZ2h0PSIzNi4wODMwMDAxODMxMDU0NyIgd2lkdGg9IjQ0LjYxMTk5OTUxMTcxODc1IiBpZD0iTGF5ZXJfMSIgdmVyc2lvbj0iMS4xIj4mI3hhOzxnPiYjeGE7CTxnPiYjeGE7CQk8cG9seWdvbiBwb2ludHM9IjAuNzI1LDM1LjY2IDQzLjg4MywzNS42NzcgMjIuMTg2LDAuNzciIGZpbGw9IiNDMzAwMDkiLz4mI3hhOwkJPHBhdGggZD0iTTIxLjg0LDAuNTU4TDAsMzYuMDY0bDQ0LjYxMiwwLjAxOUwyMi4xODQsMEwyMS44NCwwLjU1OHogTTIyLjE4OCwxLjU0YzAuNjU4LDEuMDU4LDIwLjIzNywzMi41NTcsMjAuOTY3LDMzLjczMiYjMTA7JiM5OyYjOTsmIzk7Yy0xLjM4Ni0wLjAwMS00MC4zMy0wLjAxNy00MS43MDYtMC4wMTdDMi4xNjksMzQuMDgzLDIxLjUzNSwyLjYwMSwyMi4xODgsMS41NHoiLz4mI3hhOwk8L2c+JiN4YTsJPHBhdGggZD0iTTIyLjIwMSw3LjIzOWMyLjIzNywzLjU5OSwxMy4wOTQsMjEuMDY3LDE1LjU2MSwyNS4wMzRjLTQuNjkzLTAuMDAyLTI2LjI4OC0wLjAxLTMwLjk1Mi0wLjAxMiYjMTA7JiM5OyYjOTtDOS4yNDIsMjguMzA2LDE5Ljk4MSwxMC44NDcsMjIuMjAxLDcuMjM5eiIgZmlsbD0iI0ZGRkZGRiIvPiYjeGE7CTxnPiYjeGE7CQk8cmVjdCBoZWlnaHQ9IjExLjA5NiIgd2lkdGg9IjMuNDAyIiB5PSIxMy40MzMiIHg9IjIwLjQ1MiIvPiYjeGE7CTwvZz4mI3hhOwk8cGF0aCBkPSJNMjQuMTQ1LDI4LjU4MmMwLDEuMTE1LTAuOTA2LDIuMDIxLTIuMDI5LDIuMDIxYy0xLjExNywwLTIuMDI0LTAuOTA2LTIuMDI0LTIuMDIxYzAtMS4xMTcsMC45MDctMi4wMjQsMi4wMjQtMi4wMjQmIzEwOyYjOTsmIzk7QzIzLjIzOSwyNi41NTcsMjQuMTQ1LDI3LjQ2NCwyNC4xNDUsMjguNTgyeiIvPiYjeGE7PC9nPiYjeGE7PC9zdmc+" vertex="1" parent="1">
          <mxGeometry x="487.57000000000005" y="400" width="27.63157894736842" height="22.105263157894736" as="geometry" />
        </mxCell>
        <mxCell id="Fgjv1uMBf7nxLm6j8Wb8-39" value="" style="shape=image;verticalLabelPosition=bottom;verticalAlign=top;imageAspect=0;aspect=fixed;image=data:image/svg+xml,PHN2ZyB4bWxucz0iaHR0cDovL3d3dy53My5vcmcvMjAwMC9zdmciIHhtbG5zOnhsaW5rPSImYW1wO25zX3hsaW5rOyIgeG1sOnNwYWNlPSJwcmVzZXJ2ZSIgb3ZlcmZsb3c9InZpc2libGUiIHZpZXdCb3g9IjAgMCA0NC42MTE5OTk1MTE3MTg3NSAzNi4wODMwMDAxODMxMDU0NyIgaGVpZ2h0PSIzNi4wODMwMDAxODMxMDU0NyIgd2lkdGg9IjQ0LjYxMTk5OTUxMTcxODc1IiBpZD0iTGF5ZXJfMSIgdmVyc2lvbj0iMS4xIj4mI3hhOzxnPiYjeGE7CTxnPiYjeGE7CQk8cG9seWdvbiBwb2ludHM9IjAuNzI1LDM1LjY2IDQzLjg4MywzNS42NzcgMjIuMTg2LDAuNzciIGZpbGw9IiNDMzAwMDkiLz4mI3hhOwkJPHBhdGggZD0iTTIxLjg0LDAuNTU4TDAsMzYuMDY0bDQ0LjYxMiwwLjAxOUwyMi4xODQsMEwyMS44NCwwLjU1OHogTTIyLjE4OCwxLjU0YzAuNjU4LDEuMDU4LDIwLjIzNywzMi41NTcsMjAuOTY3LDMzLjczMiYjMTA7JiM5OyYjOTsmIzk7Yy0xLjM4Ni0wLjAwMS00MC4zMy0wLjAxNy00MS43MDYtMC4wMTdDMi4xNjksMzQuMDgzLDIxLjUzNSwyLjYwMSwyMi4xODgsMS41NHoiLz4mI3hhOwk8L2c+JiN4YTsJPHBhdGggZD0iTTIyLjIwMSw3LjIzOWMyLjIzNywzLjU5OSwxMy4wOTQsMjEuMDY3LDE1LjU2MSwyNS4wMzRjLTQuNjkzLTAuMDAyLTI2LjI4OC0wLjAxLTMwLjk1Mi0wLjAxMiYjMTA7JiM5OyYjOTtDOS4yNDIsMjguMzA2LDE5Ljk4MSwxMC44NDcsMjIuMjAxLDcuMjM5eiIgZmlsbD0iI0ZGRkZGRiIvPiYjeGE7CTxnPiYjeGE7CQk8cmVjdCBoZWlnaHQ9IjExLjA5NiIgd2lkdGg9IjMuNDAyIiB5PSIxMy40MzMiIHg9IjIwLjQ1MiIvPiYjeGE7CTwvZz4mI3hhOwk8cGF0aCBkPSJNMjQuMTQ1LDI4LjU4MmMwLDEuMTE1LTAuOTA2LDIuMDIxLTIuMDI5LDIuMDIxYy0xLjExNywwLTIuMDI0LTAuOTA2LTIuMDI0LTIuMDIxYzAtMS4xMTcsMC45MDctMi4wMjQsMi4wMjQtMi4wMjQmIzEwOyYjOTsmIzk7QzIzLjIzOSwyNi41NTcsMjQuMTQ1LDI3LjQ2NCwyNC4xNDUsMjguNTgyeiIvPiYjeGE7PC9nPiYjeGE7PC9zdmc+" vertex="1" parent="1">
          <mxGeometry x="486.5" y="614" width="27.63157894736842" height="22.105263157894736" as="geometry" />
        </mxCell>
        <mxCell id="Fgjv1uMBf7nxLm6j8Wb8-40" value="" style="endArrow=classic;html=1;rounded=0;entryX=0;entryY=0.25;entryDx=0;entryDy=0;exitX=1;exitY=0.75;exitDx=0;exitDy=0;" edge="1" parent="1" source="Fgjv1uMBf7nxLm6j8Wb8-23" target="Fgjv1uMBf7nxLm6j8Wb8-45">
          <mxGeometry width="50" height="50" relative="1" as="geometry">
            <mxPoint x="100" y="320" as="sourcePoint" />
            <mxPoint x="570" y="560" as="targetPoint" />
            <Array as="points" />
          </mxGeometry>
        </mxCell>
        <mxCell id="Fgjv1uMBf7nxLm6j8Wb8-41" value="" style="endArrow=classic;html=1;rounded=0;exitX=1;exitY=0.75;exitDx=0;exitDy=0;entryX=0;entryY=0.25;entryDx=0;entryDy=0;" edge="1" parent="1" source="Fgjv1uMBf7nxLm6j8Wb8-3" target="Fgjv1uMBf7nxLm6j8Wb8-45">
          <mxGeometry width="50" height="50" relative="1" as="geometry">
            <mxPoint x="-10" y="540" as="sourcePoint" />
            <mxPoint x="450" y="534" as="targetPoint" />
            <Array as="points" />
          </mxGeometry>
        </mxCell>
        <mxCell id="Fgjv1uMBf7nxLm6j8Wb8-42" value="" style="endArrow=classic;html=1;rounded=0;exitX=1;exitY=0.5;exitDx=0;exitDy=0;entryX=0;entryY=0.5;entryDx=0;entryDy=0;" edge="1" parent="1" source="Fgjv1uMBf7nxLm6j8Wb8-2" target="Fgjv1uMBf7nxLm6j8Wb8-32">
          <mxGeometry width="50" height="50" relative="1" as="geometry">
            <mxPoint x="370" y="230" as="sourcePoint" />
            <mxPoint x="553" y="272" as="targetPoint" />
            <Array as="points" />
          </mxGeometry>
        </mxCell>
        <mxCell id="Fgjv1uMBf7nxLm6j8Wb8-43" value="" style="endArrow=classic;html=1;rounded=0;exitX=1;exitY=0.75;exitDx=0;exitDy=0;entryX=0;entryY=0.5;entryDx=0;entryDy=0;" edge="1" parent="1" source="Fgjv1uMBf7nxLm6j8Wb8-4" target="Fgjv1uMBf7nxLm6j8Wb8-10">
          <mxGeometry width="50" height="50" relative="1" as="geometry">
            <mxPoint x="290" y="966" as="sourcePoint" />
            <mxPoint x="460" y="630" as="targetPoint" />
          </mxGeometry>
        </mxCell>
        <mxCell id="Fgjv1uMBf7nxLm6j8Wb8-44" value="" style="group" vertex="1" connectable="0" parent="1">
          <mxGeometry x="440.5" y="500" width="129.5" height="70" as="geometry" />
        </mxCell>
        <mxCell id="Fgjv1uMBf7nxLm6j8Wb8-45" value="CI2, CI4, CI5: compromise data&lt;div&gt;integrity&lt;/div&gt;&lt;div&gt;[&lt;span style=&quot;background-color: transparent; color: light-dark(rgb(0, 0, 0), rgb(255, 255, 255));&quot;&gt;unacceptable&lt;/span&gt;&lt;span style=&quot;background-color: transparent; color: light-dark(rgb(0, 0, 0), rgb(255, 255, 255));&quot;&gt;]&lt;/span&gt;&lt;/div&gt;" style="rounded=0;whiteSpace=wrap;html=1;" vertex="1" parent="Fgjv1uMBf7nxLm6j8Wb8-44">
          <mxGeometry y="13.329999999999998" width="124.32" height="56.669999999999995" as="geometry" />
        </mxCell>
        <mxCell id="Fgjv1uMBf7nxLm6j8Wb8-46" value="" style="shape=image;verticalLabelPosition=bottom;verticalAlign=top;imageAspect=0;aspect=fixed;image=data:image/svg+xml,PHN2ZyB4bWxucz0iaHR0cDovL3d3dy53My5vcmcvMjAwMC9zdmciIHhtbG5zOnhsaW5rPSImYW1wO25zX3hsaW5rOyIgeG1sOnNwYWNlPSJwcmVzZXJ2ZSIgb3ZlcmZsb3c9InZpc2libGUiIHZpZXdCb3g9IjAgMCA0NC42MTE5OTk1MTE3MTg3NSAzNi4wODMwMDAxODMxMDU0NyIgaGVpZ2h0PSIzNi4wODMwMDAxODMxMDU0NyIgd2lkdGg9IjQ0LjYxMTk5OTUxMTcxODc1IiBpZD0iTGF5ZXJfMSIgdmVyc2lvbj0iMS4xIj4mI3hhOzxnPiYjeGE7CTxnPiYjeGE7CQk8cG9seWdvbiBwb2ludHM9IjAuNzI1LDM1LjY2IDQzLjg4MywzNS42NzcgMjIuMTg2LDAuNzciIGZpbGw9IiNDMzAwMDkiLz4mI3hhOwkJPHBhdGggZD0iTTIxLjg0LDAuNTU4TDAsMzYuMDY0bDQ0LjYxMiwwLjAxOUwyMi4xODQsMEwyMS44NCwwLjU1OHogTTIyLjE4OCwxLjU0YzAuNjU4LDEuMDU4LDIwLjIzNywzMi41NTcsMjAuOTY3LDMzLjczMiYjMTA7JiM5OyYjOTsmIzk7Yy0xLjM4Ni0wLjAwMS00MC4zMy0wLjAxNy00MS43MDYtMC4wMTdDMi4xNjksMzQuMDgzLDIxLjUzNSwyLjYwMSwyMi4xODgsMS41NHoiLz4mI3hhOwk8L2c+JiN4YTsJPHBhdGggZD0iTTIyLjIwMSw3LjIzOWMyLjIzNywzLjU5OSwxMy4wOTQsMjEuMDY3LDE1LjU2MSwyNS4wMzRjLTQuNjkzLTAuMDAyLTI2LjI4OC0wLjAxLTMwLjk1Mi0wLjAxMiYjMTA7JiM5OyYjOTtDOS4yNDIsMjguMzA2LDE5Ljk4MSwxMC44NDcsMjIuMjAxLDcuMjM5eiIgZmlsbD0iI0ZGRkZGRiIvPiYjeGE7CTxnPiYjeGE7CQk8cmVjdCBoZWlnaHQ9IjExLjA5NiIgd2lkdGg9IjMuNDAyIiB5PSIxMy40MzMiIHg9IjIwLjQ1MiIvPiYjeGE7CTwvZz4mI3hhOwk8cGF0aCBkPSJNMjQuMTQ1LDI4LjU4MmMwLDEuMTE1LTAuOTA2LDIuMDIxLTIuMDI5LDIuMDIxYy0xLjExNywwLTIuMDI0LTAuOTA2LTIuMDI0LTIuMDIxYzAtMS4xMTcsMC45MDctMi4wMjQsMi4wMjQtMi4wMjQmIzEwOyYjOTsmIzk7QzIzLjIzOSwyNi41NTcsMjQuMTQ1LDI3LjQ2NCwyNC4xNDUsMjguNTgyeiIvPiYjeGE7PC9nPiYjeGE7PC9zdmc+" vertex="1" parent="1">
          <mxGeometry x="490" y="492" width="27.63157894736842" height="22.105263157894736" as="geometry" />
        </mxCell>
        <mxCell id="Fgjv1uMBf7nxLm6j8Wb8-47" value="" style="group" vertex="1" connectable="0" parent="1">
          <mxGeometry x="9" y="140" width="160" height="107.89322186725076" as="geometry" />
        </mxCell>
        <mxCell id="Fgjv1uMBf7nxLm6j8Wb8-48" value="implement role based access controls" style="ellipse;whiteSpace=wrap;html=1;" vertex="1" parent="Fgjv1uMBf7nxLm6j8Wb8-47">
          <mxGeometry y="27.89" width="150" height="72.11" as="geometry" />
        </mxCell>
        <mxCell id="Fgjv1uMBf7nxLm6j8Wb8-49" value="" style="shape=image;verticalLabelPosition=bottom;verticalAlign=top;imageAspect=0;aspect=fixed;image=data:image/svg+xml,PHN2ZyB4bWxucz0iaHR0cDovL3d3dy53My5vcmcvMjAwMC9zdmciIHhtbG5zOnhsaW5rPSImYW1wO25zX3hsaW5rOyIgeG1sOnNwYWNlPSJwcmVzZXJ2ZSIgb3ZlcmZsb3c9InZpc2libGUiIHZpZXdCb3g9IjAgLTAuMDAwODE4NDYxMTc5NzMzMjc2NCA0Ni4wMTMzNDc2MjU3MzI0MiAzOS4xMTMzODA0MzIxMjg5MDYiIGhlaWdodD0iMzkuMTEzMzgwNDMyMTI4OTA2IiB3aWR0aD0iNDYuMDEzMzQ3NjI1NzMyNDIiIGlkPSJMYXllcl8xIiB2ZXJzaW9uPSIxLjEiPiYjeGE7PGc+JiN4YTsJPGc+JiN4YTsJCTxwYXRoIGQ9Ik0xNi42MDYsNy43OThsMjcuMTcyLDIyLjA4OGMyLjEyOCwxLjczLDIuNDUxLDQuODU3LDAuNzIzLDYuOTg2JiMxMDsmIzk7JiM5OyYjOTtjLTEuNzMsMi4xMjktNC44NTksMi40NTMtNi45ODcsMC43MjNMMTMuNTAyLDE4LjA4MyBNNDEuMzgxLDMxLjk5Yy0wLjcyOS0wLjU5Mi0xLjc5Ny0wLjQ4MS0yLjM4NywwLjI0NSYjMTA7JiM5OyYjOTsmIzk7Yy0wLjU5MiwwLjcyOS0wLjQ4LDEuNzk3LDAuMjQ2LDIuMzg5YzAuNzI4LDAuNTksMS43OTgsMC40OCwyLjM4OS0wLjI0OEM0Mi4yMjEsMzMuNjQ5LDQyLjEwOCwzMi41ODEsNDEuMzgxLDMxLjk5eiIgZmlsbD0iIzY4QTUzOSIvPiYjeGE7CQk8cGF0aCBkPSJNMTYuNTg5LDguMzA2QzE3LjA1OCw4LjY4Nyw0My41MjIsMzAuMiw0My41MjIsMzAuMmMxLjEwNywwLjksMS42ODMsMi4yMTgsMS42ODMsMy41NDVjMCwxLjAxMS0wLjMzMywyLjAyOC0xLjAxOSwyLjg3MiYjMTA7JiM5OyYjOTsmIzk7Yy0wLjc2OSwwLjk0NS0xLjg2LDEuNTM2LTMuMDczLDEuNjYxYy0xLjIxMiwwLjEyNS0yLjM5OS0wLjIyOS0zLjM0NC0wLjk5OEwxMy43NTgsMTcuNzY5YzAsMCwwLjY0OC0yLjQxNCwxLjI5Ni00LjgyNyYjMTA7JiM5OyYjOTsmIzk7Yy0wLjkwMywyLjcyOC0xLjgwNyw1LjQ1Ni0xLjgwNyw1LjQ1NmwyNC4wMSwxOS41MTFjMS4xMTMsMC45MDQsMi41MTIsMS4zMjEsMy45MzgsMS4xNzVjMS40MjgtMC4xNDcsMi43MTMtMC44NDMsMy42MTktMS45NTYmIzEwOyYjOTsmIzk7JiM5O2MxLjg2Ni0yLjI5OSwxLjUxNi01LjY4OC0wLjc4MS03LjU1N0wxNi44NjEsNy40ODNDMTYuODYxLDcuNDgzLDE2LjYyNyw4LjE5MSwxNi41ODksOC4zMDZ6IE0xNS4wNTQsMTIuOTQyJiMxMDsmIzk7JiM5OyYjOTtjMC43NjgtMi4zMTgsMS4zMjEtMy45OSwxLjUzNS00LjYzNmMtMC4wMDQtMC4wMDMtMC4yMzgtMC4xOTQtMC4yMzgtMC4xOTRTMTUuNzAyLDEwLjUyNywxNS4wNTQsMTIuOTQyeiIvPiYjeGE7CQk8cGF0aCBkPSJNNDAuMDkzLDMxLjIxNmMtMC41NTksMC4wNTgtMS4wNiwwLjMyOS0xLjQxMywwLjc2NWMtMC43MywwLjg5OC0wLjU5NCwyLjIyNiwwLjMwNSwyLjk1OCYjMTA7JiM5OyYjOTsmIzk7YzAuOTAyLDAuNzMsMi4yMjksMC41OTMsMi45NTktMC4zMDhjMC4zNTQtMC40MzQsMC41MTctMC45NzksMC40NTktMS41MzdjLTAuMDU4LTAuNTU5LTAuMzI5LTEuMDYyLTAuNzY2LTEuNDE4bDAsMCYjMTA7JiM5OyYjOTsmIzk7QzQxLjIsMzEuMzIxLDQwLjY1MiwzMS4xNTgsNDAuMDkzLDMxLjIxNnogTTM5LjQ5NiwzNC4zMWMtMC41NTItMC40NDktMC42MzYtMS4yNjYtMC4xODctMS44MTgmIzEwOyYjOTsmIzk7JiM5O2MwLjIxNy0wLjI2OCwwLjUyNC0wLjQzNSwwLjg2Ny0wLjQ3YzAuMzQ0LTAuMDM2LDAuNjgxLDAuMDY0LDAuOTQ5LDAuMjgzczAuNDM3LDAuNTI4LDAuNDcyLDAuODcyJiMxMDsmIzk7JiM5OyYjOTtjMC4wMDUsMC4wNDUsMC4wMDcsMC4wOSwwLjAwNywwLjEzNGMwLDAuMjk1LTAuMTAxLDAuNTc4LTAuMjg5LDAuODFDNDAuODY2LDM0LjY3NCw0MC4wNSwzNC43NTksMzkuNDk2LDM0LjMxeiIvPiYjeGE7CTwvZz4mI3hhOwk8Zz4mI3hhOwkJPHBhdGggZD0iTTguNjkyLDUuMTYzbDEuNzQ5LDQuOTY2bC00LjAwOSwzLjY3NGwtNS44NS0xLjQ4JiMxMDsmIzk7JiM5OyYjOTtjMC44ODksMy4xMTYsMy4zNzIsNS43NjgsNi43NCw2LjYyNWM1LjAzNiwxLjI4LDEwLjE1OS0xLjc2NywxMS40NDEtNi44MDJjMS4yNzktNS4wMzktMS43NjctMTAuMTYxLTYuODA1LTExLjQ0MyYjMTA7JiM5OyYjOTsmIzk7QzguMzktMC4yMDUsNC44MTcsMS4wMTMsMi41NTgsMy42MTlMOC42OTIsNS4xNjN6IiBmaWxsPSIjNjhBNTM5Ii8+JiN4YTsJCTxwYXRoIGQ9Ik0yLjI1MiwzLjM1NEwxLjgyMSwzLjg1MWMwLDAsNi4xNjgsMS41NTMsNi41NjIsMS42NTJjMC4xMjUsMC4zNTcsMS40MzUsNC4wNzMsMS41ODgsNC41MDgmIzEwOyYjOTsmIzk7JiM5O2MtMC4zNDIsMC4zMTMtMy4zNjksMy4wODctMy42NSwzLjM0NkM1LjkyNiwxMy4yNTcsMCwxMS43NTcsMCwxMS43NTdsMC4xOTMsMC42NzZjMC45NzEsMy40MDMsMy42NjUsNi4wNSw3LjAzLDYuOTA2JiMxMDsmIzk7JiM5OyYjOTtjNS4yNDUsMS4zMzMsMTAuNTk4LTEuODUsMTEuOTM0LTcuMDk1YzEuMzMyLTUuMjQ3LTEuODUyLTEwLjYwMS03LjA5OC0xMS45MzZDOC40MzUtMC42MTEsNC42NzcsMC41NTUsMi4yNTIsMy4zNTR6IE0xMS44NiwxLjA5NSYjMTA7JiM5OyYjOTsmIzk7YzQuODEyLDEuMjI1LDcuNzM0LDYuMTM3LDYuNTEyLDEwLjk1MWMtMS4yMjYsNC44MTItNi4xMzcsNy43MzItMTAuOTQ5LDYuNTA5Yy0yLjg0LTAuNzIzLTUuMDk5LTIuODctNi4xNDYtNS42MzkmIzEwOyYjOTsmIzk7JiM5O2MxLjE4NSwwLjMsNS4yNjgsMS4zMzMsNS4yNjgsMS4zMzNsNC4zNjctNC4wMDNsLTEuOTEtNS40MjNjMCwwLTQuNTAyLTEuMTMzLTUuNjI1LTEuNDE2QzUuNTk4LDEuMjE4LDguNzY3LDAuMzA5LDExLjg2LDEuMDk1eiIvPiYjeGE7CTwvZz4mI3hhOwk8Zz4mI3hhOwkJPHJlY3QgaGVpZ2h0PSIwLjUiIHdpZHRoPSI2LjY4OSIgdHJhbnNmb3JtPSJtYXRyaXgoLTAuNTY4MiAtMC44MjI5IDAuODIyOSAtMC41NjgyIC0wLjU1NDkgMzIuODE4MikiIHk9IjE2LjMwNSIgeD0iNC45ODgiLz4mI3hhOwk8L2c+JiN4YTsJPGc+JiN4YTsJCTxnPiYjeGE7CQkJJiN4YTsJCQkJPHJlY3QgaGVpZ2h0PSI0LjU3NCIgd2lkdGg9IjcuMDAyIiBmaWxsPSIjNjhBNTM5IiB0cmFuc2Zvcm09Im1hdHJpeCgtMC4yMjcxIDAuOTczOSAtMC45NzM5IC0wLjIyNzEgMzIuMTg5MyAtMS4yMTcpIiB5PSI5Ljg3OCIgeD0iMTMuMDc3Ii8+JiN4YTsJCQk8cGF0aCBkPSJNMTQuNzUsOC4xNDVsLTEuNjgyLDcuMjEzbDUuMjQ0LDEuMjIybDEuNzc0LTcuNjA4TDE0Ljg0Miw3Ljc1TDE0Ljc1LDguMTQ1eiBNMTUuNDQ3LDguNzIzJiMxMDsmIzk7JiM5OyYjOTsmIzk7YzAuNTkyLDAuMTM4LDMuMDc1LDAuNzE2LDMuNjY3LDAuODU0Yy0wLjE1MywwLjY1Ny0xLjI1Myw1LjM3My0xLjQwNiw2LjAzYy0wLjU5MS0wLjEzOC0zLjA3NC0wLjcxNy0zLjY2Ni0wLjg1NCYjMTA7JiM5OyYjOTsmIzk7JiM5O0MxNC4xOTUsMTQuMDk2LDE1LjI5NCw5LjM4LDE1LjQ0Nyw4LjcyM3oiLz4mI3hhOwkJPC9nPiYjeGE7CQk8Zz4mI3hhOwkJCTxsaW5lIHkyPSIxMC44MDMiIHgyPSIxOS4xMDYiIHkxPSI5LjgyMSIgeDE9IjE0Ljk1NyIgZmlsbD0iIzY4QTUzOSIvPiYjeGE7CQkJPHJlY3QgaGVpZ2h0PSIwLjgxIiB3aWR0aD0iNC4yNjQiIHRyYW5zZm9ybT0ibWF0cml4KC0wLjk3MzEgLTAuMjMwMyAwLjIzMDMgLTAuOTczMSAzMS4yMyAyNC4yNjk0KSIgeT0iOS45MDciIHg9IjE0Ljg5OSIvPiYjeGE7CQk8L2c+JiN4YTsJCTxnPiYjeGE7CQkJPGxpbmUgeTI9IjEyLjA2OSIgeDI9IjE4LjkwMSIgeTE9IjExLjA0MiIgeDE9IjE0LjYyNyIgZmlsbD0iIzY4QTUzOSIvPiYjeGE7CQkJPHJlY3QgaGVpZ2h0PSIwLjgxIiB3aWR0aD0iNC4zOTUiIHRyYW5zZm9ybT0ibWF0cml4KC0wLjk3MjMgLTAuMjMzNyAwLjIzMzcgLTAuOTcyMyAzMC4zNjI5IDI2LjcwOTIpIiB5PSIxMS4xNSIgeD0iMTQuNTY3Ii8+JiN4YTsJCTwvZz4mI3hhOwkJPGc+JiN4YTsJCQk8bGluZSB5Mj0iMTMuMjkzIiB4Mj0iMTguNjc0IiB5MT0iMTIuMjYxIiB4MT0iMTQuMyIgZmlsbD0iIzY4QTUzOSIvPiYjeGE7CQkJPHJlY3QgaGVpZ2h0PSIwLjgxIiB3aWR0aD0iNC40OTQiIHRyYW5zZm9ybT0ibWF0cml4KC0wLjk3MzMgLTAuMjI5NiAwLjIyOTYgLTAuOTczMyAyOS42MDA5IDI4Ljk5ODEpIiB5PSIxMi4zNzIiIHg9IjE0LjI0Ii8+JiN4YTsJCTwvZz4mI3hhOwkJPGc+JiN4YTsJCQk8bGluZSB5Mj0iMTQuNTAzIiB4Mj0iMTguMzAzIiB5MT0iMTMuNDgxIiB4MT0iMTMuOTczIiBmaWxsPSIjNjhBNTM5Ii8+JiN4YTsJCQk8cmVjdCBoZWlnaHQ9IjAuODEiIHdpZHRoPSI0LjQ0OSIgdHJhbnNmb3JtPSJtYXRyaXgoLTAuOTczMiAtMC4yMjk4IDAuMjI5OCAtMC45NzMyIDI4LjYyODkgMzEuMzE4NikiIHk9IjEzLjU4NyIgeD0iMTMuOTE0Ii8+JiN4YTsJCTwvZz4mI3hhOwk8L2c+JiN4YTs8L2c+JiN4YTs8L3N2Zz4=;rotation=-25;" vertex="1" parent="Fgjv1uMBf7nxLm6j8Wb8-47">
          <mxGeometry x="59" y="7.893221867250759" width="46" height="39" as="geometry" />
        </mxCell>
        <mxCell id="Fgjv1uMBf7nxLm6j8Wb8-50" value="reduce likelihood" style="endArrow=open;endSize=12;dashed=1;html=1;rounded=0;exitX=1;exitY=1;exitDx=0;exitDy=0;entryX=0;entryY=0.5;entryDx=0;entryDy=0;" edge="1" parent="1" source="Fgjv1uMBf7nxLm6j8Wb8-48" target="Fgjv1uMBf7nxLm6j8Wb8-10">
          <mxGeometry x="-0.4108" y="-1" width="160" relative="1" as="geometry">
            <mxPoint x="9" y="303" as="sourcePoint" />
            <mxPoint x="169" y="303" as="targetPoint" />
            <Array as="points">
              <mxPoint x="230" y="240" />
            </Array>
            <mxPoint as="offset" />
          </mxGeometry>
        </mxCell>
        <mxCell id="Fgjv1uMBf7nxLm6j8Wb8-51" value="reduce likelihood" style="endArrow=open;endSize=12;dashed=1;html=1;rounded=0;exitX=1;exitY=1;exitDx=0;exitDy=0;entryX=0;entryY=0.5;entryDx=0;entryDy=0;" edge="1" parent="1" source="Fgjv1uMBf7nxLm6j8Wb8-48" target="Fgjv1uMBf7nxLm6j8Wb8-32">
          <mxGeometry x="-0.4108" y="-1" width="160" relative="1" as="geometry">
            <mxPoint x="160" y="270" as="sourcePoint" />
            <mxPoint x="443" y="290" as="targetPoint" />
            <Array as="points">
              <mxPoint x="253" y="281" />
            </Array>
            <mxPoint as="offset" />
          </mxGeometry>
        </mxCell>
        <mxCell id="Fgjv1uMBf7nxLm6j8Wb8-52" value="reduce likelihood" style="endArrow=open;endSize=12;dashed=1;html=1;rounded=0;entryX=0;entryY=0.25;entryDx=0;entryDy=0;exitX=1;exitY=1;exitDx=0;exitDy=0;" edge="1" parent="1" source="Fgjv1uMBf7nxLm6j8Wb8-48" target="Fgjv1uMBf7nxLm6j8Wb8-45">
          <mxGeometry x="-0.4108" y="-1" width="160" relative="1" as="geometry">
            <mxPoint x="147" y="239" as="sourcePoint" />
            <mxPoint x="440" y="369" as="targetPoint" />
            <Array as="points" />
            <mxPoint as="offset" />
          </mxGeometry>
        </mxCell>
        <mxCell id="Fgjv1uMBf7nxLm6j8Wb8-53" value="" style="group" vertex="1" connectable="0" parent="1">
          <mxGeometry x="-141" y="224.05" width="310" height="180" as="geometry" />
        </mxCell>
        <mxCell id="Fgjv1uMBf7nxLm6j8Wb8-54" value="&lt;p&gt;&lt;font&gt;&lt;span style=&quot;color: rgb(0, 29, 53); font-family: &amp;quot;Google Sans&amp;quot;, Arial, sans-serif; text-align: start; background-color: rgb(255, 255, 255);&quot; data-huuid=&quot;6132574578647353030&quot;&gt;Implement comprehensive training programs.&amp;nbsp;&lt;/span&gt;&lt;span style=&quot;color: rgb(0, 29, 53); font-family: &amp;quot;Google Sans&amp;quot;, Arial, sans-serif; text-align: start; background-color: rgb(255, 255, 255);&quot; data-huuid=&quot;6132574578647352743&quot;&gt;This involves regular training, interactive modules, and open communication channels to keep employees informed about evolving threats&lt;/span&gt;&lt;/font&gt;&lt;/p&gt;" style="ellipse;whiteSpace=wrap;html=1;" vertex="1" parent="Fgjv1uMBf7nxLm6j8Wb8-53">
          <mxGeometry y="38.77" width="310" height="101.23" as="geometry" />
        </mxCell>
        <mxCell id="Fgjv1uMBf7nxLm6j8Wb8-55" value="" style="shape=image;verticalLabelPosition=bottom;verticalAlign=top;imageAspect=0;aspect=fixed;image=data:image/svg+xml,PHN2ZyB4bWxucz0iaHR0cDovL3d3dy53My5vcmcvMjAwMC9zdmciIHhtbG5zOnhsaW5rPSImYW1wO25zX3hsaW5rOyIgeG1sOnNwYWNlPSJwcmVzZXJ2ZSIgb3ZlcmZsb3c9InZpc2libGUiIHZpZXdCb3g9IjAgLTAuMDAwODE4NDYxMTc5NzMzMjc2NCA0Ni4wMTMzNDc2MjU3MzI0MiAzOS4xMTMzODA0MzIxMjg5MDYiIGhlaWdodD0iMzkuMTEzMzgwNDMyMTI4OTA2IiB3aWR0aD0iNDYuMDEzMzQ3NjI1NzMyNDIiIGlkPSJMYXllcl8xIiB2ZXJzaW9uPSIxLjEiPiYjeGE7PGc+JiN4YTsJPGc+JiN4YTsJCTxwYXRoIGQ9Ik0xNi42MDYsNy43OThsMjcuMTcyLDIyLjA4OGMyLjEyOCwxLjczLDIuNDUxLDQuODU3LDAuNzIzLDYuOTg2JiMxMDsmIzk7JiM5OyYjOTtjLTEuNzMsMi4xMjktNC44NTksMi40NTMtNi45ODcsMC43MjNMMTMuNTAyLDE4LjA4MyBNNDEuMzgxLDMxLjk5Yy0wLjcyOS0wLjU5Mi0xLjc5Ny0wLjQ4MS0yLjM4NywwLjI0NSYjMTA7JiM5OyYjOTsmIzk7Yy0wLjU5MiwwLjcyOS0wLjQ4LDEuNzk3LDAuMjQ2LDIuMzg5YzAuNzI4LDAuNTksMS43OTgsMC40OCwyLjM4OS0wLjI0OEM0Mi4yMjEsMzMuNjQ5LDQyLjEwOCwzMi41ODEsNDEuMzgxLDMxLjk5eiIgZmlsbD0iIzY4QTUzOSIvPiYjeGE7CQk8cGF0aCBkPSJNMTYuNTg5LDguMzA2QzE3LjA1OCw4LjY4Nyw0My41MjIsMzAuMiw0My41MjIsMzAuMmMxLjEwNywwLjksMS42ODMsMi4yMTgsMS42ODMsMy41NDVjMCwxLjAxMS0wLjMzMywyLjAyOC0xLjAxOSwyLjg3MiYjMTA7JiM5OyYjOTsmIzk7Yy0wLjc2OSwwLjk0NS0xLjg2LDEuNTM2LTMuMDczLDEuNjYxYy0xLjIxMiwwLjEyNS0yLjM5OS0wLjIyOS0zLjM0NC0wLjk5OEwxMy43NTgsMTcuNzY5YzAsMCwwLjY0OC0yLjQxNCwxLjI5Ni00LjgyNyYjMTA7JiM5OyYjOTsmIzk7Yy0wLjkwMywyLjcyOC0xLjgwNyw1LjQ1Ni0xLjgwNyw1LjQ1NmwyNC4wMSwxOS41MTFjMS4xMTMsMC45MDQsMi41MTIsMS4zMjEsMy45MzgsMS4xNzVjMS40MjgtMC4xNDcsMi43MTMtMC44NDMsMy42MTktMS45NTYmIzEwOyYjOTsmIzk7JiM5O2MxLjg2Ni0yLjI5OSwxLjUxNi01LjY4OC0wLjc4MS03LjU1N0wxNi44NjEsNy40ODNDMTYuODYxLDcuNDgzLDE2LjYyNyw4LjE5MSwxNi41ODksOC4zMDZ6IE0xNS4wNTQsMTIuOTQyJiMxMDsmIzk7JiM5OyYjOTtjMC43NjgtMi4zMTgsMS4zMjEtMy45OSwxLjUzNS00LjYzNmMtMC4wMDQtMC4wMDMtMC4yMzgtMC4xOTQtMC4yMzgtMC4xOTRTMTUuNzAyLDEwLjUyNywxNS4wNTQsMTIuOTQyeiIvPiYjeGE7CQk8cGF0aCBkPSJNNDAuMDkzLDMxLjIxNmMtMC41NTksMC4wNTgtMS4wNiwwLjMyOS0xLjQxMywwLjc2NWMtMC43MywwLjg5OC0wLjU5NCwyLjIyNiwwLjMwNSwyLjk1OCYjMTA7JiM5OyYjOTsmIzk7YzAuOTAyLDAuNzMsMi4yMjksMC41OTMsMi45NTktMC4zMDhjMC4zNTQtMC40MzQsMC41MTctMC45NzksMC40NTktMS41MzdjLTAuMDU4LTAuNTU5LTAuMzI5LTEuMDYyLTAuNzY2LTEuNDE4bDAsMCYjMTA7JiM5OyYjOTsmIzk7QzQxLjIsMzEuMzIxLDQwLjY1MiwzMS4xNTgsNDAuMDkzLDMxLjIxNnogTTM5LjQ5NiwzNC4zMWMtMC41NTItMC40NDktMC42MzYtMS4yNjYtMC4xODctMS44MTgmIzEwOyYjOTsmIzk7JiM5O2MwLjIxNy0wLjI2OCwwLjUyNC0wLjQzNSwwLjg2Ny0wLjQ3YzAuMzQ0LTAuMDM2LDAuNjgxLDAuMDY0LDAuOTQ5LDAuMjgzczAuNDM3LDAuNTI4LDAuNDcyLDAuODcyJiMxMDsmIzk7JiM5OyYjOTtjMC4wMDUsMC4wNDUsMC4wMDcsMC4wOSwwLjAwNywwLjEzNGMwLDAuMjk1LTAuMTAxLDAuNTc4LTAuMjg5LDAuODFDNDAuODY2LDM0LjY3NCw0MC4wNSwzNC43NTksMzkuNDk2LDM0LjMxeiIvPiYjeGE7CTwvZz4mI3hhOwk8Zz4mI3hhOwkJPHBhdGggZD0iTTguNjkyLDUuMTYzbDEuNzQ5LDQuOTY2bC00LjAwOSwzLjY3NGwtNS44NS0xLjQ4JiMxMDsmIzk7JiM5OyYjOTtjMC44ODksMy4xMTYsMy4zNzIsNS43NjgsNi43NCw2LjYyNWM1LjAzNiwxLjI4LDEwLjE1OS0xLjc2NywxMS40NDEtNi44MDJjMS4yNzktNS4wMzktMS43NjctMTAuMTYxLTYuODA1LTExLjQ0MyYjMTA7JiM5OyYjOTsmIzk7QzguMzktMC4yMDUsNC44MTcsMS4wMTMsMi41NTgsMy42MTlMOC42OTIsNS4xNjN6IiBmaWxsPSIjNjhBNTM5Ii8+JiN4YTsJCTxwYXRoIGQ9Ik0yLjI1MiwzLjM1NEwxLjgyMSwzLjg1MWMwLDAsNi4xNjgsMS41NTMsNi41NjIsMS42NTJjMC4xMjUsMC4zNTcsMS40MzUsNC4wNzMsMS41ODgsNC41MDgmIzEwOyYjOTsmIzk7JiM5O2MtMC4zNDIsMC4zMTMtMy4zNjksMy4wODctMy42NSwzLjM0NkM1LjkyNiwxMy4yNTcsMCwxMS43NTcsMCwxMS43NTdsMC4xOTMsMC42NzZjMC45NzEsMy40MDMsMy42NjUsNi4wNSw3LjAzLDYuOTA2JiMxMDsmIzk7JiM5OyYjOTtjNS4yNDUsMS4zMzMsMTAuNTk4LTEuODUsMTEuOTM0LTcuMDk1YzEuMzMyLTUuMjQ3LTEuODUyLTEwLjYwMS03LjA5OC0xMS45MzZDOC40MzUtMC42MTEsNC42NzcsMC41NTUsMi4yNTIsMy4zNTR6IE0xMS44NiwxLjA5NSYjMTA7JiM5OyYjOTsmIzk7YzQuODEyLDEuMjI1LDcuNzM0LDYuMTM3LDYuNTEyLDEwLjk1MWMtMS4yMjYsNC44MTItNi4xMzcsNy43MzItMTAuOTQ5LDYuNTA5Yy0yLjg0LTAuNzIzLTUuMDk5LTIuODctNi4xNDYtNS42MzkmIzEwOyYjOTsmIzk7JiM5O2MxLjE4NSwwLjMsNS4yNjgsMS4zMzMsNS4yNjgsMS4zMzNsNC4zNjctNC4wMDNsLTEuOTEtNS40MjNjMCwwLTQuNTAyLTEuMTMzLTUuNjI1LTEuNDE2QzUuNTk4LDEuMjE4LDguNzY3LDAuMzA5LDExLjg2LDEuMDk1eiIvPiYjeGE7CTwvZz4mI3hhOwk8Zz4mI3hhOwkJPHJlY3QgaGVpZ2h0PSIwLjUiIHdpZHRoPSI2LjY4OSIgdHJhbnNmb3JtPSJtYXRyaXgoLTAuNTY4MiAtMC44MjI5IDAuODIyOSAtMC41NjgyIC0wLjU1NDkgMzIuODE4MikiIHk9IjE2LjMwNSIgeD0iNC45ODgiLz4mI3hhOwk8L2c+JiN4YTsJPGc+JiN4YTsJCTxnPiYjeGE7CQkJJiN4YTsJCQkJPHJlY3QgaGVpZ2h0PSI0LjU3NCIgd2lkdGg9IjcuMDAyIiBmaWxsPSIjNjhBNTM5IiB0cmFuc2Zvcm09Im1hdHJpeCgtMC4yMjcxIDAuOTczOSAtMC45NzM5IC0wLjIyNzEgMzIuMTg5MyAtMS4yMTcpIiB5PSI5Ljg3OCIgeD0iMTMuMDc3Ii8+JiN4YTsJCQk8cGF0aCBkPSJNMTQuNzUsOC4xNDVsLTEuNjgyLDcuMjEzbDUuMjQ0LDEuMjIybDEuNzc0LTcuNjA4TDE0Ljg0Miw3Ljc1TDE0Ljc1LDguMTQ1eiBNMTUuNDQ3LDguNzIzJiMxMDsmIzk7JiM5OyYjOTsmIzk7YzAuNTkyLDAuMTM4LDMuMDc1LDAuNzE2LDMuNjY3LDAuODU0Yy0wLjE1MywwLjY1Ny0xLjI1Myw1LjM3My0xLjQwNiw2LjAzYy0wLjU5MS0wLjEzOC0zLjA3NC0wLjcxNy0zLjY2Ni0wLjg1NCYjMTA7JiM5OyYjOTsmIzk7JiM5O0MxNC4xOTUsMTQuMDk2LDE1LjI5NCw5LjM4LDE1LjQ0Nyw4LjcyM3oiLz4mI3hhOwkJPC9nPiYjeGE7CQk8Zz4mI3hhOwkJCTxsaW5lIHkyPSIxMC44MDMiIHgyPSIxOS4xMDYiIHkxPSI5LjgyMSIgeDE9IjE0Ljk1NyIgZmlsbD0iIzY4QTUzOSIvPiYjeGE7CQkJPHJlY3QgaGVpZ2h0PSIwLjgxIiB3aWR0aD0iNC4yNjQiIHRyYW5zZm9ybT0ibWF0cml4KC0wLjk3MzEgLTAuMjMwMyAwLjIzMDMgLTAuOTczMSAzMS4yMyAyNC4yNjk0KSIgeT0iOS45MDciIHg9IjE0Ljg5OSIvPiYjeGE7CQk8L2c+JiN4YTsJCTxnPiYjeGE7CQkJPGxpbmUgeTI9IjEyLjA2OSIgeDI9IjE4LjkwMSIgeTE9IjExLjA0MiIgeDE9IjE0LjYyNyIgZmlsbD0iIzY4QTUzOSIvPiYjeGE7CQkJPHJlY3QgaGVpZ2h0PSIwLjgxIiB3aWR0aD0iNC4zOTUiIHRyYW5zZm9ybT0ibWF0cml4KC0wLjk3MjMgLTAuMjMzNyAwLjIzMzcgLTAuOTcyMyAzMC4zNjI5IDI2LjcwOTIpIiB5PSIxMS4xNSIgeD0iMTQuNTY3Ii8+JiN4YTsJCTwvZz4mI3hhOwkJPGc+JiN4YTsJCQk8bGluZSB5Mj0iMTMuMjkzIiB4Mj0iMTguNjc0IiB5MT0iMTIuMjYxIiB4MT0iMTQuMyIgZmlsbD0iIzY4QTUzOSIvPiYjeGE7CQkJPHJlY3QgaGVpZ2h0PSIwLjgxIiB3aWR0aD0iNC40OTQiIHRyYW5zZm9ybT0ibWF0cml4KC0wLjk3MzMgLTAuMjI5NiAwLjIyOTYgLTAuOTczMyAyOS42MDA5IDI4Ljk5ODEpIiB5PSIxMi4zNzIiIHg9IjE0LjI0Ii8+JiN4YTsJCTwvZz4mI3hhOwkJPGc+JiN4YTsJCQk8bGluZSB5Mj0iMTQuNTAzIiB4Mj0iMTguMzAzIiB5MT0iMTMuNDgxIiB4MT0iMTMuOTczIiBmaWxsPSIjNjhBNTM5Ii8+JiN4YTsJCQk8cmVjdCBoZWlnaHQ9IjAuODEiIHdpZHRoPSI0LjQ0OSIgdHJhbnNmb3JtPSJtYXRyaXgoLTAuOTczMiAtMC4yMjk4IDAuMjI5OCAtMC45NzMyIDI4LjYyODkgMzEuMzE4NikiIHk9IjEzLjU4NyIgeD0iMTMuOTE0Ii8+JiN4YTsJCTwvZz4mI3hhOwk8L2c+JiN4YTs8L2c+JiN4YTs8L3N2Zz4=;rotation=-25;" vertex="1" parent="Fgjv1uMBf7nxLm6j8Wb8-53">
          <mxGeometry x="131.15" y="20.03" width="44.59" height="37.8" as="geometry" />
        </mxCell>
        <mxCell id="Fgjv1uMBf7nxLm6j8Wb8-56" value="reduce likelihood" style="endArrow=open;endSize=12;dashed=1;html=1;rounded=0;exitX=0.971;exitY=0.664;exitDx=0;exitDy=0;exitPerimeter=0;entryX=0;entryY=0.25;entryDx=0;entryDy=0;" edge="1" parent="1" source="Fgjv1uMBf7nxLm6j8Wb8-54" target="Fgjv1uMBf7nxLm6j8Wb8-45">
          <mxGeometry x="-0.4108" y="-1" width="160" relative="1" as="geometry">
            <mxPoint x="-10" y="610" as="sourcePoint" />
            <mxPoint x="440" y="510" as="targetPoint" />
            <Array as="points" />
            <mxPoint as="offset" />
          </mxGeometry>
        </mxCell>
        <mxCell id="Fgjv1uMBf7nxLm6j8Wb8-59" value="" style="group" vertex="1" connectable="0" parent="1">
          <mxGeometry x="-130" y="410" width="190" height="120" as="geometry" />
        </mxCell>
        <mxCell id="Fgjv1uMBf7nxLm6j8Wb8-60" value="deploy security scanning tools, which keeps track and scan software inventory and notify if it finds any vulnerabilities &amp;amp;&lt;div&gt;fix them&lt;/div&gt;" style="ellipse;whiteSpace=wrap;html=1;" vertex="1" parent="Fgjv1uMBf7nxLm6j8Wb8-59">
          <mxGeometry x="-20" y="10" width="198.13" height="101.22" as="geometry" />
        </mxCell>
        <mxCell id="Fgjv1uMBf7nxLm6j8Wb8-61" value="" style="shape=image;verticalLabelPosition=bottom;verticalAlign=top;imageAspect=0;aspect=fixed;image=data:image/svg+xml,PHN2ZyB4bWxucz0iaHR0cDovL3d3dy53My5vcmcvMjAwMC9zdmciIHhtbG5zOnhsaW5rPSImYW1wO25zX3hsaW5rOyIgeG1sOnNwYWNlPSJwcmVzZXJ2ZSIgb3ZlcmZsb3c9InZpc2libGUiIHZpZXdCb3g9IjAgLTAuMDAwODE4NDYxMTc5NzMzMjc2NCA0Ni4wMTMzNDc2MjU3MzI0MiAzOS4xMTMzODA0MzIxMjg5MDYiIGhlaWdodD0iMzkuMTEzMzgwNDMyMTI4OTA2IiB3aWR0aD0iNDYuMDEzMzQ3NjI1NzMyNDIiIGlkPSJMYXllcl8xIiB2ZXJzaW9uPSIxLjEiPiYjeGE7PGc+JiN4YTsJPGc+JiN4YTsJCTxwYXRoIGQ9Ik0xNi42MDYsNy43OThsMjcuMTcyLDIyLjA4OGMyLjEyOCwxLjczLDIuNDUxLDQuODU3LDAuNzIzLDYuOTg2JiMxMDsmIzk7JiM5OyYjOTtjLTEuNzMsMi4xMjktNC44NTksMi40NTMtNi45ODcsMC43MjNMMTMuNTAyLDE4LjA4MyBNNDEuMzgxLDMxLjk5Yy0wLjcyOS0wLjU5Mi0xLjc5Ny0wLjQ4MS0yLjM4NywwLjI0NSYjMTA7JiM5OyYjOTsmIzk7Yy0wLjU5MiwwLjcyOS0wLjQ4LDEuNzk3LDAuMjQ2LDIuMzg5YzAuNzI4LDAuNTksMS43OTgsMC40OCwyLjM4OS0wLjI0OEM0Mi4yMjEsMzMuNjQ5LDQyLjEwOCwzMi41ODEsNDEuMzgxLDMxLjk5eiIgZmlsbD0iIzY4QTUzOSIvPiYjeGE7CQk8cGF0aCBkPSJNMTYuNTg5LDguMzA2QzE3LjA1OCw4LjY4Nyw0My41MjIsMzAuMiw0My41MjIsMzAuMmMxLjEwNywwLjksMS42ODMsMi4yMTgsMS42ODMsMy41NDVjMCwxLjAxMS0wLjMzMywyLjAyOC0xLjAxOSwyLjg3MiYjMTA7JiM5OyYjOTsmIzk7Yy0wLjc2OSwwLjk0NS0xLjg2LDEuNTM2LTMuMDczLDEuNjYxYy0xLjIxMiwwLjEyNS0yLjM5OS0wLjIyOS0zLjM0NC0wLjk5OEwxMy43NTgsMTcuNzY5YzAsMCwwLjY0OC0yLjQxNCwxLjI5Ni00LjgyNyYjMTA7JiM5OyYjOTsmIzk7Yy0wLjkwMywyLjcyOC0xLjgwNyw1LjQ1Ni0xLjgwNyw1LjQ1NmwyNC4wMSwxOS41MTFjMS4xMTMsMC45MDQsMi41MTIsMS4zMjEsMy45MzgsMS4xNzVjMS40MjgtMC4xNDcsMi43MTMtMC44NDMsMy42MTktMS45NTYmIzEwOyYjOTsmIzk7JiM5O2MxLjg2Ni0yLjI5OSwxLjUxNi01LjY4OC0wLjc4MS03LjU1N0wxNi44NjEsNy40ODNDMTYuODYxLDcuNDgzLDE2LjYyNyw4LjE5MSwxNi41ODksOC4zMDZ6IE0xNS4wNTQsMTIuOTQyJiMxMDsmIzk7JiM5OyYjOTtjMC43NjgtMi4zMTgsMS4zMjEtMy45OSwxLjUzNS00LjYzNmMtMC4wMDQtMC4wMDMtMC4yMzgtMC4xOTQtMC4yMzgtMC4xOTRTMTUuNzAyLDEwLjUyNywxNS4wNTQsMTIuOTQyeiIvPiYjeGE7CQk8cGF0aCBkPSJNNDAuMDkzLDMxLjIxNmMtMC41NTksMC4wNTgtMS4wNiwwLjMyOS0xLjQxMywwLjc2NWMtMC43MywwLjg5OC0wLjU5NCwyLjIyNiwwLjMwNSwyLjk1OCYjMTA7JiM5OyYjOTsmIzk7YzAuOTAyLDAuNzMsMi4yMjksMC41OTMsMi45NTktMC4zMDhjMC4zNTQtMC40MzQsMC41MTctMC45NzksMC40NTktMS41MzdjLTAuMDU4LTAuNTU5LTAuMzI5LTEuMDYyLTAuNzY2LTEuNDE4bDAsMCYjMTA7JiM5OyYjOTsmIzk7QzQxLjIsMzEuMzIxLDQwLjY1MiwzMS4xNTgsNDAuMDkzLDMxLjIxNnogTTM5LjQ5NiwzNC4zMWMtMC41NTItMC40NDktMC42MzYtMS4yNjYtMC4xODctMS44MTgmIzEwOyYjOTsmIzk7JiM5O2MwLjIxNy0wLjI2OCwwLjUyNC0wLjQzNSwwLjg2Ny0wLjQ3YzAuMzQ0LTAuMDM2LDAuNjgxLDAuMDY0LDAuOTQ5LDAuMjgzczAuNDM3LDAuNTI4LDAuNDcyLDAuODcyJiMxMDsmIzk7JiM5OyYjOTtjMC4wMDUsMC4wNDUsMC4wMDcsMC4wOSwwLjAwNywwLjEzNGMwLDAuMjk1LTAuMTAxLDAuNTc4LTAuMjg5LDAuODFDNDAuODY2LDM0LjY3NCw0MC4wNSwzNC43NTksMzkuNDk2LDM0LjMxeiIvPiYjeGE7CTwvZz4mI3hhOwk8Zz4mI3hhOwkJPHBhdGggZD0iTTguNjkyLDUuMTYzbDEuNzQ5LDQuOTY2bC00LjAwOSwzLjY3NGwtNS44NS0xLjQ4JiMxMDsmIzk7JiM5OyYjOTtjMC44ODksMy4xMTYsMy4zNzIsNS43NjgsNi43NCw2LjYyNWM1LjAzNiwxLjI4LDEwLjE1OS0xLjc2NywxMS40NDEtNi44MDJjMS4yNzktNS4wMzktMS43NjctMTAuMTYxLTYuODA1LTExLjQ0MyYjMTA7JiM5OyYjOTsmIzk7QzguMzktMC4yMDUsNC44MTcsMS4wMTMsMi41NTgsMy42MTlMOC42OTIsNS4xNjN6IiBmaWxsPSIjNjhBNTM5Ii8+JiN4YTsJCTxwYXRoIGQ9Ik0yLjI1MiwzLjM1NEwxLjgyMSwzLjg1MWMwLDAsNi4xNjgsMS41NTMsNi41NjIsMS42NTJjMC4xMjUsMC4zNTcsMS40MzUsNC4wNzMsMS41ODgsNC41MDgmIzEwOyYjOTsmIzk7JiM5O2MtMC4zNDIsMC4zMTMtMy4zNjksMy4wODctMy42NSwzLjM0NkM1LjkyNiwxMy4yNTcsMCwxMS43NTcsMCwxMS43NTdsMC4xOTMsMC42NzZjMC45NzEsMy40MDMsMy42NjUsNi4wNSw3LjAzLDYuOTA2JiMxMDsmIzk7JiM5OyYjOTtjNS4yNDUsMS4zMzMsMTAuNTk4LTEuODUsMTEuOTM0LTcuMDk1YzEuMzMyLTUuMjQ3LTEuODUyLTEwLjYwMS03LjA5OC0xMS45MzZDOC40MzUtMC42MTEsNC42NzcsMC41NTUsMi4yNTIsMy4zNTR6IE0xMS44NiwxLjA5NSYjMTA7JiM5OyYjOTsmIzk7YzQuODEyLDEuMjI1LDcuNzM0LDYuMTM3LDYuNTEyLDEwLjk1MWMtMS4yMjYsNC44MTItNi4xMzcsNy43MzItMTAuOTQ5LDYuNTA5Yy0yLjg0LTAuNzIzLTUuMDk5LTIuODctNi4xNDYtNS42MzkmIzEwOyYjOTsmIzk7JiM5O2MxLjE4NSwwLjMsNS4yNjgsMS4zMzMsNS4yNjgsMS4zMzNsNC4zNjctNC4wMDNsLTEuOTEtNS40MjNjMCwwLTQuNTAyLTEuMTMzLTUuNjI1LTEuNDE2QzUuNTk4LDEuMjE4LDguNzY3LDAuMzA5LDExLjg2LDEuMDk1eiIvPiYjeGE7CTwvZz4mI3hhOwk8Zz4mI3hhOwkJPHJlY3QgaGVpZ2h0PSIwLjUiIHdpZHRoPSI2LjY4OSIgdHJhbnNmb3JtPSJtYXRyaXgoLTAuNTY4MiAtMC44MjI5IDAuODIyOSAtMC41NjgyIC0wLjU1NDkgMzIuODE4MikiIHk9IjE2LjMwNSIgeD0iNC45ODgiLz4mI3hhOwk8L2c+JiN4YTsJPGc+JiN4YTsJCTxnPiYjeGE7CQkJJiN4YTsJCQkJPHJlY3QgaGVpZ2h0PSI0LjU3NCIgd2lkdGg9IjcuMDAyIiBmaWxsPSIjNjhBNTM5IiB0cmFuc2Zvcm09Im1hdHJpeCgtMC4yMjcxIDAuOTczOSAtMC45NzM5IC0wLjIyNzEgMzIuMTg5MyAtMS4yMTcpIiB5PSI5Ljg3OCIgeD0iMTMuMDc3Ii8+JiN4YTsJCQk8cGF0aCBkPSJNMTQuNzUsOC4xNDVsLTEuNjgyLDcuMjEzbDUuMjQ0LDEuMjIybDEuNzc0LTcuNjA4TDE0Ljg0Miw3Ljc1TDE0Ljc1LDguMTQ1eiBNMTUuNDQ3LDguNzIzJiMxMDsmIzk7JiM5OyYjOTsmIzk7YzAuNTkyLDAuMTM4LDMuMDc1LDAuNzE2LDMuNjY3LDAuODU0Yy0wLjE1MywwLjY1Ny0xLjI1Myw1LjM3My0xLjQwNiw2LjAzYy0wLjU5MS0wLjEzOC0zLjA3NC0wLjcxNy0zLjY2Ni0wLjg1NCYjMTA7JiM5OyYjOTsmIzk7JiM5O0MxNC4xOTUsMTQuMDk2LDE1LjI5NCw5LjM4LDE1LjQ0Nyw4LjcyM3oiLz4mI3hhOwkJPC9nPiYjeGE7CQk8Zz4mI3hhOwkJCTxsaW5lIHkyPSIxMC44MDMiIHgyPSIxOS4xMDYiIHkxPSI5LjgyMSIgeDE9IjE0Ljk1NyIgZmlsbD0iIzY4QTUzOSIvPiYjeGE7CQkJPHJlY3QgaGVpZ2h0PSIwLjgxIiB3aWR0aD0iNC4yNjQiIHRyYW5zZm9ybT0ibWF0cml4KC0wLjk3MzEgLTAuMjMwMyAwLjIzMDMgLTAuOTczMSAzMS4yMyAyNC4yNjk0KSIgeT0iOS45MDciIHg9IjE0Ljg5OSIvPiYjeGE7CQk8L2c+JiN4YTsJCTxnPiYjeGE7CQkJPGxpbmUgeTI9IjEyLjA2OSIgeDI9IjE4LjkwMSIgeTE9IjExLjA0MiIgeDE9IjE0LjYyNyIgZmlsbD0iIzY4QTUzOSIvPiYjeGE7CQkJPHJlY3QgaGVpZ2h0PSIwLjgxIiB3aWR0aD0iNC4zOTUiIHRyYW5zZm9ybT0ibWF0cml4KC0wLjk3MjMgLTAuMjMzNyAwLjIzMzcgLTAuOTcyMyAzMC4zNjI5IDI2LjcwOTIpIiB5PSIxMS4xNSIgeD0iMTQuNTY3Ii8+JiN4YTsJCTwvZz4mI3hhOwkJPGc+JiN4YTsJCQk8bGluZSB5Mj0iMTMuMjkzIiB4Mj0iMTguNjc0IiB5MT0iMTIuMjYxIiB4MT0iMTQuMyIgZmlsbD0iIzY4QTUzOSIvPiYjeGE7CQkJPHJlY3QgaGVpZ2h0PSIwLjgxIiB3aWR0aD0iNC40OTQiIHRyYW5zZm9ybT0ibWF0cml4KC0wLjk3MzMgLTAuMjI5NiAwLjIyOTYgLTAuOTczMyAyOS42MDA5IDI4Ljk5ODEpIiB5PSIxMi4zNzIiIHg9IjE0LjI0Ii8+JiN4YTsJCTwvZz4mI3hhOwkJPGc+JiN4YTsJCQk8bGluZSB5Mj0iMTQuNTAzIiB4Mj0iMTguMzAzIiB5MT0iMTMuNDgxIiB4MT0iMTMuOTczIiBmaWxsPSIjNjhBNTM5Ii8+JiN4YTsJCQk8cmVjdCBoZWlnaHQ9IjAuODEiIHdpZHRoPSI0LjQ0OSIgdHJhbnNmb3JtPSJtYXRyaXgoLTAuOTczMiAtMC4yMjk4IDAuMjI5OCAtMC45NzMyIDI4LjYyODkgMzEuMzE4NikiIHk9IjEzLjU4NyIgeD0iMTMuOTE0Ii8+JiN4YTsJCTwvZz4mI3hhOwk8L2c+JiN4YTs8L2c+JiN4YTs8L3N2Zz4=;rotation=-25;" vertex="1" parent="Fgjv1uMBf7nxLm6j8Wb8-59">
          <mxGeometry x="59.0625" y="-12.221073875840998" width="51.16169398288686" height="43.376218811577985" as="geometry" />
        </mxCell>
        <mxCell id="Fgjv1uMBf7nxLm6j8Wb8-62" value="reduce likelihood" style="endArrow=open;endSize=12;dashed=1;html=1;rounded=0;exitX=1;exitY=0.5;exitDx=0;exitDy=0;entryX=0;entryY=0.5;entryDx=0;entryDy=0;" edge="1" parent="1" source="Fgjv1uMBf7nxLm6j8Wb8-60" target="Fgjv1uMBf7nxLm6j8Wb8-10">
          <mxGeometry x="-0.8145" y="2" width="160" relative="1" as="geometry">
            <mxPoint x="-20" y="600" as="sourcePoint" />
            <mxPoint x="263" y="620" as="targetPoint" />
            <Array as="points" />
            <mxPoint as="offset" />
          </mxGeometry>
        </mxCell>
        <mxCell id="Fgjv1uMBf7nxLm6j8Wb8-63" value="reduce likelihood" style="endArrow=open;endSize=12;dashed=1;html=1;rounded=0;exitX=1;exitY=0.5;exitDx=0;exitDy=0;" edge="1" parent="1" source="Fgjv1uMBf7nxLm6j8Wb8-60">
          <mxGeometry x="-0.8145" y="2" width="160" relative="1" as="geometry">
            <mxPoint x="240" y="565" as="sourcePoint" />
            <mxPoint x="430" y="360" as="targetPoint" />
            <Array as="points" />
            <mxPoint as="offset" />
          </mxGeometry>
        </mxCell>
        <mxCell id="Fgjv1uMBf7nxLm6j8Wb8-64" value="reduce likelihood" style="endArrow=open;endSize=12;dashed=1;html=1;rounded=0;exitX=1;exitY=0.5;exitDx=0;exitDy=0;entryX=0;entryY=0.25;entryDx=0;entryDy=0;" edge="1" parent="1" source="Fgjv1uMBf7nxLm6j8Wb8-60" target="Fgjv1uMBf7nxLm6j8Wb8-20">
          <mxGeometry x="-0.8145" y="2" width="160" relative="1" as="geometry">
            <mxPoint x="200" y="531" as="sourcePoint" />
            <mxPoint x="582" y="420" as="targetPoint" />
            <Array as="points" />
            <mxPoint as="offset" />
          </mxGeometry>
        </mxCell>
        <mxCell id="Fgjv1uMBf7nxLm6j8Wb8-65" value="reduce likelihood" style="endArrow=open;endSize=12;dashed=1;html=1;rounded=0;entryX=0;entryY=0.25;entryDx=0;entryDy=0;exitX=1;exitY=0.5;exitDx=0;exitDy=0;" edge="1" parent="1" source="Fgjv1uMBf7nxLm6j8Wb8-60" target="Fgjv1uMBf7nxLm6j8Wb8-45">
          <mxGeometry x="-0.8145" y="2" width="160" relative="1" as="geometry">
            <mxPoint x="170" y="494" as="sourcePoint" />
            <mxPoint x="564" y="460" as="targetPoint" />
            <Array as="points" />
            <mxPoint as="offset" />
          </mxGeometry>
        </mxCell>
        <mxCell id="Fgjv1uMBf7nxLm6j8Wb8-66" value="reduce likelihood" style="endArrow=open;endSize=12;dashed=1;html=1;rounded=0;entryX=0;entryY=0.5;entryDx=0;entryDy=0;exitX=1;exitY=0.5;exitDx=0;exitDy=0;" edge="1" parent="1" source="Fgjv1uMBf7nxLm6j8Wb8-60" target="Fgjv1uMBf7nxLm6j8Wb8-16">
          <mxGeometry x="-0.8145" y="2" width="160" relative="1" as="geometry">
            <mxPoint x="220" y="490" as="sourcePoint" />
            <mxPoint x="613" y="546" as="targetPoint" />
            <Array as="points" />
            <mxPoint as="offset" />
          </mxGeometry>
        </mxCell>
        <mxCell id="Fgjv1uMBf7nxLm6j8Wb8-67" value="" style="group" vertex="1" connectable="0" parent="1">
          <mxGeometry x="-24" y="558" width="160" height="107.89322186725076" as="geometry" />
        </mxCell>
        <mxCell id="Fgjv1uMBf7nxLm6j8Wb8-68" value="scan and whitelist the incoming data before accessing database" style="ellipse;whiteSpace=wrap;html=1;" vertex="1" parent="Fgjv1uMBf7nxLm6j8Wb8-67">
          <mxGeometry y="27.89" width="150" height="72.11" as="geometry" />
        </mxCell>
        <mxCell id="Fgjv1uMBf7nxLm6j8Wb8-69" value="" style="shape=image;verticalLabelPosition=bottom;verticalAlign=top;imageAspect=0;aspect=fixed;image=data:image/svg+xml,PHN2ZyB4bWxucz0iaHR0cDovL3d3dy53My5vcmcvMjAwMC9zdmciIHhtbG5zOnhsaW5rPSImYW1wO25zX3hsaW5rOyIgeG1sOnNwYWNlPSJwcmVzZXJ2ZSIgb3ZlcmZsb3c9InZpc2libGUiIHZpZXdCb3g9IjAgLTAuMDAwODE4NDYxMTc5NzMzMjc2NCA0Ni4wMTMzNDc2MjU3MzI0MiAzOS4xMTMzODA0MzIxMjg5MDYiIGhlaWdodD0iMzkuMTEzMzgwNDMyMTI4OTA2IiB3aWR0aD0iNDYuMDEzMzQ3NjI1NzMyNDIiIGlkPSJMYXllcl8xIiB2ZXJzaW9uPSIxLjEiPiYjeGE7PGc+JiN4YTsJPGc+JiN4YTsJCTxwYXRoIGQ9Ik0xNi42MDYsNy43OThsMjcuMTcyLDIyLjA4OGMyLjEyOCwxLjczLDIuNDUxLDQuODU3LDAuNzIzLDYuOTg2JiMxMDsmIzk7JiM5OyYjOTtjLTEuNzMsMi4xMjktNC44NTksMi40NTMtNi45ODcsMC43MjNMMTMuNTAyLDE4LjA4MyBNNDEuMzgxLDMxLjk5Yy0wLjcyOS0wLjU5Mi0xLjc5Ny0wLjQ4MS0yLjM4NywwLjI0NSYjMTA7JiM5OyYjOTsmIzk7Yy0wLjU5MiwwLjcyOS0wLjQ4LDEuNzk3LDAuMjQ2LDIuMzg5YzAuNzI4LDAuNTksMS43OTgsMC40OCwyLjM4OS0wLjI0OEM0Mi4yMjEsMzMuNjQ5LDQyLjEwOCwzMi41ODEsNDEuMzgxLDMxLjk5eiIgZmlsbD0iIzY4QTUzOSIvPiYjeGE7CQk8cGF0aCBkPSJNMTYuNTg5LDguMzA2QzE3LjA1OCw4LjY4Nyw0My41MjIsMzAuMiw0My41MjIsMzAuMmMxLjEwNywwLjksMS42ODMsMi4yMTgsMS42ODMsMy41NDVjMCwxLjAxMS0wLjMzMywyLjAyOC0xLjAxOSwyLjg3MiYjMTA7JiM5OyYjOTsmIzk7Yy0wLjc2OSwwLjk0NS0xLjg2LDEuNTM2LTMuMDczLDEuNjYxYy0xLjIxMiwwLjEyNS0yLjM5OS0wLjIyOS0zLjM0NC0wLjk5OEwxMy43NTgsMTcuNzY5YzAsMCwwLjY0OC0yLjQxNCwxLjI5Ni00LjgyNyYjMTA7JiM5OyYjOTsmIzk7Yy0wLjkwMywyLjcyOC0xLjgwNyw1LjQ1Ni0xLjgwNyw1LjQ1NmwyNC4wMSwxOS41MTFjMS4xMTMsMC45MDQsMi41MTIsMS4zMjEsMy45MzgsMS4xNzVjMS40MjgtMC4xNDcsMi43MTMtMC44NDMsMy42MTktMS45NTYmIzEwOyYjOTsmIzk7JiM5O2MxLjg2Ni0yLjI5OSwxLjUxNi01LjY4OC0wLjc4MS03LjU1N0wxNi44NjEsNy40ODNDMTYuODYxLDcuNDgzLDE2LjYyNyw4LjE5MSwxNi41ODksOC4zMDZ6IE0xNS4wNTQsMTIuOTQyJiMxMDsmIzk7JiM5OyYjOTtjMC43NjgtMi4zMTgsMS4zMjEtMy45OSwxLjUzNS00LjYzNmMtMC4wMDQtMC4wMDMtMC4yMzgtMC4xOTQtMC4yMzgtMC4xOTRTMTUuNzAyLDEwLjUyNywxNS4wNTQsMTIuOTQyeiIvPiYjeGE7CQk8cGF0aCBkPSJNNDAuMDkzLDMxLjIxNmMtMC41NTksMC4wNTgtMS4wNiwwLjMyOS0xLjQxMywwLjc2NWMtMC43MywwLjg5OC0wLjU5NCwyLjIyNiwwLjMwNSwyLjk1OCYjMTA7JiM5OyYjOTsmIzk7YzAuOTAyLDAuNzMsMi4yMjksMC41OTMsMi45NTktMC4zMDhjMC4zNTQtMC40MzQsMC41MTctMC45NzksMC40NTktMS41MzdjLTAuMDU4LTAuNTU5LTAuMzI5LTEuMDYyLTAuNzY2LTEuNDE4bDAsMCYjMTA7JiM5OyYjOTsmIzk7QzQxLjIsMzEuMzIxLDQwLjY1MiwzMS4xNTgsNDAuMDkzLDMxLjIxNnogTTM5LjQ5NiwzNC4zMWMtMC41NTItMC40NDktMC42MzYtMS4yNjYtMC4xODctMS44MTgmIzEwOyYjOTsmIzk7JiM5O2MwLjIxNy0wLjI2OCwwLjUyNC0wLjQzNSwwLjg2Ny0wLjQ3YzAuMzQ0LTAuMDM2LDAuNjgxLDAuMDY0LDAuOTQ5LDAuMjgzczAuNDM3LDAuNTI4LDAuNDcyLDAuODcyJiMxMDsmIzk7JiM5OyYjOTtjMC4wMDUsMC4wNDUsMC4wMDcsMC4wOSwwLjAwNywwLjEzNGMwLDAuMjk1LTAuMTAxLDAuNTc4LTAuMjg5LDAuODFDNDAuODY2LDM0LjY3NCw0MC4wNSwzNC43NTksMzkuNDk2LDM0LjMxeiIvPiYjeGE7CTwvZz4mI3hhOwk8Zz4mI3hhOwkJPHBhdGggZD0iTTguNjkyLDUuMTYzbDEuNzQ5LDQuOTY2bC00LjAwOSwzLjY3NGwtNS44NS0xLjQ4JiMxMDsmIzk7JiM5OyYjOTtjMC44ODksMy4xMTYsMy4zNzIsNS43NjgsNi43NCw2LjYyNWM1LjAzNiwxLjI4LDEwLjE1OS0xLjc2NywxMS40NDEtNi44MDJjMS4yNzktNS4wMzktMS43NjctMTAuMTYxLTYuODA1LTExLjQ0MyYjMTA7JiM5OyYjOTsmIzk7QzguMzktMC4yMDUsNC44MTcsMS4wMTMsMi41NTgsMy42MTlMOC42OTIsNS4xNjN6IiBmaWxsPSIjNjhBNTM5Ii8+JiN4YTsJCTxwYXRoIGQ9Ik0yLjI1MiwzLjM1NEwxLjgyMSwzLjg1MWMwLDAsNi4xNjgsMS41NTMsNi41NjIsMS42NTJjMC4xMjUsMC4zNTcsMS40MzUsNC4wNzMsMS41ODgsNC41MDgmIzEwOyYjOTsmIzk7JiM5O2MtMC4zNDIsMC4zMTMtMy4zNjksMy4wODctMy42NSwzLjM0NkM1LjkyNiwxMy4yNTcsMCwxMS43NTcsMCwxMS43NTdsMC4xOTMsMC42NzZjMC45NzEsMy40MDMsMy42NjUsNi4wNSw3LjAzLDYuOTA2JiMxMDsmIzk7JiM5OyYjOTtjNS4yNDUsMS4zMzMsMTAuNTk4LTEuODUsMTEuOTM0LTcuMDk1YzEuMzMyLTUuMjQ3LTEuODUyLTEwLjYwMS03LjA5OC0xMS45MzZDOC40MzUtMC42MTEsNC42NzcsMC41NTUsMi4yNTIsMy4zNTR6IE0xMS44NiwxLjA5NSYjMTA7JiM5OyYjOTsmIzk7YzQuODEyLDEuMjI1LDcuNzM0LDYuMTM3LDYuNTEyLDEwLjk1MWMtMS4yMjYsNC44MTItNi4xMzcsNy43MzItMTAuOTQ5LDYuNTA5Yy0yLjg0LTAuNzIzLTUuMDk5LTIuODctNi4xNDYtNS42MzkmIzEwOyYjOTsmIzk7JiM5O2MxLjE4NSwwLjMsNS4yNjgsMS4zMzMsNS4yNjgsMS4zMzNsNC4zNjctNC4wMDNsLTEuOTEtNS40MjNjMCwwLTQuNTAyLTEuMTMzLTUuNjI1LTEuNDE2QzUuNTk4LDEuMjE4LDguNzY3LDAuMzA5LDExLjg2LDEuMDk1eiIvPiYjeGE7CTwvZz4mI3hhOwk8Zz4mI3hhOwkJPHJlY3QgaGVpZ2h0PSIwLjUiIHdpZHRoPSI2LjY4OSIgdHJhbnNmb3JtPSJtYXRyaXgoLTAuNTY4MiAtMC44MjI5IDAuODIyOSAtMC41NjgyIC0wLjU1NDkgMzIuODE4MikiIHk9IjE2LjMwNSIgeD0iNC45ODgiLz4mI3hhOwk8L2c+JiN4YTsJPGc+JiN4YTsJCTxnPiYjeGE7CQkJJiN4YTsJCQkJPHJlY3QgaGVpZ2h0PSI0LjU3NCIgd2lkdGg9IjcuMDAyIiBmaWxsPSIjNjhBNTM5IiB0cmFuc2Zvcm09Im1hdHJpeCgtMC4yMjcxIDAuOTczOSAtMC45NzM5IC0wLjIyNzEgMzIuMTg5MyAtMS4yMTcpIiB5PSI5Ljg3OCIgeD0iMTMuMDc3Ii8+JiN4YTsJCQk8cGF0aCBkPSJNMTQuNzUsOC4xNDVsLTEuNjgyLDcuMjEzbDUuMjQ0LDEuMjIybDEuNzc0LTcuNjA4TDE0Ljg0Miw3Ljc1TDE0Ljc1LDguMTQ1eiBNMTUuNDQ3LDguNzIzJiMxMDsmIzk7JiM5OyYjOTsmIzk7YzAuNTkyLDAuMTM4LDMuMDc1LDAuNzE2LDMuNjY3LDAuODU0Yy0wLjE1MywwLjY1Ny0xLjI1Myw1LjM3My0xLjQwNiw2LjAzYy0wLjU5MS0wLjEzOC0zLjA3NC0wLjcxNy0zLjY2Ni0wLjg1NCYjMTA7JiM5OyYjOTsmIzk7JiM5O0MxNC4xOTUsMTQuMDk2LDE1LjI5NCw5LjM4LDE1LjQ0Nyw4LjcyM3oiLz4mI3hhOwkJPC9nPiYjeGE7CQk8Zz4mI3hhOwkJCTxsaW5lIHkyPSIxMC44MDMiIHgyPSIxOS4xMDYiIHkxPSI5LjgyMSIgeDE9IjE0Ljk1NyIgZmlsbD0iIzY4QTUzOSIvPiYjeGE7CQkJPHJlY3QgaGVpZ2h0PSIwLjgxIiB3aWR0aD0iNC4yNjQiIHRyYW5zZm9ybT0ibWF0cml4KC0wLjk3MzEgLTAuMjMwMyAwLjIzMDMgLTAuOTczMSAzMS4yMyAyNC4yNjk0KSIgeT0iOS45MDciIHg9IjE0Ljg5OSIvPiYjeGE7CQk8L2c+JiN4YTsJCTxnPiYjeGE7CQkJPGxpbmUgeTI9IjEyLjA2OSIgeDI9IjE4LjkwMSIgeTE9IjExLjA0MiIgeDE9IjE0LjYyNyIgZmlsbD0iIzY4QTUzOSIvPiYjeGE7CQkJPHJlY3QgaGVpZ2h0PSIwLjgxIiB3aWR0aD0iNC4zOTUiIHRyYW5zZm9ybT0ibWF0cml4KC0wLjk3MjMgLTAuMjMzNyAwLjIzMzcgLTAuOTcyMyAzMC4zNjI5IDI2LjcwOTIpIiB5PSIxMS4xNSIgeD0iMTQuNTY3Ii8+JiN4YTsJCTwvZz4mI3hhOwkJPGc+JiN4YTsJCQk8bGluZSB5Mj0iMTMuMjkzIiB4Mj0iMTguNjc0IiB5MT0iMTIuMjYxIiB4MT0iMTQuMyIgZmlsbD0iIzY4QTUzOSIvPiYjeGE7CQkJPHJlY3QgaGVpZ2h0PSIwLjgxIiB3aWR0aD0iNC40OTQiIHRyYW5zZm9ybT0ibWF0cml4KC0wLjk3MzMgLTAuMjI5NiAwLjIyOTYgLTAuOTczMyAyOS42MDA5IDI4Ljk5ODEpIiB5PSIxMi4zNzIiIHg9IjE0LjI0Ii8+JiN4YTsJCTwvZz4mI3hhOwkJPGc+JiN4YTsJCQk8bGluZSB5Mj0iMTQuNTAzIiB4Mj0iMTguMzAzIiB5MT0iMTMuNDgxIiB4MT0iMTMuOTczIiBmaWxsPSIjNjhBNTM5Ii8+JiN4YTsJCQk8cmVjdCBoZWlnaHQ9IjAuODEiIHdpZHRoPSI0LjQ0OSIgdHJhbnNmb3JtPSJtYXRyaXgoLTAuOTczMiAtMC4yMjk4IDAuMjI5OCAtMC45NzMyIDI4LjYyODkgMzEuMzE4NikiIHk9IjEzLjU4NyIgeD0iMTMuOTE0Ii8+JiN4YTsJCTwvZz4mI3hhOwk8L2c+JiN4YTs8L2c+JiN4YTs8L3N2Zz4=;rotation=-25;" vertex="1" parent="Fgjv1uMBf7nxLm6j8Wb8-67">
          <mxGeometry x="59" y="7.893221867250759" width="46" height="39" as="geometry" />
        </mxCell>
        <mxCell id="Fgjv1uMBf7nxLm6j8Wb8-71" value="reduce likelihood" style="endArrow=open;endSize=12;dashed=1;html=1;rounded=0;entryX=0;entryY=0.25;entryDx=0;entryDy=0;exitX=1;exitY=0;exitDx=0;exitDy=0;" edge="1" parent="1" source="Fgjv1uMBf7nxLm6j8Wb8-68" target="Fgjv1uMBf7nxLm6j8Wb8-45">
          <mxGeometry x="-0.8145" y="2" width="160" relative="1" as="geometry">
            <mxPoint x="150" y="510" as="sourcePoint" />
            <mxPoint x="549" y="700" as="targetPoint" />
            <Array as="points" />
            <mxPoint as="offset" />
          </mxGeometry>
        </mxCell>
        <mxCell id="Fgjv1uMBf7nxLm6j8Wb8-72" value="" style="group" vertex="1" connectable="0" parent="1">
          <mxGeometry x="265" y="665.89" width="160" height="107.89322186725076" as="geometry" />
        </mxCell>
        <mxCell id="Fgjv1uMBf7nxLm6j8Wb8-73" value="take necessary steps&amp;nbsp;&lt;div&gt;to keep antivirus&lt;/div&gt;&lt;div&gt;up to date&amp;nbsp;&lt;/div&gt;" style="ellipse;whiteSpace=wrap;html=1;" vertex="1" parent="Fgjv1uMBf7nxLm6j8Wb8-72">
          <mxGeometry y="27.89" width="150" height="72.11" as="geometry" />
        </mxCell>
        <mxCell id="Fgjv1uMBf7nxLm6j8Wb8-74" value="" style="shape=image;verticalLabelPosition=bottom;verticalAlign=top;imageAspect=0;aspect=fixed;image=data:image/svg+xml,PHN2ZyB4bWxucz0iaHR0cDovL3d3dy53My5vcmcvMjAwMC9zdmciIHhtbG5zOnhsaW5rPSImYW1wO25zX3hsaW5rOyIgeG1sOnNwYWNlPSJwcmVzZXJ2ZSIgb3ZlcmZsb3c9InZpc2libGUiIHZpZXdCb3g9IjAgLTAuMDAwODE4NDYxMTc5NzMzMjc2NCA0Ni4wMTMzNDc2MjU3MzI0MiAzOS4xMTMzODA0MzIxMjg5MDYiIGhlaWdodD0iMzkuMTEzMzgwNDMyMTI4OTA2IiB3aWR0aD0iNDYuMDEzMzQ3NjI1NzMyNDIiIGlkPSJMYXllcl8xIiB2ZXJzaW9uPSIxLjEiPiYjeGE7PGc+JiN4YTsJPGc+JiN4YTsJCTxwYXRoIGQ9Ik0xNi42MDYsNy43OThsMjcuMTcyLDIyLjA4OGMyLjEyOCwxLjczLDIuNDUxLDQuODU3LDAuNzIzLDYuOTg2JiMxMDsmIzk7JiM5OyYjOTtjLTEuNzMsMi4xMjktNC44NTksMi40NTMtNi45ODcsMC43MjNMMTMuNTAyLDE4LjA4MyBNNDEuMzgxLDMxLjk5Yy0wLjcyOS0wLjU5Mi0xLjc5Ny0wLjQ4MS0yLjM4NywwLjI0NSYjMTA7JiM5OyYjOTsmIzk7Yy0wLjU5MiwwLjcyOS0wLjQ4LDEuNzk3LDAuMjQ2LDIuMzg5YzAuNzI4LDAuNTksMS43OTgsMC40OCwyLjM4OS0wLjI0OEM0Mi4yMjEsMzMuNjQ5LDQyLjEwOCwzMi41ODEsNDEuMzgxLDMxLjk5eiIgZmlsbD0iIzY4QTUzOSIvPiYjeGE7CQk8cGF0aCBkPSJNMTYuNTg5LDguMzA2QzE3LjA1OCw4LjY4Nyw0My41MjIsMzAuMiw0My41MjIsMzAuMmMxLjEwNywwLjksMS42ODMsMi4yMTgsMS42ODMsMy41NDVjMCwxLjAxMS0wLjMzMywyLjAyOC0xLjAxOSwyLjg3MiYjMTA7JiM5OyYjOTsmIzk7Yy0wLjc2OSwwLjk0NS0xLjg2LDEuNTM2LTMuMDczLDEuNjYxYy0xLjIxMiwwLjEyNS0yLjM5OS0wLjIyOS0zLjM0NC0wLjk5OEwxMy43NTgsMTcuNzY5YzAsMCwwLjY0OC0yLjQxNCwxLjI5Ni00LjgyNyYjMTA7JiM5OyYjOTsmIzk7Yy0wLjkwMywyLjcyOC0xLjgwNyw1LjQ1Ni0xLjgwNyw1LjQ1NmwyNC4wMSwxOS41MTFjMS4xMTMsMC45MDQsMi41MTIsMS4zMjEsMy45MzgsMS4xNzVjMS40MjgtMC4xNDcsMi43MTMtMC44NDMsMy42MTktMS45NTYmIzEwOyYjOTsmIzk7JiM5O2MxLjg2Ni0yLjI5OSwxLjUxNi01LjY4OC0wLjc4MS03LjU1N0wxNi44NjEsNy40ODNDMTYuODYxLDcuNDgzLDE2LjYyNyw4LjE5MSwxNi41ODksOC4zMDZ6IE0xNS4wNTQsMTIuOTQyJiMxMDsmIzk7JiM5OyYjOTtjMC43NjgtMi4zMTgsMS4zMjEtMy45OSwxLjUzNS00LjYzNmMtMC4wMDQtMC4wMDMtMC4yMzgtMC4xOTQtMC4yMzgtMC4xOTRTMTUuNzAyLDEwLjUyNywxNS4wNTQsMTIuOTQyeiIvPiYjeGE7CQk8cGF0aCBkPSJNNDAuMDkzLDMxLjIxNmMtMC41NTksMC4wNTgtMS4wNiwwLjMyOS0xLjQxMywwLjc2NWMtMC43MywwLjg5OC0wLjU5NCwyLjIyNiwwLjMwNSwyLjk1OCYjMTA7JiM5OyYjOTsmIzk7YzAuOTAyLDAuNzMsMi4yMjksMC41OTMsMi45NTktMC4zMDhjMC4zNTQtMC40MzQsMC41MTctMC45NzksMC40NTktMS41MzdjLTAuMDU4LTAuNTU5LTAuMzI5LTEuMDYyLTAuNzY2LTEuNDE4bDAsMCYjMTA7JiM5OyYjOTsmIzk7QzQxLjIsMzEuMzIxLDQwLjY1MiwzMS4xNTgsNDAuMDkzLDMxLjIxNnogTTM5LjQ5NiwzNC4zMWMtMC41NTItMC40NDktMC42MzYtMS4yNjYtMC4xODctMS44MTgmIzEwOyYjOTsmIzk7JiM5O2MwLjIxNy0wLjI2OCwwLjUyNC0wLjQzNSwwLjg2Ny0wLjQ3YzAuMzQ0LTAuMDM2LDAuNjgxLDAuMDY0LDAuOTQ5LDAuMjgzczAuNDM3LDAuNTI4LDAuNDcyLDAuODcyJiMxMDsmIzk7JiM5OyYjOTtjMC4wMDUsMC4wNDUsMC4wMDcsMC4wOSwwLjAwNywwLjEzNGMwLDAuMjk1LTAuMTAxLDAuNTc4LTAuMjg5LDAuODFDNDAuODY2LDM0LjY3NCw0MC4wNSwzNC43NTksMzkuNDk2LDM0LjMxeiIvPiYjeGE7CTwvZz4mI3hhOwk8Zz4mI3hhOwkJPHBhdGggZD0iTTguNjkyLDUuMTYzbDEuNzQ5LDQuOTY2bC00LjAwOSwzLjY3NGwtNS44NS0xLjQ4JiMxMDsmIzk7JiM5OyYjOTtjMC44ODksMy4xMTYsMy4zNzIsNS43NjgsNi43NCw2LjYyNWM1LjAzNiwxLjI4LDEwLjE1OS0xLjc2NywxMS40NDEtNi44MDJjMS4yNzktNS4wMzktMS43NjctMTAuMTYxLTYuODA1LTExLjQ0MyYjMTA7JiM5OyYjOTsmIzk7QzguMzktMC4yMDUsNC44MTcsMS4wMTMsMi41NTgsMy42MTlMOC42OTIsNS4xNjN6IiBmaWxsPSIjNjhBNTM5Ii8+JiN4YTsJCTxwYXRoIGQ9Ik0yLjI1MiwzLjM1NEwxLjgyMSwzLjg1MWMwLDAsNi4xNjgsMS41NTMsNi41NjIsMS42NTJjMC4xMjUsMC4zNTcsMS40MzUsNC4wNzMsMS41ODgsNC41MDgmIzEwOyYjOTsmIzk7JiM5O2MtMC4zNDIsMC4zMTMtMy4zNjksMy4wODctMy42NSwzLjM0NkM1LjkyNiwxMy4yNTcsMCwxMS43NTcsMCwxMS43NTdsMC4xOTMsMC42NzZjMC45NzEsMy40MDMsMy42NjUsNi4wNSw3LjAzLDYuOTA2JiMxMDsmIzk7JiM5OyYjOTtjNS4yNDUsMS4zMzMsMTAuNTk4LTEuODUsMTEuOTM0LTcuMDk1YzEuMzMyLTUuMjQ3LTEuODUyLTEwLjYwMS03LjA5OC0xMS45MzZDOC40MzUtMC42MTEsNC42NzcsMC41NTUsMi4yNTIsMy4zNTR6IE0xMS44NiwxLjA5NSYjMTA7JiM5OyYjOTsmIzk7YzQuODEyLDEuMjI1LDcuNzM0LDYuMTM3LDYuNTEyLDEwLjk1MWMtMS4yMjYsNC44MTItNi4xMzcsNy43MzItMTAuOTQ5LDYuNTA5Yy0yLjg0LTAuNzIzLTUuMDk5LTIuODctNi4xNDYtNS42MzkmIzEwOyYjOTsmIzk7JiM5O2MxLjE4NSwwLjMsNS4yNjgsMS4zMzMsNS4yNjgsMS4zMzNsNC4zNjctNC4wMDNsLTEuOTEtNS40MjNjMCwwLTQuNTAyLTEuMTMzLTUuNjI1LTEuNDE2QzUuNTk4LDEuMjE4LDguNzY3LDAuMzA5LDExLjg2LDEuMDk1eiIvPiYjeGE7CTwvZz4mI3hhOwk8Zz4mI3hhOwkJPHJlY3QgaGVpZ2h0PSIwLjUiIHdpZHRoPSI2LjY4OSIgdHJhbnNmb3JtPSJtYXRyaXgoLTAuNTY4MiAtMC44MjI5IDAuODIyOSAtMC41NjgyIC0wLjU1NDkgMzIuODE4MikiIHk9IjE2LjMwNSIgeD0iNC45ODgiLz4mI3hhOwk8L2c+JiN4YTsJPGc+JiN4YTsJCTxnPiYjeGE7CQkJJiN4YTsJCQkJPHJlY3QgaGVpZ2h0PSI0LjU3NCIgd2lkdGg9IjcuMDAyIiBmaWxsPSIjNjhBNTM5IiB0cmFuc2Zvcm09Im1hdHJpeCgtMC4yMjcxIDAuOTczOSAtMC45NzM5IC0wLjIyNzEgMzIuMTg5MyAtMS4yMTcpIiB5PSI5Ljg3OCIgeD0iMTMuMDc3Ii8+JiN4YTsJCQk8cGF0aCBkPSJNMTQuNzUsOC4xNDVsLTEuNjgyLDcuMjEzbDUuMjQ0LDEuMjIybDEuNzc0LTcuNjA4TDE0Ljg0Miw3Ljc1TDE0Ljc1LDguMTQ1eiBNMTUuNDQ3LDguNzIzJiMxMDsmIzk7JiM5OyYjOTsmIzk7YzAuNTkyLDAuMTM4LDMuMDc1LDAuNzE2LDMuNjY3LDAuODU0Yy0wLjE1MywwLjY1Ny0xLjI1Myw1LjM3My0xLjQwNiw2LjAzYy0wLjU5MS0wLjEzOC0zLjA3NC0wLjcxNy0zLjY2Ni0wLjg1NCYjMTA7JiM5OyYjOTsmIzk7JiM5O0MxNC4xOTUsMTQuMDk2LDE1LjI5NCw5LjM4LDE1LjQ0Nyw4LjcyM3oiLz4mI3hhOwkJPC9nPiYjeGE7CQk8Zz4mI3hhOwkJCTxsaW5lIHkyPSIxMC44MDMiIHgyPSIxOS4xMDYiIHkxPSI5LjgyMSIgeDE9IjE0Ljk1NyIgZmlsbD0iIzY4QTUzOSIvPiYjeGE7CQkJPHJlY3QgaGVpZ2h0PSIwLjgxIiB3aWR0aD0iNC4yNjQiIHRyYW5zZm9ybT0ibWF0cml4KC0wLjk3MzEgLTAuMjMwMyAwLjIzMDMgLTAuOTczMSAzMS4yMyAyNC4yNjk0KSIgeT0iOS45MDciIHg9IjE0Ljg5OSIvPiYjeGE7CQk8L2c+JiN4YTsJCTxnPiYjeGE7CQkJPGxpbmUgeTI9IjEyLjA2OSIgeDI9IjE4LjkwMSIgeTE9IjExLjA0MiIgeDE9IjE0LjYyNyIgZmlsbD0iIzY4QTUzOSIvPiYjeGE7CQkJPHJlY3QgaGVpZ2h0PSIwLjgxIiB3aWR0aD0iNC4zOTUiIHRyYW5zZm9ybT0ibWF0cml4KC0wLjk3MjMgLTAuMjMzNyAwLjIzMzcgLTAuOTcyMyAzMC4zNjI5IDI2LjcwOTIpIiB5PSIxMS4xNSIgeD0iMTQuNTY3Ii8+JiN4YTsJCTwvZz4mI3hhOwkJPGc+JiN4YTsJCQk8bGluZSB5Mj0iMTMuMjkzIiB4Mj0iMTguNjc0IiB5MT0iMTIuMjYxIiB4MT0iMTQuMyIgZmlsbD0iIzY4QTUzOSIvPiYjeGE7CQkJPHJlY3QgaGVpZ2h0PSIwLjgxIiB3aWR0aD0iNC40OTQiIHRyYW5zZm9ybT0ibWF0cml4KC0wLjk3MzMgLTAuMjI5NiAwLjIyOTYgLTAuOTczMyAyOS42MDA5IDI4Ljk5ODEpIiB5PSIxMi4zNzIiIHg9IjE0LjI0Ii8+JiN4YTsJCTwvZz4mI3hhOwkJPGc+JiN4YTsJCQk8bGluZSB5Mj0iMTQuNTAzIiB4Mj0iMTguMzAzIiB5MT0iMTMuNDgxIiB4MT0iMTMuOTczIiBmaWxsPSIjNjhBNTM5Ii8+JiN4YTsJCQk8cmVjdCBoZWlnaHQ9IjAuODEiIHdpZHRoPSI0LjQ0OSIgdHJhbnNmb3JtPSJtYXRyaXgoLTAuOTczMiAtMC4yMjk4IDAuMjI5OCAtMC45NzMyIDI4LjYyODkgMzEuMzE4NikiIHk9IjEzLjU4NyIgeD0iMTMuOTE0Ii8+JiN4YTsJCTwvZz4mI3hhOwk8L2c+JiN4YTs8L2c+JiN4YTs8L3N2Zz4=;rotation=-25;" vertex="1" parent="Fgjv1uMBf7nxLm6j8Wb8-72">
          <mxGeometry x="59" y="7.893221867250759" width="46" height="39" as="geometry" />
        </mxCell>
        <mxCell id="Fgjv1uMBf7nxLm6j8Wb8-76" value="reduce likelihood" style="endArrow=open;endSize=12;dashed=1;html=1;rounded=0;entryX=0.008;entryY=0.389;entryDx=0;entryDy=0;exitX=0.213;exitY=0.128;exitDx=0;exitDy=0;exitPerimeter=0;entryPerimeter=0;" edge="1" parent="1" source="Fgjv1uMBf7nxLm6j8Wb8-73" target="Fgjv1uMBf7nxLm6j8Wb8-10">
          <mxGeometry x="-0.8145" y="2" width="160" relative="1" as="geometry">
            <mxPoint x="450" y="799" as="sourcePoint" />
            <mxPoint x="787" y="730" as="targetPoint" />
            <Array as="points" />
            <mxPoint as="offset" />
          </mxGeometry>
        </mxCell>
        <mxCell id="Fgjv1uMBf7nxLm6j8Wb8-77" value="reduce likelihood" style="endArrow=open;endSize=12;dashed=1;html=1;rounded=0;exitX=0.2;exitY=0.142;exitDx=0;exitDy=0;exitPerimeter=0;entryX=0.021;entryY=0.397;entryDx=0;entryDy=0;entryPerimeter=0;" edge="1" parent="1" source="Fgjv1uMBf7nxLm6j8Wb8-73" target="Fgjv1uMBf7nxLm6j8Wb8-32">
          <mxGeometry x="-0.8145" y="2" width="160" relative="1" as="geometry">
            <mxPoint x="480" y="819" as="sourcePoint" />
            <mxPoint x="430" y="360" as="targetPoint" />
            <Array as="points" />
            <mxPoint as="offset" />
          </mxGeometry>
        </mxCell>
      </root>
    </mxGraphModel>
  </diagram>
</mxfile>
